<svg width="285" height="308" viewBox="0 0 285 308" fill="none" xmlns="http://www.w3.org/2000/svg">
<g clip-path="url(#clip0_2956_988)">
<path d="M143.186 308C221.508 308 285 274.957 285 234.197C285 193.438 221.508 160.395 143.186 160.395C64.8644 160.395 1.37207 193.438 1.37207 234.197C1.37207 274.957 64.8644 308 143.186 308Z" fill="#E8E8E8"/>
<path d="M234.045 243.839C254.935 243.839 271.87 234.067 271.87 222.012C271.87 209.957 254.935 200.184 234.045 200.184C213.155 200.184 196.22 209.957 196.22 222.012C196.22 234.067 213.155 243.839 234.045 243.839Z" fill="#E6E6E6"/>
<path d="M81.7028 209.057C96.1735 217.408 96.7632 231.195 82.2925 239.546C67.8218 247.897 43.7661 247.649 29.2954 239.298C14.8247 230.946 14.8247 217.408 29.2954 209.057C43.7661 200.706 67.2321 200.706 81.7028 209.057Z" fill="#E6E6E6"/>
<path d="M199.753 254.058L152.25 226.647C150.766 225.79 148.357 225.79 146.874 226.647L99.3705 254.058C97.8868 254.914 97.8868 256.304 99.3705 257.16L121.005 269.644L100.798 281.296C96.6948 283.666 90.0151 283.66 85.9117 281.296L54.1271 262.955C52.3702 261.944 51.408 260.672 51.408 259.375C51.408 258.079 52.3764 256.807 54.1271 255.795L82.2924 239.54C82.8884 239.198 83.0871 238.435 82.7456 237.846C82.4042 237.25 81.6406 237.045 81.0509 237.393L52.8855 253.649C50.3278 255.125 48.9248 257.16 48.9248 259.375C48.9248 261.597 50.334 263.632 52.8855 265.102L84.6701 283.443C87.1036 284.851 90.2324 285.552 93.355 285.552C96.4776 285.552 99.6064 284.851 102.04 283.449L123.488 271.077L146.874 284.572C148.357 285.428 150.766 285.428 152.25 284.572L199.753 257.16C201.236 256.304 201.236 254.914 199.753 254.058Z" fill="#E6E6E6"/>
<path d="M254.035 211.762C254.035 211.762 255.761 186.212 255.252 176.794C254.848 169.33 253.836 166.252 253.625 164.564C253.625 164.564 251.794 147.161 251.645 132.369C251.57 125.253 250.912 120.184 247.007 111.721L221.909 117.721C221.4 121.48 219.674 146.485 219.264 168.715C218.91 188.179 219.463 205.216 219.463 205.216L219.488 206.24C219.488 207.375 219.239 208.17 218.507 210C217.768 211.849 216.415 214.492 214.621 216.428C214.105 216.986 210.523 220.113 210.052 220.783C208.512 222.577 211.697 223.588 214.062 223.271C216.557 222.936 220.437 221.993 221.536 220.473C222.269 219.462 222.821 215.913 223.572 214.889C226.111 211.427 227.154 209.944 227.173 208.834C227.204 206.836 226.521 206.048 226.273 204.919C226.478 202.561 231.568 183.172 231.655 176.303C231.699 173.034 231.475 168.529 231.475 168.529L235.423 145.87C236.951 151.529 239.632 165.582 240.532 170.974C241.638 177.563 244.512 194.47 246.207 204.565C246.865 208.455 247.169 210.422 247.467 212.227C247.467 212.234 247.541 212.991 247.541 213.003C247.597 213.977 248.305 224.469 248.696 226.665C249.503 231.25 253.582 230.673 254.233 226.963C254.792 223.805 254.091 214.033 254.078 212.835L254.035 211.762Z" fill="#FFA8A7"/>
<path d="M254.035 211.762C255.183 211.781 254.426 216.235 254.724 219.096C255.04 222.167 256.052 224.407 256.338 226.926C256.667 229.805 256.412 231.008 255.376 233.372C254.575 235.209 250.54 237.734 249.006 235.103C247.454 232.442 247.144 229.47 247.318 226.603C247.498 223.644 247.318 221.807 247.38 219.561C247.436 217.576 245.977 212.507 247.467 212.221L247.541 212.997C248.075 214.064 253.526 214.281 254.078 212.829L254.035 211.762Z" fill="#234A56"/>
<path d="M227.415 211.253C227.769 212.687 227.403 216.62 227.403 216.62C227.403 216.62 226.782 217.979 224.566 218.879L223.573 213.406L227.415 211.253Z" fill="#102541"/>
<path d="M224.566 218.879L219.68 217.278L218.507 212.947L223.995 215.721L224.566 218.879Z" fill="black"/>
<path d="M219.488 206.24L219.463 205.216C218.799 205.539 217.34 210.875 215.366 214.542C213.565 217.886 209.989 219.747 208.835 221.205C207.283 223.154 210.3 225.66 215.136 224.624C217.538 224.109 221.176 222.576 222.163 220.957C223.15 219.338 223.486 216.36 224.286 215.168C225.093 213.977 227.005 212.606 227.415 211.247C227.639 210.503 227.819 208.852 227.403 207.506C227.024 206.271 226.695 204.782 226.273 204.912L226.242 205.849C225.919 206.507 224.752 207.276 222.306 207.413C221.145 207.481 220.022 207.301 219.488 206.24Z" fill="#234A56"/>
<path d="M221.425 117.416C221.425 117.416 219.767 135.825 219.233 152.124C218.699 168.43 219.177 189.457 219.177 189.457C219.177 189.457 220.86 190.661 224.566 190.828C228.272 190.996 229.557 189.761 229.557 189.761C229.557 189.761 231.823 182.371 232.177 177.172C232.531 171.973 232.177 168.715 232.177 168.715L235.486 146.962C235.486 146.962 239.682 168.38 240.16 170.967C240.638 173.555 244.661 196.437 244.661 196.437C244.661 196.437 246.238 197.895 250.285 197.814C253.861 197.746 254.904 196.462 254.904 196.462C254.904 196.462 255.767 182.427 255.568 176.434C255.394 171.147 254.19 166.941 253.948 163.516C253.706 160.091 253.563 140.565 253.327 133.132C253.085 125.699 252.415 119.241 246.064 110.3L221.425 117.416Z" fill="#455A64"/>
<path d="M235.479 146.962L232.729 133.337C232.729 133.337 227.924 132.084 225.689 129.155C225.689 129.155 226.31 132.407 231.252 134.485L234.182 148.06L233.189 162.089L235.479 146.962Z" fill="#234A56"/>
<path d="M186.356 114.004C188.889 114.519 191.639 113.613 191.639 113.613C190.695 113.08 189.963 112.645 189.547 112.23C188.727 111.404 189.013 110.542 189.298 110.232C189.522 109.99 190.093 110.561 191.384 110.927C193.036 111.392 194.234 111.491 195.823 112.409C196.419 112.751 197.12 112.887 197.81 112.757C201.683 112.025 210.716 107.8 214.857 105.585C215.707 102.147 217.166 97.0782 218.979 90.7682C220.649 84.9484 223.33 82.3983 227.589 82.4976L226.999 95.1299C226.999 95.1299 224.963 103.86 222.443 110.989C222.002 112.242 220.233 113.681 216.992 114.879C212.795 116.436 207.73 117.9 201.54 119.594C199.225 120.227 196.171 120.891 193.855 121.09C187.312 121.648 184.804 119.83 183.91 118.564C181.421 115.028 182.923 113.315 186.356 114.004Z" fill="#FFA8A7"/>
<path d="M238.602 82.3983L244.574 82.8636C242.947 91.5686 249.068 96.2219 249.068 96.2219L246.405 106.95C246.492 108.271 248.696 112.738 250.825 117.547C246.821 122.907 227.179 124.738 220.773 120.035C221.76 114.984 222.498 111.144 222.697 109.233L222.374 102.302C214.347 95.7194 224.038 85.6867 227.601 82.4976L232.084 82.299L238.602 82.3983Z" fill="#28A4B2"/>
<path d="M263.75 135.813C262.875 135.205 262.372 133.939 262.471 132.94C262.577 131.941 262.807 130.682 263.216 130.198C263.626 129.714 266.24 126.171 267.394 128.231C268.655 130.477 268.381 131.383 268.381 131.383L263.75 135.813Z" fill="#F28F8F"/>
<path d="M255.705 183.159C253.246 183.159 250.552 182.353 247.789 180.758L216.793 162.871C212.007 160.11 208.108 153.365 208.108 147.837V121.847C208.108 120.06 207.183 118.459 205.631 117.565C204.079 116.672 202.229 116.672 200.684 117.565L189.795 123.844C189.199 124.186 188.442 123.981 188.1 123.391C187.759 122.796 187.964 122.039 188.553 121.698L199.442 115.419C201.77 114.078 204.551 114.078 206.873 115.419C209.201 116.759 210.592 119.166 210.592 121.853V147.843C210.592 152.497 214 158.403 218.035 160.73L249.031 178.618C252.998 180.907 256.673 181.304 259.386 179.741C262.099 178.177 263.589 174.796 263.589 170.217V137.035C263.589 131.414 267.183 124.936 271.777 122.287L279.344 117.919C279.94 117.578 280.698 117.783 281.039 118.372C281.381 118.968 281.176 119.725 280.586 120.066L273.018 124.434C269.256 126.605 266.072 132.376 266.072 137.029V170.211C266.072 175.714 264.141 179.859 260.627 181.881C259.15 182.737 257.486 183.159 255.705 183.159Z" fill="#102541"/>
<path d="M202.13 125.644V127.673C202.13 130.917 199.852 134.87 197.034 136.489L178.23 147.341L159.116 136.309L159.109 119.768L177.665 111.2C180.614 109.841 185.288 110.052 188.1 111.671L197.027 116.821C199.846 118.446 202.13 122.399 202.13 125.644Z" fill="#37474F"/>
<path d="M177.671 111.2C180.62 109.841 185.294 110.052 188.107 111.671L197.034 116.821C199.846 118.446 199.734 120.866 196.785 122.225L178.23 130.787L159.109 119.762L177.671 111.2Z" fill="#455A64"/>
<path opacity="0.15" d="M180.036 126.816C181.446 127.629 182.582 129.602 182.582 131.228V144.834L178.23 147.347L159.116 136.315L159.109 119.774L163.952 117.541L180.036 126.816Z" fill="black"/>
<path d="M157.489 116.92C157.948 116.653 158.575 116.697 159.277 117.1L178.075 127.946C179.484 128.758 180.62 130.731 180.62 132.357V148.538C180.62 149.351 180.334 149.916 179.869 150.182C179.44 150.424 177.901 151.312 177.479 151.56C177.019 151.833 176.386 151.796 175.678 151.386L156.881 140.541C155.472 139.728 154.335 137.755 154.335 136.129V119.948C154.335 119.141 154.615 118.564 155.074 118.304C155.509 118.056 157.061 117.168 157.489 116.92Z" fill="#37474F"/>
<path d="M175.684 129.323L156.887 118.477C155.478 117.665 154.342 118.322 154.342 119.948V136.129C154.342 137.755 155.484 139.728 156.887 140.541L175.684 151.386C177.094 152.199 178.23 151.541 178.23 149.916V133.734C178.236 132.109 177.094 130.136 175.684 129.323Z" fill="#455A64"/>
<path d="M153.423 148.16V150.958C153.423 152.093 153.814 152.881 154.46 153.254C154.745 153.415 155.863 154.066 156.154 154.234C156.8 154.612 157.7 154.563 158.681 153.992L174.232 145.02V133.989L172.543 133.015L156.992 141.986C155.018 143.122 153.423 145.883 153.423 148.16ZM160.456 144.673C160.506 144.871 160.543 145.095 160.543 145.337C160.543 146.857 159.476 148.712 158.153 149.475C157.942 149.599 157.737 149.674 157.545 149.723C157.495 149.525 157.458 149.314 157.458 149.072C157.458 147.552 158.526 145.697 159.848 144.933C160.053 144.816 160.258 144.729 160.456 144.673Z" fill="#28A4B2"/>
<path opacity="0.2" d="M156.055 154.166C156.092 154.191 156.123 154.215 156.167 154.24C156.161 154.24 156.161 154.234 156.154 154.234C156.136 154.222 156.111 154.209 156.092 154.197C155.72 153.98 154.72 153.403 154.46 153.247C153.808 152.888 153.423 152.1 153.423 150.958V148.16C153.423 147.018 153.82 145.759 154.472 144.642L156.161 145.616C155.515 146.745 155.118 147.992 155.118 149.134V151.932C155.118 152.819 155.36 153.496 155.769 153.93C155.85 154.023 155.949 154.097 156.055 154.166Z" fill="black"/>
<path opacity="0.5" d="M174.219 133.989L158.681 142.96C157.694 143.531 156.806 144.499 156.16 145.616L154.472 144.642C155.118 143.525 156.005 142.557 156.986 141.986L172.537 133.015L174.219 133.989Z" fill="white"/>
<path opacity="0.5" d="M156.235 154.284C156.223 154.277 156.204 154.265 156.192 154.259C156.198 154.259 156.21 154.265 156.223 154.271C156.229 154.277 156.229 154.284 156.235 154.284Z" fill="white"/>
<path opacity="0.2" d="M156.223 154.271C156.21 154.265 156.198 154.259 156.192 154.259C156.179 154.253 156.173 154.246 156.167 154.24C156.185 154.253 156.204 154.259 156.223 154.271Z" fill="black"/>
<path opacity="0.2" d="M160.537 145.337C160.537 145.089 160.5 144.865 160.457 144.679C161.475 144.394 162.232 145.039 162.232 146.317C162.232 147.843 161.164 149.692 159.842 150.455C158.737 151.101 157.793 150.759 157.539 149.73C157.737 149.68 157.936 149.612 158.153 149.481C159.469 148.712 160.537 146.863 160.537 145.337Z" fill="black"/>
<path d="M139.083 139.883V142.681C139.083 143.817 139.474 144.605 140.119 144.977C140.405 145.138 141.522 145.79 141.814 145.957C142.46 146.336 143.36 146.286 144.341 145.715L159.892 136.744V125.712L158.203 124.738L142.652 133.71C140.684 134.851 139.083 137.612 139.083 139.883ZM146.122 136.402C146.172 136.601 146.209 136.824 146.209 137.066C146.209 138.586 145.141 140.441 143.819 141.205C143.608 141.329 143.403 141.403 143.211 141.453C143.161 141.254 143.124 141.043 143.124 140.801C143.124 139.281 144.192 137.426 145.514 136.663C145.719 136.539 145.924 136.452 146.122 136.402Z" fill="#28A4B2"/>
<path opacity="0.2" d="M141.888 146.001C141.876 145.994 141.87 145.988 141.857 145.988C141.845 145.976 141.826 145.97 141.814 145.963C141.522 145.79 140.405 145.138 140.125 144.977C139.474 144.611 139.089 143.823 139.089 142.681V139.883C139.089 139.312 139.188 138.717 139.368 138.121C139.548 137.525 139.809 136.93 140.132 136.371L140.138 136.377L141.826 137.345C141.826 137.345 141.826 137.352 141.82 137.352C141.659 137.631 141.516 137.916 141.392 138.208C141.007 139.089 140.783 140.007 140.783 140.863V143.662C140.783 144.543 141.025 145.225 141.435 145.659C141.566 145.796 141.721 145.914 141.888 146.001Z" fill="black"/>
<path opacity="0.5" d="M159.885 125.718L144.347 134.69C143.354 135.261 142.472 136.229 141.826 137.345L140.138 136.377C140.784 135.254 141.671 134.28 142.652 133.71L158.203 124.738L159.885 125.718Z" fill="white"/>
<path opacity="0.5" d="M141.901 146.013C141.888 146.007 141.876 146.001 141.857 145.988C141.87 145.988 141.876 145.994 141.888 146.001C141.895 146.007 141.895 146.013 141.901 146.013Z" fill="white"/>
<path opacity="0.2" d="M146.203 137.06C146.203 136.812 146.166 136.588 146.122 136.402C147.14 136.117 147.898 136.762 147.898 138.04C147.898 139.567 146.824 141.415 145.508 142.179C144.403 142.824 143.459 142.483 143.205 141.447C143.403 141.397 143.602 141.329 143.819 141.198C145.135 140.435 146.203 138.592 146.203 137.06Z" fill="black"/>
<path d="M143.788 128.597L141.286 118.868" stroke="#E8E8E8" stroke-width="3" stroke-miterlimit="10" stroke-linecap="round" stroke-linejoin="round"/>
<path d="M136.804 132.655L127.554 125.352" stroke="#E8E8E8" stroke-width="3" stroke-miterlimit="10" stroke-linecap="round" stroke-linejoin="round"/>
<path d="M134.873 140.727L124.065 141.564" stroke="#E8E8E8" stroke-width="3" stroke-miterlimit="10" stroke-linecap="round" stroke-linejoin="round"/>
<path d="M272.199 125.687C271.957 123.82 271.752 121.176 271.181 118.862C269.734 113.018 266.593 105.448 265.557 103.463C264.52 101.483 262.179 98.5983 260.522 96.1599C258.175 92.7164 256.53 90.7806 254.742 88.4477C250.819 83.3166 249.149 83.025 244.574 82.8575C243.953 84.4892 242.538 91.1777 247.125 96.5818L256.965 106.943C257.523 107.843 263.533 118.105 264.532 121.902C264.712 122.572 264.613 123.286 264.296 123.906C263.452 125.569 262.949 127.654 262.577 129.335C262.285 130.651 261.503 131.693 261.77 131.898C262.111 132.158 262.955 132.481 263.949 131.724C264.427 131.358 265.159 130.154 265.643 129.174C266.469 129.18 267.003 129.658 267.065 130.527C267.121 131.29 266.773 132.357 266.513 133.678C266.463 133.933 266.401 134.231 266.277 134.95C266.196 135.341 266.115 135.862 266.109 136.427C267.363 136.657 268.642 135.9 270.728 133.92C272.603 132.14 272.727 129.745 272.199 125.687Z" fill="#FFA8A7"/>
<path d="M239.67 79.3829C239.701 78.1606 243.742 75.2383 245.784 72.1485C247.678 69.2882 250.322 61.4023 244.052 58.8833C244.052 58.8833 245.399 55.0985 242.947 52.8773C240.495 50.6499 237.18 52.0273 236.659 52.958C236.659 52.958 235.746 49.0429 231.407 48.832C227.074 48.621 226.267 52.6664 226.267 52.6664C226.267 52.6664 222.84 51.0966 220.543 54.2671C218.246 57.4376 221.294 60.3413 221.294 60.3413C221.294 60.3413 219.916 61.21 220.127 62.7611C220.307 64.1013 221.592 64.4363 221.747 65.1002C221.896 65.7641 221.052 66.1612 220.617 65.6834C220.617 65.6834 220.76 66.8312 222.207 66.7568C223.653 66.6761 224.944 64.7155 224.944 64.7155L239.67 79.3829Z" fill="#263238"/>
<path d="M226.502 58.4862C224.646 59.2928 222.883 62.122 222.914 70.0576C222.939 76.777 225 78.4771 226.043 78.9796C227.086 79.476 229.116 79.2278 231.096 78.9238L231.09 82.7892C231.09 82.7892 227.514 87.2254 230.718 89.4342C238.987 87.9886 239.62 82.5658 239.62 82.5658L239.769 74.1401C239.769 74.1401 240.905 75.3376 242.904 73.5817C244.555 72.1361 245.151 69.6543 243.909 68.2955C242.668 66.9367 241.079 66.825 239.638 68.3451C239.638 68.3451 237 68.5127 233.033 66.0247C228.973 63.4808 227.589 61.0176 226.502 58.4862Z" fill="#FFA8A7"/>
<path d="M231.27 74.2642C231.289 74.8164 230.879 75.2756 230.352 75.288C229.824 75.3066 229.377 74.8723 229.358 74.3263C229.34 73.7741 229.749 73.3149 230.277 73.3025C230.805 73.2839 231.252 73.7182 231.27 74.2642Z" fill="#B16668"/>
<path d="M226.155 67.7743C226.174 68.2831 225.789 68.7112 225.298 68.7298C224.808 68.7484 224.392 68.3451 224.373 67.8302C224.355 67.3214 224.739 66.8933 225.23 66.8747C225.72 66.8623 226.136 67.2593 226.155 67.7743Z" fill="#263238"/>
<path d="M233.033 68.1714C233.052 68.7236 232.642 69.1827 232.114 69.1952C231.587 69.2138 231.14 68.7795 231.121 68.2335C231.103 67.6813 231.512 67.2221 232.04 67.2097C232.568 67.1911 233.015 67.6254 233.033 68.1714Z" fill="#263238"/>
<path d="M225.534 64.2067L223.641 65.3111C223.914 65.8695 224.609 66.0185 225.131 65.7144C225.658 65.4166 225.807 64.7651 225.534 64.2067Z" fill="#263238"/>
<path d="M239.626 67.2531L239.601 70.9883C238.602 71.0193 237.795 70.2127 237.801 69.1827C237.807 68.1466 238.627 67.2842 239.626 67.2531Z" fill="#263238"/>
<path d="M228.607 66.8747L228.222 72.2353L225.397 71.5715L228.607 66.8747Z" fill="#F28F8F"/>
<path d="M231.09 78.9176C233.17 78.6756 237.472 77.4782 238.167 75.7347C238.167 75.7347 237.925 76.8329 236.628 77.9497C235.33 79.0603 231.09 80.2205 231.09 80.2205V78.9176Z" fill="#F28F8F"/>
<path d="M256.096 37.4716C256.89 37.7694 257.629 38.1727 258.3 38.6814C258.97 39.184 259.516 39.7672 259.938 40.4187C260.361 41.0702 260.628 41.7837 260.746 42.553C260.863 43.3224 260.764 44.1228 260.454 44.9542C260.199 45.6305 259.87 46.1827 259.473 46.6046C259.069 47.0265 258.629 47.3739 258.151 47.6469C257.673 47.9199 257.17 48.1495 256.654 48.3356C256.139 48.5218 255.649 48.6955 255.196 48.8568C254.736 49.0243 254.314 49.2167 253.929 49.44C253.544 49.6634 253.259 49.955 253.066 50.3087C252.961 50.4824 252.824 50.6127 252.657 50.7057C252.489 50.7988 252.309 50.805 252.123 50.7368L250.186 50.0108C250 49.9426 249.857 49.8123 249.764 49.62C249.671 49.4276 249.671 49.2477 249.757 49.0678C250.043 48.4163 250.397 47.8889 250.831 47.4856C251.266 47.0761 251.732 46.7411 252.228 46.4743C252.725 46.2075 253.234 45.9841 253.755 45.8166C254.277 45.6429 254.761 45.4754 255.214 45.3016C255.667 45.1341 256.059 44.9418 256.388 44.7246C256.723 44.5137 256.952 44.2283 257.089 43.8684C257.331 43.2231 257.263 42.5903 256.872 41.9698C256.487 41.3494 255.841 40.8716 254.941 40.5304C253.501 39.9906 252.166 40.307 250.949 41.4983C250.794 41.6534 250.651 41.7589 250.527 41.8147C250.397 41.8705 250.223 41.8581 250.006 41.7775L247.945 41.0019C247.79 40.9461 247.678 40.8468 247.61 40.6979C247.535 40.5552 247.535 40.4001 247.597 40.2264C247.839 39.6369 248.249 39.1033 248.826 38.6132C249.404 38.123 250.086 37.7446 250.856 37.4591C251.632 37.1799 252.47 37.0248 253.383 37C254.295 36.9752 255.196 37.1365 256.096 37.4716ZM251.67 52.3003C251.856 52.3686 251.992 52.4988 252.073 52.685C252.16 52.8711 252.166 53.0573 252.098 53.2434L251.254 55.4832C251.185 55.6693 251.055 55.8058 250.869 55.8927C250.682 55.9796 250.496 55.9858 250.31 55.9175L248.125 55.0923C247.939 55.0241 247.802 54.8938 247.715 54.7076C247.628 54.5215 247.622 54.3354 247.69 54.1492L248.535 51.9094C248.603 51.7233 248.733 51.5868 248.919 51.4999C249.106 51.4131 249.292 51.4069 249.478 51.4813L251.67 52.3003Z" fill="#7FDAE1"/>
<path d="M257.17 64.2129C257.306 64.3432 257.375 64.5045 257.381 64.6969C257.387 64.8892 257.325 65.0567 257.194 65.1932L255.643 66.825C255.512 66.9615 255.351 67.0298 255.158 67.036C254.966 67.0422 254.798 66.9801 254.662 66.8498L253.066 65.3297C252.93 65.1994 252.861 65.0381 252.855 64.8458C252.849 64.6535 252.911 64.4859 253.041 64.3494L254.593 62.7176C254.724 62.5811 254.885 62.5129 255.078 62.5067C255.27 62.5005 255.438 62.5625 255.574 62.6928L257.17 64.2129ZM266.457 52.9642C267.04 53.5164 267.531 54.1368 267.928 54.8193C268.325 55.5018 268.586 56.2091 268.716 56.9289C268.841 57.6486 268.816 58.3683 268.636 59.0756C268.456 59.7891 268.077 60.4468 267.5 61.0548C267.028 61.5512 266.544 61.9049 266.041 62.122C265.538 62.3392 265.029 62.4819 264.514 62.5439C263.992 62.606 263.477 62.6184 262.968 62.5936C262.453 62.5625 261.968 62.5377 261.509 62.5129C261.05 62.4881 260.609 62.5005 260.199 62.5563C259.783 62.606 259.429 62.7549 259.131 62.9906C258.976 63.1023 258.809 63.1644 258.629 63.183C258.449 63.2016 258.287 63.1458 258.151 63.0155L256.741 61.6753C256.605 61.545 256.53 61.3837 256.518 61.1851C256.505 60.9866 256.574 60.8253 256.716 60.7012C257.201 60.2421 257.704 59.9132 258.231 59.7209C258.759 59.5285 259.287 59.4044 259.814 59.3548C260.342 59.3052 260.87 59.299 261.385 59.3424C261.9 59.3858 262.384 59.4107 262.838 59.4293C263.291 59.4479 263.7 59.4231 264.067 59.361C264.433 59.299 264.743 59.1377 264.985 58.8771C265.432 58.4055 265.6 57.8347 265.495 57.1522C265.389 56.4697 265.004 55.8182 264.352 55.1978C263.297 54.1989 262.024 53.9879 260.528 54.5711C260.336 54.6456 260.174 54.689 260.044 54.6952C259.907 54.6952 259.765 54.6208 259.603 54.4719L258.101 53.0448C257.989 52.9394 257.927 52.8091 257.921 52.6602C257.908 52.5113 257.964 52.3748 258.082 52.2507C258.504 51.8288 259.063 51.5123 259.746 51.3014C260.429 51.0904 261.155 51.0036 261.931 51.047C262.707 51.0904 263.489 51.2641 264.29 51.5744C265.072 51.8722 265.799 52.3375 266.457 52.9642Z" fill="#7FDAE1"/>
<g opacity="0.6">
<path d="M257.17 64.2129C257.306 64.3432 257.375 64.5045 257.381 64.6969C257.387 64.8892 257.325 65.0567 257.194 65.1932L255.643 66.825C255.512 66.9615 255.351 67.0298 255.158 67.036C254.966 67.0422 254.798 66.9801 254.662 66.8498L253.066 65.3297C252.93 65.1994 252.861 65.0381 252.855 64.8458C252.849 64.6535 252.911 64.4859 253.041 64.3494L254.593 62.7176C254.724 62.5811 254.885 62.5129 255.078 62.5067C255.27 62.5005 255.438 62.5625 255.574 62.6928L257.17 64.2129ZM266.457 52.9642C267.04 53.5164 267.531 54.1368 267.928 54.8193C268.325 55.5018 268.586 56.2091 268.716 56.9289C268.841 57.6486 268.816 58.3683 268.636 59.0756C268.456 59.7891 268.077 60.4468 267.5 61.0548C267.028 61.5512 266.544 61.9049 266.041 62.122C265.538 62.3392 265.029 62.4819 264.514 62.5439C263.992 62.606 263.477 62.6184 262.968 62.5936C262.453 62.5625 261.968 62.5377 261.509 62.5129C261.05 62.4881 260.609 62.5005 260.199 62.5563C259.783 62.606 259.429 62.7549 259.131 62.9906C258.976 63.1023 258.809 63.1644 258.629 63.183C258.449 63.2016 258.287 63.1458 258.151 63.0155L256.741 61.6753C256.605 61.545 256.53 61.3837 256.518 61.1851C256.505 60.9866 256.574 60.8253 256.716 60.7012C257.201 60.2421 257.704 59.9132 258.231 59.7209C258.759 59.5285 259.287 59.4044 259.814 59.3548C260.342 59.3052 260.87 59.299 261.385 59.3424C261.9 59.3858 262.384 59.4107 262.838 59.4293C263.291 59.4479 263.7 59.4231 264.067 59.361C264.433 59.299 264.743 59.1377 264.985 58.8771C265.432 58.4055 265.6 57.8347 265.495 57.1522C265.389 56.4697 265.004 55.8182 264.352 55.1978C263.297 54.1989 262.024 53.9879 260.528 54.5711C260.336 54.6456 260.174 54.689 260.044 54.6952C259.907 54.6952 259.765 54.6208 259.603 54.4719L258.101 53.0448C257.989 52.9394 257.927 52.8091 257.921 52.6602C257.908 52.5113 257.964 52.3748 258.082 52.2507C258.504 51.8288 259.063 51.5123 259.746 51.3014C260.429 51.0904 261.155 51.0036 261.931 51.047C262.707 51.0904 263.489 51.2641 264.29 51.5744C265.072 51.8722 265.799 52.3375 266.457 52.9642Z" fill="white"/>
</g>
<path d="M36.2788 220.213C38.2467 221.41 40.8603 221.46 43.3248 220.591L45.2182 207.58L36.4961 205.353L36.2788 220.213Z" fill="#FFA8A7"/>
<path d="M50.3028 232.684C50.5138 232.907 50.3835 234.533 50.1165 234.911C49.831 235.308 48.3535 236.518 45.6034 236.568C42.9774 236.617 40.6556 236.133 39.1719 235.079C37.6882 234.018 36.9992 232.907 36.9371 231.406C36.875 229.904 37.1171 228.477 36.4653 227.292C35.8631 226.2 35.0437 225.12 34.845 224.531C34.4167 223.253 34.8326 221.323 34.8326 221.323L50.3028 232.684Z" fill="#263238"/>
<path d="M43.9274 220.045C43.9398 220.603 44.0081 221.156 44.1571 221.72C44.4737 222.899 44.9951 224.016 45.5849 225.083C45.8891 225.635 46.2119 226.175 46.5968 226.684C47.3355 227.67 48.2791 228.496 49.0675 229.445C49.8559 230.394 50.5078 231.53 50.514 232.746C50.514 234.806 48.2481 235.383 46.5161 235.594C44.6661 235.823 42.7168 235.618 40.9538 235.017C38.9921 234.346 37.6387 232.727 37.4152 230.723C37.3532 230.146 37.4152 229.569 37.378 228.992C37.2973 227.677 36.6827 226.442 35.975 225.313C35.5653 224.655 35.1121 224.016 34.8576 223.29C34.392 221.993 34.8948 220.585 35.3045 219.338C35.6584 218.258 35.944 216.961 36.3226 217.086C36.3102 217.309 36.3102 217.787 36.3102 217.787C36.422 218.029 36.6951 218.209 36.7634 218.488C36.8317 218.779 36.9124 219.071 37.0303 219.35C37.2104 219.772 37.4959 220.169 37.887 220.405C37.9553 219.629 38.0236 218.86 38.0919 218.084C38.1105 217.842 38.1416 217.588 38.3092 217.414C38.4768 217.234 38.7375 217.197 38.9796 217.166C40.4447 216.974 41.9346 216.782 43.3935 217.036C43.6108 217.073 43.8529 217.135 43.9708 217.328C44.0701 217.483 44.0577 217.675 44.0391 217.855C43.9708 218.599 43.9087 219.319 43.9274 220.045Z" fill="#7FDAE1"/>
<path opacity="0.2" d="M43.9274 220.045C43.9398 220.603 44.0081 221.156 44.1571 221.72C44.4737 222.899 44.9951 224.016 45.5849 225.083C45.8891 225.635 46.2119 226.175 46.5968 226.684C47.3355 227.67 48.2791 228.496 49.0675 229.445C49.8559 230.394 50.5078 231.53 50.514 232.746C50.514 234.806 48.2481 235.383 46.5161 235.594C44.6661 235.823 42.7168 235.618 40.9538 235.017C38.9921 234.346 37.6387 232.727 37.4152 230.723C37.3532 230.146 37.4152 229.569 37.378 228.992C37.2973 227.677 36.6827 226.442 35.975 225.313C35.5653 224.655 35.1121 224.016 34.8576 223.29C34.392 221.993 34.8948 220.585 35.3045 219.338C35.6584 218.258 35.944 216.961 36.3226 217.086C36.3102 217.309 36.3102 217.787 36.3102 217.787C36.422 218.029 36.6951 218.209 36.7634 218.488C36.8317 218.779 36.9124 219.071 37.0303 219.35C37.2104 219.772 37.4959 220.169 37.887 220.405C37.9553 219.629 38.0236 218.86 38.0919 218.084C38.1105 217.842 38.1416 217.588 38.3092 217.414C38.4768 217.234 38.7375 217.197 38.9796 217.166C40.4447 216.974 41.9346 216.782 43.3935 217.036C43.6108 217.073 43.8529 217.135 43.9708 217.328C44.0701 217.483 44.0577 217.675 44.0391 217.855C43.9708 218.599 43.9087 219.319 43.9274 220.045Z" fill="black"/>
<path d="M45.8393 225.53C45.1068 224.916 43.3934 224.816 42.4498 224.866C41.2703 224.928 40.2956 225.288 39.7369 225.654C39.4886 225.815 39.1534 225.772 38.9547 225.548C38.7126 225.288 38.7623 224.878 39.0602 224.68C39.6562 224.289 40.724 223.755 42.1145 223.731C44.4301 223.693 45.0819 224.121 45.0819 224.121C45.0819 224.121 46.1 224.86 45.8393 225.53Z" fill="#455A64"/>
<path d="M47.4843 227.726C46.5531 227.106 44.6659 227.087 43.7223 227.137C42.5428 227.199 41.6427 227.615 41.0777 227.981C40.8294 228.142 40.4942 228.092 40.2955 227.875C40.0534 227.615 40.1031 227.205 40.4011 227.007C40.997 226.616 42.1331 225.995 43.5299 225.97C45.8454 225.933 46.4166 226.436 46.4166 226.436C46.4166 226.436 47.3726 226.87 47.4843 227.726Z" fill="#455A64"/>
<path d="M41.3198 221.478C42.9215 221.398 43.5857 221.615 44.2065 221.875C44.5976 222.124 44.8335 222.781 44.5604 222.93C44.0637 222.62 43.145 222.452 42.0089 222.44C41.2453 222.434 40.2769 222.688 39.4761 222.992C39.2712 223.067 39.0353 223.178 38.8242 223.284C38.5387 223.42 38.1972 223.296 38.0793 223.005C37.98 222.763 38.0793 222.483 38.3152 222.359C38.8925 222.049 40.0224 221.54 41.3198 221.478Z" fill="#455A64"/>
<path d="M60.7754 215.317C62.2902 219.108 64.6616 217.942 68.2746 215.758L68.8209 202.815L59.627 201.965L60.7754 215.317Z" fill="#FFA8A7"/>
<path d="M82.143 224.444C82.3355 224.903 82.2237 225.747 81.9444 226.268C81.6588 226.789 78.7845 228.21 75.0287 227.757C71.2729 227.298 68.7711 225.642 67.3806 224.618C65.9962 223.588 64.5063 223.333 62.6501 223.123C60.7877 222.918 59.391 222.266 59.0247 221.373C58.6646 220.479 59.2171 219.003 59.2171 219.003L82.143 224.444Z" fill="#263238"/>
<path d="M67.5173 212.513C67.865 212.451 68.1505 212.345 68.5168 212.234C68.6968 212.178 68.9017 212.122 69.0755 212.196C69.3114 212.302 69.3921 212.587 69.4418 212.842C69.5473 213.357 69.5659 214.021 69.7646 214.498C69.9446 214.933 70.4288 215.348 70.7641 215.665C71.6394 216.484 72.6513 217.148 73.6756 217.768C74.8737 218.494 76.047 219.071 77.2886 219.71C78.555 220.362 80.256 220.808 81.2306 221.547C82.6585 222.62 82.7143 225.133 80.9761 226.032C79.48 226.808 75.6062 227.528 71.6518 226.175C69.4976 225.437 67.2007 222.974 64.3451 222.595C62.5261 222.353 60.105 222.068 59.0062 220.622C58.6027 219.983 58.9566 218.209 59.2794 216.099C59.5711 214.213 59.8381 211.266 60.4341 211.458L60.4837 212.029C60.4837 212.029 61.03 212.687 61.21 212.904C61.3652 213.096 61.5453 213.214 61.7191 213.388C61.9426 213.605 62.1164 213.853 62.3647 214.052C62.6627 214.294 63.029 214.473 63.4139 214.492C63.5939 214.498 63.7863 214.467 63.9415 214.38C64.2519 214.2 64.2892 213.797 64.5437 213.543C64.8293 213.257 65.1831 213.034 65.5556 212.885C66.0833 212.68 66.642 212.593 67.2007 212.55C67.3187 212.544 67.418 212.531 67.5173 212.513Z" fill="#7FDAE1"/>
<path opacity="0.2" d="M67.5173 212.513C67.865 212.451 68.1505 212.345 68.5168 212.234C68.6968 212.178 68.9017 212.122 69.0755 212.196C69.3114 212.302 69.3921 212.587 69.4418 212.842C69.5473 213.357 69.5659 214.021 69.7646 214.498C69.9446 214.933 70.4288 215.348 70.7641 215.665C71.6394 216.484 72.6513 217.148 73.6756 217.768C74.8737 218.494 76.047 219.071 77.2886 219.71C78.555 220.362 80.256 220.808 81.2306 221.547C82.6585 222.62 82.7143 225.133 80.9761 226.032C79.48 226.808 75.6062 227.528 71.6518 226.175C69.4976 225.437 67.2007 222.974 64.3451 222.595C62.5261 222.353 60.105 222.068 59.0062 220.622C58.6027 219.983 58.9566 218.209 59.2794 216.099C59.5711 214.213 59.8381 211.266 60.4341 211.458L60.4837 212.029C60.4837 212.029 61.03 212.687 61.21 212.904C61.3652 213.096 61.5453 213.214 61.7191 213.388C61.9426 213.605 62.1164 213.853 62.3647 214.052C62.6627 214.294 63.029 214.473 63.4139 214.492C63.5939 214.498 63.7863 214.467 63.9415 214.38C64.2519 214.2 64.2892 213.797 64.5437 213.543C64.8293 213.257 65.1831 213.034 65.5556 212.885C66.0833 212.68 66.642 212.593 67.2007 212.55C67.3187 212.544 67.418 212.531 67.5173 212.513Z" fill="black"/>
<path d="M72.0242 216.688C72.0242 216.688 71.8007 215.975 70.7267 215.714C69.9073 215.516 68.405 216.049 67.4551 216.75C67.064 217.036 67.0827 217.625 67.4924 217.88C67.7345 218.035 68.0449 218.01 68.2746 217.836C68.9016 217.346 70.2922 216.471 72.0242 216.688Z" fill="#455A64"/>
<path d="M74.5199 218.264C74.5199 218.264 74.0294 217.396 72.9679 217.359C72.9679 217.359 70.7951 217.303 69.3921 218.482C69.032 218.779 69.0258 219.325 69.4231 219.574C69.659 219.722 69.957 219.704 70.1743 219.524C70.8075 219.021 72.0801 217.948 74.5199 218.264Z" fill="#455A64"/>
<path d="M77.2886 219.716C77.2886 219.716 76.7299 218.928 75.6684 218.885C75.6684 218.885 73.6446 218.854 72.2354 220.026C71.8753 220.324 71.8691 220.87 72.2664 221.118C72.5023 221.267 72.8003 221.249 73.0176 221.075C73.657 220.566 74.8489 219.4 77.2886 219.716Z" fill="#455A64"/>
<path d="M36.0308 185.281C36.3102 179.033 37.6387 175.782 37.8311 174.051C37.8311 174.051 38.3402 139.684 39.1782 129.248L69.9696 127.939C70.4228 139.083 70.8325 169.112 70.5966 173.083C70.3669 176.887 68.8211 209.876 68.8211 209.876C64.4694 211.228 59.8382 209.28 59.8382 209.28C59.8382 209.28 57.2558 190.518 56.8336 186.379C56.2873 181.025 57.1254 175.205 57.1254 175.205L55.1575 148.482C55.1575 148.482 52.7798 169.199 51.6003 177.004C50.2532 185.945 44.486 213.661 44.486 213.661C40.3329 214.697 36.2853 212.904 36.2853 212.904C36.2853 212.904 35.6273 194.34 36.0308 185.281Z" fill="#455A64"/>
<path d="M55.1514 148.482L55.7349 144.803C57.529 144.536 62.0732 141.701 64.7612 139.225C64.7612 139.225 62.3277 143.345 57.2124 146.181L57.1193 175.211L55.1514 148.482Z" fill="#37474F"/>
<path d="M67.778 109.835C65.6859 105.063 62.0853 97.0285 62.0853 97.0285L61.1665 83.968C61.1665 83.968 63.2089 84.0177 65.1458 84.3217C67.0889 84.6257 70.1556 86.4747 71.5648 89.9616C72.6077 92.5489 78.0645 108.333 78.0645 108.333L87.5626 103.326C89.9961 101.781 90.8528 99.2187 92.411 97.7669C93.963 96.315 95.5336 96.0668 97.2346 94.8818C98.9356 93.6967 99.6371 92.7474 100.065 93.9325C100.5 95.1175 98.5755 96.9354 98.2279 97.3884C97.8802 97.8413 95.9868 98.8092 98.3707 98.9333C100.761 99.0574 105.578 96.7369 106.733 96.3398C107.887 95.9427 107.782 97.3139 107.186 98.1577C106.584 99.0077 106.522 101.502 105.516 102.904C104.448 104.393 103.871 105.032 101.58 105.913C99.4508 106.739 95.037 106.943 92.7649 108.259C90.4928 109.568 84.9926 114.538 81.3237 117.088C76.4008 120.513 73.632 120.736 71.7014 118.006C69.7707 115.282 68.5105 111.516 67.778 109.835Z" fill="#FFA8A7"/>
<path d="M59.8877 83.7199C63.1096 83.4717 66.9151 83.6702 69.0258 85.5936C70.7019 87.1261 71.3351 88.1065 73.2099 93.3679C74.4763 96.923 77.1085 105.113 77.1085 105.113C77.1085 105.113 71.5214 106.106 67.7656 110.821L61.7128 97.2271L59.8877 83.7199Z" fill="#CCCCCC"/>
<path d="M78.0583 108.333C75.9538 109.084 74.5508 110.561 74.0417 111.411C74.0417 111.411 74.2652 108.916 77.7479 107.446L78.0583 108.333Z" fill="#F28F8F"/>
<path d="M52.1588 83.1367C52.1588 83.1367 50.0853 82.9815 47.6208 83.633C44.7837 84.3838 39.6994 85.8108 39.6994 85.8108C38.0854 86.6484 37.4522 89.4466 37.0921 91.0474C35.925 96.1847 38.9793 107.824 39.4263 112.323C39.8671 116.827 38.9048 130.7 38.9048 130.7C42.3751 134.715 61.1789 137.383 70.3356 130.7C70.3356 130.7 70.7329 98.8899 69.8328 94.3234C68.467 87.4178 66.4432 84.1356 59.2979 83.7199L52.1588 83.1367Z" fill="#F5F5F5"/>
<path d="M56.1753 66.0743L54.1329 67.2035C53.8287 66.6141 54.046 65.8882 54.6109 65.5779C55.1758 65.2615 55.8711 65.4849 56.1753 66.0743Z" fill="#263238"/>
<path d="M65.0526 66.8933L63.1902 65.46C63.5689 64.9265 64.2952 64.8148 64.8105 65.2119C65.3257 65.609 65.4312 66.3597 65.0526 66.8933Z" fill="#263238"/>
<path d="M46.789 59.5782C46.789 59.5782 44.5914 59.8822 43.7844 61.5388C43.0829 62.9783 43.3374 66.4528 44.2686 70.2375C45.1998 74.0223 46.0813 76.3055 46.6338 77.3541C47.1801 78.4026 48.31 78.6942 48.31 78.6942L48.1982 74.2022L48.0368 71.0689C48.0368 71.0689 50.0482 68.3265 50.2655 66.0743C50.551 63.183 49.9427 61.9979 49.9427 61.9979L46.789 59.5782Z" fill="#263238"/>
<path d="M50.3336 63.9213C50.346 68.5561 54.1204 72.2974 58.7515 72.285C63.3888 72.2726 66.8591 68.4692 66.8467 63.8345C66.8342 59.1997 63.333 55.4894 58.6957 55.508C54.0645 55.5204 50.3149 59.2866 50.3336 63.9213Z" fill="#263238"/>
<path d="M48.1548 70.5663C47.3974 71.224 46.7828 69.524 46.1496 68.8663C45.5164 68.2086 43.4429 67.309 42.4186 69.4806C41.3757 71.6956 43.325 74.8164 44.9142 75.4307C46.64 76.0946 47.6209 74.6055 47.6209 74.6055V84.5637C50.0109 88.8634 54.2261 88.7331 56.4734 88.4911C58.7269 88.2492 59.2173 85.9101 57.5722 84.0239L57.5536 80.9465C57.5536 80.9465 60.0988 81.3249 61.3342 81.1264C63.3952 80.8038 64.4754 79.2464 65.0962 77.0128C66.0895 73.4266 66.4868 67.3896 65.1086 60.422C62.7993 58.6351 54.7848 58.9329 49.9364 62.0041C50.2965 68.1776 48.9121 69.9149 48.1548 70.5663Z" fill="#FFA8A7"/>
<path d="M65.4937 56.8978C65.8041 55.6073 65.9469 54.2733 65.9097 52.9456C65.8972 52.4182 65.7793 51.7853 65.2951 51.593C64.8233 51.4069 64.3204 51.7543 63.8983 52.0397C62.1104 53.2434 59.888 53.5846 57.7338 53.7025C54.0215 53.9073 48.3164 53.6653 46.423 57.7417C45.8953 58.8709 45.8084 60.0621 46.8451 60.8439C47.7328 61.5078 48.8627 61.8118 49.9428 61.9979C51.8239 62.3268 53.6924 62.7363 55.5859 62.9907C57.5165 63.245 59.7638 63.4994 61.6634 62.91C63.2589 62.4198 64.8729 61.9979 66.0649 60.7322C67.083 59.6464 67.6789 58.1636 67.6913 56.6745C67.6913 56.4635 67.6417 56.1967 67.4368 56.1471C67.3313 56.1223 67.2257 56.1657 67.1264 56.2091C66.5863 56.4325 66.04 56.6683 65.4937 56.8978Z" fill="#263238"/>
<path d="M57.5597 80.9403C57.5597 80.9403 52.9472 80.0282 51.3393 79.1782C50.2592 78.6074 49.3714 77.6209 49.1045 76.9818C49.1045 76.9818 49.4087 78.3468 50.3771 79.5753C51.5566 81.0768 57.5659 82.1625 57.5659 82.1625L57.5597 80.9403Z" fill="#F28F8F"/>
<path d="M56.6288 69.1269C56.6288 69.7225 56.1694 70.2003 55.5982 70.2003C55.0271 70.2003 54.5615 69.7225 54.5615 69.1269C54.5615 68.5313 55.0209 68.0535 55.592 68.0535C56.1632 68.0535 56.6288 68.5313 56.6288 69.1269Z" fill="#263238"/>
<path d="M58.1189 76.2869C58.1189 76.8453 57.6843 77.2982 57.1504 77.2982C56.6103 77.2982 56.1758 76.8453 56.1758 76.2869C56.1758 75.7285 56.6103 75.2756 57.1442 75.2756C57.6843 75.2818 58.1189 75.7285 58.1189 76.2869Z" fill="#B16668"/>
<path d="M55.3251 65.8633L53.1896 67.2097C52.8295 66.5955 53.0095 65.7951 53.5993 65.4228C54.1953 65.0506 54.965 65.2491 55.3251 65.8633Z" fill="#263238"/>
<path d="M62.8678 64.548L65.115 65.5531C64.8605 66.186 64.1466 66.4776 63.5258 66.2046C62.905 65.9254 62.6132 65.1808 62.8678 64.548Z" fill="#263238"/>
<path d="M64.0535 68.8105C64.0535 69.3813 63.6066 69.8466 63.0603 69.8466C62.5078 69.8466 62.0608 69.3813 62.0608 68.8105C62.0608 68.2397 62.5078 67.7743 63.0541 67.7743C63.6004 67.7743 64.0473 68.2397 64.0535 68.8105Z" fill="#263238"/>
<path d="M58.9756 67.0608L59.3419 73.9602L62.6134 73.0916L58.9756 67.0608Z" fill="#F28F8F"/>
<path d="M0.993224 95.4774C2.0672 96.0544 6.44379 99.1319 8.82143 99.3986C9.82711 99.5103 10.1003 99.349 10.063 99.0884C10.0071 98.7286 9.37393 98.1888 9.21873 97.8972C8.95179 97.3946 7.35015 95.2851 7.97094 94.1869C8.59173 93.0887 9.13182 94.1434 10.6093 95.5891C12.093 97.0347 13.6015 97.5311 14.899 99.2187C16.1965 100.906 16.631 103.568 18.7727 105.491L27.3335 111.324C27.3335 111.324 31.319 92.8405 33.0696 90.6627C34.9072 88.3733 42.9278 93.3617 41.2517 100.64C39.5755 107.917 35.7701 120.537 33.1255 123.019C31.4183 124.626 27.8053 123.106 23.3045 119.104C19.7474 115.946 14.8742 111.181 12.8442 109.512C10.8142 107.849 6.49345 106.925 4.52554 105.764C2.40863 104.517 1.94925 103.798 1.13601 102.153C0.37243 100.609 0.713867 98.1329 0.260687 97.196C-0.204908 96.2654 -0.0807489 94.9004 0.993224 95.4774Z" fill="#FFA8A7"/>
<path d="M39.6997 85.8108C42.4374 87.5294 42.5802 90.0236 42.7168 92.8715C42.8409 95.496 42.3132 99.1194 41.1524 102.699C39.9915 106.292 38.1415 112.85 38.1415 112.85C38.1415 112.85 30.9776 113.018 27.29 109.835C27.29 109.835 28.9724 102.768 30.1581 97.4504C31.35 92.1332 32.7903 86.4126 39.6997 85.8108Z" fill="#CCCCCC"/>
<path d="M27.3271 111.324C29.2826 112.409 30.4249 114.742 30.785 115.667C30.785 115.667 30.7229 112.391 27.5258 110.374L27.3271 111.324Z" fill="#F28F8F"/>
<path d="M101.649 245.421L149.562 273.069V283.256L101.649 255.609V245.421Z" fill="#7FDAE1"/>
<path opacity="0.35" d="M101.649 245.421L149.562 273.069V283.256L101.649 255.609V245.421Z" fill="black"/>
<path d="M197.474 245.421L149.562 273.069V283.256L197.474 255.609V245.421Z" fill="#7FDAE1"/>
<path opacity="0.2" d="M197.474 245.421L149.562 273.069V283.256L197.474 255.609V245.421Z" fill="black"/>
<path d="M197.474 245.421L149.562 217.78L101.649 245.421L149.562 273.069L197.474 245.421Z" fill="#7FDAE1"/>
<path opacity="0.15" d="M197.474 245.421L149.562 217.78L101.649 245.421L149.562 273.069L197.474 245.421Z" fill="black"/>
<path opacity="0.1" d="M149.562 273.069V270.159L106.69 245.421H101.649L149.562 273.069Z" fill="black"/>
<path opacity="0.1" d="M149.562 217.78V220.69L192.427 245.421H197.474L149.562 217.78Z" fill="black"/>
<path d="M197.474 245.421H192.427L149.562 270.159V273.069L197.474 245.421Z" fill="#7FDAE1"/>
<path d="M149.562 217.78V220.69L106.69 245.421H101.649L149.562 217.78Z" fill="#7FDAE1"/>
<path d="M149.729 233.447L170.315 245.328C171.854 246.216 171.854 247.661 170.315 248.549L154.962 257.409C153.423 258.296 150.927 258.296 149.382 257.409L128.796 245.527C127.256 244.64 127.256 243.194 128.796 242.307L144.148 233.447C145.694 232.553 148.19 232.553 149.729 233.447Z" fill="#37474F"/>
<path d="M154.962 257.402L169.812 248.834L149.729 237.244C148.19 236.357 145.688 236.357 144.148 237.244L129.299 245.812L149.381 257.402C150.927 258.296 153.423 258.296 154.962 257.402Z" fill="#455A64"/>
<path d="M137.301 245.44L146.309 240.241C146.607 240.067 147.085 240.067 147.383 240.241L148.494 240.874C148.792 241.041 148.792 241.32 148.494 241.494L139.486 246.693C139.188 246.867 138.71 246.867 138.412 246.693L137.301 246.054C137.003 245.893 137.003 245.614 137.301 245.44Z" fill="#263238"/>
<path d="M150.754 253.214L159.761 248.015C160.059 247.841 160.537 247.841 160.835 248.015L161.946 248.648C162.244 248.815 162.244 249.095 161.946 249.268L152.939 254.468C152.641 254.641 152.163 254.641 151.865 254.468L150.754 253.829C150.456 253.667 150.456 253.388 150.754 253.214Z" fill="#263238"/>
<path d="M128.74 265.543C128.74 263.812 127.523 261.708 126.027 260.846C125.276 260.412 124.599 260.374 124.109 260.66C124.01 260.716 123.035 261.305 122.936 261.361C122.445 261.646 122.141 262.248 122.141 263.11C122.141 264.842 123.358 266.945 124.854 267.807C125.605 268.242 126.282 268.279 126.772 267.993C126.872 267.938 127.84 267.354 127.939 267.292C128.436 267.013 128.74 266.411 128.74 265.543Z" fill="#7FDAE1"/>
<path opacity="0.1" d="M124.854 261.547C126.35 262.409 127.567 264.513 127.567 266.244C127.567 267.975 126.35 268.676 124.854 267.807C123.358 266.945 122.141 264.835 122.141 263.11C122.141 261.386 123.358 260.685 124.854 261.547Z" fill="black"/>
<path d="M93.3548 281.364C90.226 281.364 87.1035 280.663 84.6637 279.255L52.8791 260.914C50.3214 259.437 48.9185 257.402 48.9185 255.187C48.9185 252.966 50.3277 250.931 52.8791 249.461L89.7046 228.21C93.7397 225.883 97.1479 219.983 97.1479 215.323V98.8464C97.1479 98.1639 97.7066 97.6055 98.3895 97.6055C99.0723 97.6055 99.6311 98.1639 99.6311 98.8464V215.323C99.6311 220.945 95.8132 227.546 90.9462 230.357L54.1269 251.614C52.3701 252.625 51.4078 253.897 51.4078 255.194C51.4078 256.49 52.3763 257.762 54.1269 258.774L85.9115 277.114C90.015 279.484 96.6947 279.484 100.798 277.114L124.233 263.601C124.829 263.259 125.586 263.464 125.928 264.054C126.269 264.649 126.064 265.406 125.475 265.747L102.04 279.261C99.6062 280.663 96.4774 281.364 93.3548 281.364Z" fill="#102541"/>
<path d="M37.5827 54.3044C37.5516 54.1306 37.5827 53.9631 37.6882 53.8142C37.7937 53.6591 37.9303 53.566 38.1041 53.535L41.1274 52.9518C41.3012 52.9208 41.4688 52.9518 41.6178 53.0572C41.773 53.1627 41.8661 53.2992 41.8972 53.4792L42.3628 55.8989C42.3938 56.0726 42.3628 56.2402 42.2572 56.3891C42.1579 56.5442 42.0151 56.6372 41.8413 56.6683L38.818 57.2515C38.6442 57.2825 38.4766 57.2515 38.3276 57.146C38.1724 57.0405 38.0793 56.904 38.0483 56.7303L37.5827 54.3044ZM35.0622 41.2377C35.0312 41.064 35.0622 40.8964 35.1678 40.7475C35.2733 40.5924 35.4099 40.4993 35.5837 40.4683L38.607 39.8851C38.7808 39.8541 38.9484 39.8851 39.0974 39.9906C39.2526 40.0961 39.3457 40.2326 39.3767 40.4063L41.3695 50.7368C41.4005 50.9105 41.3695 51.078 41.264 51.2269C41.1584 51.382 41.0219 51.4751 40.848 51.5061L37.8248 52.0893C37.6509 52.1204 37.4833 52.0893 37.3343 51.9839C37.1791 51.8784 37.086 51.7419 37.055 51.5682L35.0622 41.2377Z" fill="#7FDAE1"/>
<path d="M32.5418 64.4301C32.4238 64.2998 32.368 64.1385 32.3742 63.9523C32.3866 63.7662 32.4549 63.6173 32.5914 63.4994L34.8822 61.4457C35.0187 61.3278 35.1739 61.272 35.3602 61.2844C35.5464 61.2968 35.6954 61.3651 35.8134 61.5016L37.4585 63.3381C37.5764 63.4746 37.6323 63.6297 37.6199 63.8158C37.6074 64.002 37.5392 64.1509 37.4026 64.2688L35.1119 66.3225C34.9815 66.4403 34.8201 66.4962 34.6338 66.4838C34.4476 66.4776 34.2986 66.4031 34.1807 66.2666L32.5418 64.4301ZM23.6582 54.5215C23.5403 54.3912 23.4844 54.2299 23.4968 54.0438C23.5092 53.8576 23.5775 53.7087 23.7141 53.5908L26.0048 51.5371C26.1414 51.4193 26.2966 51.3634 26.4828 51.3758C26.6691 51.382 26.8181 51.4565 26.936 51.593L33.9572 59.4231C34.0751 59.5534 34.131 59.7147 34.1186 59.9008C34.1062 60.0869 34.0379 60.2358 33.9013 60.3537L31.6106 62.4074C31.4802 62.5253 31.3188 62.5811 31.1326 62.5687C30.9463 62.5563 30.7973 62.4881 30.6794 62.3516L23.6582 54.5215Z" fill="#7FDAE1"/>
<g opacity="0.6">
<path d="M32.5418 64.4301C32.4238 64.2998 32.368 64.1385 32.3742 63.9523C32.3866 63.7662 32.4549 63.6173 32.5914 63.4994L34.8822 61.4457C35.0187 61.3278 35.1739 61.272 35.3602 61.2844C35.5464 61.2968 35.6954 61.3651 35.8134 61.5016L37.4585 63.3381C37.5764 63.4746 37.6323 63.6297 37.6199 63.8158C37.6074 64.002 37.5392 64.1509 37.4026 64.2688L35.1119 66.3225C34.9815 66.4403 34.8201 66.4962 34.6338 66.4838C34.4476 66.4776 34.2986 66.4031 34.1807 66.2666L32.5418 64.4301ZM23.6582 54.5215C23.5403 54.3912 23.4844 54.2299 23.4968 54.0438C23.5092 53.8576 23.5775 53.7087 23.7141 53.5908L26.0048 51.5371C26.1414 51.4193 26.2966 51.3634 26.4828 51.3758C26.6691 51.382 26.8181 51.4565 26.936 51.593L33.9572 59.4231C34.0751 59.5534 34.131 59.7147 34.1186 59.9008C34.1062 60.0869 34.0379 60.2358 33.9013 60.3537L31.6106 62.4074C31.4802 62.5253 31.3188 62.5811 31.1326 62.5687C30.9463 62.5563 30.7973 62.4881 30.6794 62.3516L23.6582 54.5215Z" fill="white"/>
</g>
</g>
<path d="M124.937 0C126.143 0.0244314 126.989 0.490848 127.722 1.22823C129.539 3.05614 131.364 4.87294 133.188 6.69641C150.021 23.5274 166.852 40.3561 183.685 57.1871C183.881 57.3826 184.078 57.578 184.269 57.7779C185.746 59.3393 185.755 61.3804 184.292 62.8175C182.832 64.2478 180.765 64.2145 179.259 62.6775C174.972 58.3043 170.759 53.8578 166.421 49.5357C157.981 41.1269 149.461 32.798 141.001 24.4091C134.843 18.3035 128.719 12.1602 122.594 6.019C121.494 4.91737 121.23 3.51145 121.83 2.20326C122.462 0.81956 123.562 0.0932833 124.937 0Z" fill="#246C7A"/>
<path d="M137.768 6.00123C139.989 5.47929 141.981 4.93069 144.004 4.54645C158.239 1.84568 171.219 4.85962 182.955 13.2773C184.683 14.5167 186.288 15.9426 187.843 17.3973C189.429 18.881 189.351 21.5129 187.814 22.7145C186.548 23.7051 184.812 23.6518 183.526 22.5968C181.558 20.9799 179.699 19.2053 177.598 17.7882C167.419 10.9253 156.276 8.94188 144.304 11.5405C143.698 11.6715 143.343 11.5538 142.929 11.134C141.279 9.45938 139.6 7.81804 137.768 6.00123Z" fill="#246C7A"/>
<path d="M152.773 21.3041C155.631 21.2375 158.257 21.5485 160.838 22.1881C166.73 23.6473 171.807 26.5635 176.114 30.8301C177.569 32.2716 177.6 34.3705 176.218 35.8141C174.857 37.2378 172.713 37.2889 171.241 35.8586C168.44 33.1378 165.326 30.9456 161.515 29.8707C161.339 29.8218 161.166 29.6952 161.033 29.5642C158.328 26.8678 155.627 24.1626 152.773 21.3041Z" fill="#246C7A"/>
<path d="M158.756 47.5656C157.042 46.6217 155.254 46.0464 153.301 46.0642C150.423 46.0886 147.995 47.1991 145.852 49.0781C143.795 50.8838 140.753 49.9132 140.082 47.2636C139.762 45.9998 140.1 44.856 141.052 44.0053C143.591 41.7398 146.443 40.0274 149.87 39.4877C150.221 39.4322 150.732 39.5321 150.969 39.7653C153.526 42.264 156.044 44.8026 158.57 47.3302C158.643 47.4035 158.696 47.4879 158.756 47.5656Z" fill="#246C7A"/>
<path d="M137.11 25.955C138.872 27.7229 140.586 29.4464 142.314 31.1833C142.31 31.1899 142.303 31.261 142.268 31.2766C139.607 32.5248 137.324 34.2905 135.202 36.3072C133.792 37.6465 131.78 37.551 130.416 36.2028C129.05 34.8524 128.97 32.849 130.225 31.4098C131.767 29.6441 135.045 27.0433 137.11 25.955Z" fill="#246C7A"/>
<path d="M124.257 13.0397C126.134 14.6655 127.866 16.1647 129.674 17.7327C129.128 18.1214 128.597 18.4501 128.12 18.8432C126.842 19.9004 125.561 20.9532 124.33 22.0637C122.651 23.5807 120.177 23.4719 118.707 21.7617C117.716 20.6067 117.741 18.6389 118.947 17.5306C120.635 15.9781 122.443 14.5633 124.257 13.0397Z" fill="#246C7A"/>
<path d="M156.982 56.7385C156.991 58.7085 155.434 60.2966 153.477 60.3143C151.531 60.3321 149.937 58.7441 149.928 56.7829C149.919 54.8128 151.478 53.227 153.433 53.2159C155.394 53.2048 156.973 54.7729 156.982 56.7385Z" fill="#246C7A"/>
<defs>
<clipPath id="clip0_2956_988">
<rect width="285" height="271" fill="white" transform="translate(0 37)"/>
</clipPath>
</defs>
</svg>
