<svg width="18" height="18" viewBox="0 0 18 18" fill="none" xmlns="http://www.w3.org/2000/svg">
<path d="M5.639 13.3675H6.839V11.5675H8.639V10.3675H6.839V8.5675H5.639V10.3675H3.839V11.5675H5.639V13.3675ZM9.7675 12.4675H13.3675V11.2675H9.7675V12.4675ZM9.7675 10.6675H13.3675V9.4675H9.7675V10.6675ZM12.8425 8.089L13.6925 7.239L12.4175 5.964L13.6925 4.689L12.8425 3.839L11.5675 5.114L10.2925 3.839L9.4425 4.689L10.7175 5.939L9.4425 7.214L10.2925 8.064L11.5675 6.814L12.8425 8.089ZM3.839 6.52825H7.439V5.32825H3.839V6.52825ZM2.075 17.2065C1.50033 17.2065 1.01083 17.0043 0.6065 16.6C0.202167 16.1957 0 15.7062 0 15.1315V2.075C0 1.50033 0.202167 1.01083 0.6065 0.6065C1.01083 0.202167 1.50033 0 2.075 0H15.1315C15.7062 0 16.1957 0.202167 16.6 0.6065C17.0043 1.01083 17.2065 1.50033 17.2065 2.075V15.1315C17.2065 15.7062 17.0043 16.1957 16.6 16.6C16.1957 17.0043 15.7062 17.2065 15.1315 17.2065H2.075ZM2.075 15.1315H15.1315V2.075H2.075V15.1315Z" fill="#28A4B2"/>
</svg>
