<svg width="28" height="26" viewBox="0 0 28 26" fill="none" xmlns="http://www.w3.org/2000/svg">
<path d="M3.2116 25.1207C2.4507 25.1207 1.80231 24.8527 1.26643 24.3168C0.730574 23.781 0.462646 23.1326 0.462646 22.3717V8.04507C0.462646 7.28416 0.730594 6.63577 1.26649 6.0999C1.80235 5.56402 2.45073 5.29608 3.21164 5.29608H6.80117L9.1377 2.87942H16.4672V5.6284H10.3033L7.97531 8.04507H3.2116V22.3717H22.3715V11.5256H25.1205V22.3717C25.1205 23.1326 24.8526 23.781 24.3167 24.3168C23.7808 24.8527 23.1325 25.1207 22.3715 25.1207H3.2116ZM22.5883 7.90058V5.40444H20.0921V2.87942H22.5883V0.383301H25.1205V2.87942H27.6094V5.40444H25.1205V7.90058H22.5883ZM12.7899 20.7037C14.3159 20.7037 15.6135 20.1696 16.6829 19.1014C17.7522 18.0332 18.2869 16.7361 18.2869 15.2101C18.2869 13.6841 17.7528 12.3864 16.6846 11.3171C15.6164 10.2478 14.3193 9.71308 12.7933 9.71308C11.2673 9.71308 9.96962 10.2472 8.90029 11.3154C7.83095 12.3836 7.29629 13.6807 7.29629 15.2067C7.29629 16.7327 7.83038 18.0303 8.89857 19.0997C9.96677 20.169 11.2639 20.7037 12.7899 20.7037ZM12.7916 18.0992C11.9795 18.0992 11.2946 17.8204 10.7371 17.2629C10.1795 16.7053 9.90076 16.0205 9.90076 15.2084C9.90076 14.3962 10.1795 13.7114 10.7371 13.1539C11.2946 12.5963 11.9795 12.3176 12.7916 12.3176C13.6037 12.3176 14.2885 12.5963 14.8461 13.1539C15.4036 13.7114 15.6824 14.3962 15.6824 15.2084C15.6824 16.0205 15.4036 16.7053 14.8461 17.2629C14.2885 17.8204 13.6037 18.0992 12.7916 18.0992Z" fill="#28A4B2"/>
</svg>
