<svg width="32" height="32" viewBox="0 0 32 32" fill="none" xmlns="http://www.w3.org/2000/svg">
<path fill-rule="evenodd" clip-rule="evenodd" d="M5.46181 1.62846C6.16891 0.89013 7.06999 0.364541 8.04616 0.126775C8.51548 0.00789179 8.8659 0.00163478 15.9807 0.00163478C23.2144 -0.00462223 23.4396 0.00163478 23.9465 0.120518C24.8914 0.34577 25.6673 0.771247 26.3932 1.45952C27.1441 2.17907 27.6634 3.07383 27.9012 4.07495C28.0201 4.56925 28.0264 4.81328 28.0264 9.1619V13.7295L23.2582 18.4911C18.8816 22.8568 18.3132 23.4412 17.6225 23.7052C17.4945 23.754 17.3623 23.7919 17.2009 23.8408C16.5313 24.0473 15.4863 24.0473 14.823 23.8408C14.6558 23.7892 14.5214 23.7509 14.3914 23.7011C13.7191 23.4432 13.1661 22.8744 8.80332 18.5224L3.99756 13.7295V9.1619C3.99756 4.81328 4.00382 4.56925 4.12271 4.07495C4.34798 3.13014 4.77349 2.35427 5.46181 1.62846ZM21.9566 7.81664C22.7951 7.34737 22.8514 6.12725 22.063 5.58289L21.8127 5.40769L16.0808 5.39518C10.6716 5.37872 10.2019 5.36707 9.92371 5.59214C9.8846 5.62379 9.84927 5.66012 9.80452 5.70177C9.16626 6.30245 9.30392 7.38491 10.0673 7.81664L10.3489 7.97307H16.012H21.675L21.9566 7.81664ZM19.341 13.1226C20.1482 12.6471 20.1482 11.3706 19.341 10.8951L19.0469 10.7262L14.7605 10.7136C10.7607 10.698 10.2253 10.6866 9.92006 10.9461C9.85999 10.9972 9.80884 11.0588 9.74195 11.1329C9.27264 11.6584 9.28515 12.403 9.77949 12.9161C9.94845 13.0913 10.1299 13.2102 10.2989 13.254C10.4866 13.304 11.8069 13.3228 14.8043 13.3103L19.0469 13.2915L19.341 13.1226ZM0.186848 15.2625C0.274453 14.9684 0.412118 14.5805 0.493466 14.399C0.568556 14.2238 0.649904 14.0737 0.674934 14.0737C0.693706 14.0737 3.20297 16.5702 6.25037 19.6174C9.29778 22.6645 11.9635 25.28 12.17 25.4364C12.7081 25.8181 13.6405 26.2498 14.3664 26.4438C14.9108 26.5877 15.0985 26.6065 16.0121 26.6065C16.9319 26.6065 17.1134 26.5877 17.6703 26.4438C18.3962 26.2498 19.3098 25.8243 19.8542 25.4301C20.0669 25.28 22.7264 22.6645 25.7738 19.6174C28.8212 16.5702 31.3305 14.0737 31.3492 14.0737C31.4118 14.0737 31.6996 14.7995 31.8561 15.3563L32 15.8569V21.1754C32 26.4375 32 26.5001 31.8623 27.0006C31.2241 29.3971 29.4219 31.1991 27.0253 31.8561L26.4934 32H16.0121H5.53076L4.99887 31.8561C2.49587 31.1741 0.612359 29.1969 0.111758 26.7316C-0.00713452 26.1747 -0.00713452 25.8744 0.00538049 20.9689L0.0304105 15.7943L0.186848 15.2625Z" fill="white"/>
</svg>
