<svg width="12" height="12" viewBox="0 0 12 12" fill="none" xmlns="http://www.w3.org/2000/svg">
<path d="M4.35984 6.21033H4.94007V5.04988H5.5203C5.68469 5.04988 5.8225 4.99427 5.93371 4.88306C6.04492 4.77185 6.10052 4.63405 6.10052 4.46965V3.88942C6.10052 3.72502 6.04492 3.58722 5.93371 3.47601C5.8225 3.36479 5.68469 3.30919 5.5203 3.30919H4.35984V6.21033ZM4.94007 4.46965V3.88942H5.5203V4.46965H4.94007ZM6.64957 6.21033H7.81002C7.97442 6.21033 8.11223 6.15473 8.22344 6.04352C8.33465 5.93231 8.39025 5.7945 8.39025 5.6301V3.88942C8.39025 3.72502 8.33465 3.58722 8.22344 3.47601C8.11223 3.36479 7.97442 3.30919 7.81002 3.30919H6.64957V6.21033ZM7.2298 5.6301V3.88942H7.81002V5.6301H7.2298ZM8.94974 6.21033H9.52997V5.04988H10.1102V4.46965H9.52997V3.88942H10.1102V3.30919H8.94974V6.21033ZM3.8005 9.51952C3.43515 9.51952 3.12381 9.39086 2.86648 9.13353C2.60914 8.87619 2.48048 8.56485 2.48048 8.1995V1.32002C2.48048 0.95467 2.60914 0.643328 2.86648 0.385997C3.12381 0.128666 3.43515 0 3.8005 0H10.68C11.0453 0 11.3567 0.128666 11.614 0.385997C11.8713 0.643328 12 0.95467 12 1.32002V8.1995C12 8.56485 11.8713 8.87619 11.614 9.13353C11.3567 9.39086 11.0453 9.51952 10.68 9.51952H3.8005ZM3.8005 8.1995H10.68V1.32002H3.8005V8.1995ZM1.32002 12C0.95467 12 0.643329 11.8713 0.385997 11.614C0.128666 11.3567 0 11.0453 0 10.68V2.48048H1.32002V10.68H9.51952V12H1.32002Z" fill="#5F6368"/>
</svg>
