<svg width="10" height="12" viewBox="0 0 10 12" fill="none" xmlns="http://www.w3.org/2000/svg">
<path d="M2.56194 9.53887H7.43806V8.31H2.56194V9.53887ZM2.56194 7.18668H7.43806V5.95781H2.56194V7.18668ZM1.38665 12C1.00285 12 0.675799 11.8696 0.40548 11.6088C0.13516 11.348 0 11.0325 0 10.6622V1.33781C0 0.967535 0.13516 0.651998 0.40548 0.391199C0.675799 0.130399 1.00285 0 1.38665 0H6.27008L10 3.59856V10.6622C10 11.0325 9.86484 11.348 9.59452 11.6088C9.3242 11.8696 8.99715 12 8.61335 12H1.38665ZM5.56578 4.27805V1.33781H1.38665V10.6622H8.61335V4.27805H5.56578Z" fill="#646464"/>
</svg>
