<svg width="20" height="20" viewBox="0 0 20 20" fill="none" xmlns="http://www.w3.org/2000/svg">
<path d="M11.0437 12.276H12.8544V8.95632H16.1741V7.14559H12.8544V3.82592H11.0437V7.14559H7.72402V8.95632H11.0437V12.276ZM5.98546 16.1019C5.40737 16.1019 4.91495 15.8985 4.50821 15.4918C4.10147 15.085 3.8981 14.5926 3.8981 14.0145V2.08737C3.8981 1.50928 4.10147 1.01686 4.50821 0.610115C4.91495 0.203372 5.40737 0 5.98546 0H17.9126C18.4907 0 18.9831 0.203372 19.3899 0.610115C19.7966 1.01686 20 1.50928 20 2.08737V14.0145C20 14.5926 19.7966 15.085 19.3899 15.4918C18.9831 15.8985 18.4907 16.1019 17.9126 16.1019H5.98546ZM5.98546 14.0145H17.9126V2.08737H5.98546V14.0145ZM2.08737 20C1.50928 20 1.01686 19.7966 0.610115 19.3899C0.203371 18.9831 0 18.4907 0 17.9126V3.8981H2.08737V17.9126H16.1019V20H2.08737Z" fill="#28A4B2"/>
</svg>
