<svg width="33" height="32" viewBox="0 0 33 32" fill="none" xmlns="http://www.w3.org/2000/svg">
<path fill-rule="evenodd" clip-rule="evenodd" d="M27.5981 0.528619C27.7822 0.398087 28.125 0.221868 28.3599 0.137022C28.7282 0.00648962 28.8806 -0.0130902 29.4837 0.00648962C30.3091 0.0325961 30.7154 0.169655 31.2805 0.606939C32.0614 1.20739 32.4424 1.971 32.4868 3.03484C32.5186 3.84414 32.3789 4.39891 31.9979 4.9863C31.6551 5.50843 22.1188 15.2853 21.6109 15.6312C20.3665 16.4862 19.5792 16.6951 17.6046 16.6951H16.2459V15.2984C16.2459 13.2686 16.4491 12.4593 17.2808 11.1801C17.5919 10.7036 27.1028 0.87453 27.5981 0.528619ZM0.1637 17.7263C0.881144 15.1091 2.82396 13.1968 5.32548 12.6486C5.81436 12.5376 6.2461 12.5246 9.85871 12.5246L13.8459 12.5181L13.8078 12.6617C13.6364 13.2882 13.5793 14.1758 13.5793 16.1926C13.5793 18.5226 13.592 18.6139 13.9475 19.0055C14.3284 19.4232 14.4046 19.4363 16.7538 19.4363C18.9823 19.4363 19.6363 19.3775 20.4997 19.123C21.6299 18.7771 22.5568 18.2941 23.452 17.5697C23.7314 17.3478 24.8742 16.2187 25.9917 15.07C27.1091 13.9148 28.0678 12.9749 28.1186 12.9749C28.1757 12.9749 28.4488 13.0924 28.7281 13.2295C30.4678 14.1106 31.7884 15.7487 32.328 17.7198C32.4614 18.2093 32.4677 18.3594 32.4868 21.9817C32.5121 25.9825 32.4931 26.2827 32.201 27.1964C31.4836 29.4677 29.7313 31.1777 27.452 31.8238L26.817 32H16.2459H5.67468L5.05882 31.8238C2.47476 31.0928 0.614483 29.0565 0.0875116 26.3871C-0.00137523 25.9303 -0.00772429 25.3625 0.00497382 22.0469C0.024021 18.3659 0.0303701 18.2093 0.1637 17.7263ZM9.41428 22.8954C9.41428 22.073 9.03333 21.453 8.29684 21.0679C7.96669 20.9048 7.83971 20.8721 7.45877 20.8787C7.21115 20.8787 6.88735 20.9244 6.74132 20.9831C6.37943 21.1136 5.86515 21.5966 5.65564 22.0078C5.50961 22.2949 5.48421 22.419 5.48421 22.8954C5.48421 23.3718 5.50961 23.4958 5.65564 23.7765C6.32864 25.0883 7.93495 25.3429 8.88096 24.2921C9.2746 23.8548 9.41428 23.4828 9.41428 22.8954ZM15.9983 21.9882C15.7887 21.577 15.3443 21.1658 14.938 21.0092C13.9793 20.6372 12.9126 21.0549 12.4237 21.9882C12.3031 22.2297 12.2777 22.3733 12.2777 22.8954C12.2777 23.4567 12.2968 23.5481 12.4618 23.8613C13.2618 25.3429 15.2745 25.2907 15.9983 23.77C16.1824 23.3849 16.1951 23.3196 16.1697 22.8171C16.1506 22.4255 16.0998 22.197 15.9983 21.9882Z" fill="white"/>
</svg>
