<svg width="26" height="27" viewBox="0 0 26 27" fill="none" xmlns="http://www.w3.org/2000/svg">
<path d="M7.66156 12.1159C8.04237 12.1159 8.36173 11.9817 8.61966 11.7135C8.87761 11.4453 9.00659 11.1129 9.00659 10.7164C9.00659 10.3199 8.87779 9.98732 8.6202 9.71873C8.3626 9.45013 8.04341 9.31584 7.66263 9.31584C7.28182 9.31584 6.96244 9.44996 6.70449 9.71821C6.44654 9.98643 6.31757 10.3188 6.31757 10.7153C6.31757 11.1118 6.44637 11.4444 6.70396 11.713C6.96157 11.9816 7.28077 12.1159 7.66156 12.1159ZM12.7996 12.1159C13.1804 12.1159 13.4998 11.9817 13.7577 11.7135C14.0157 11.4453 14.1447 11.1129 14.1447 10.7164C14.1447 10.3199 14.0159 9.98732 13.7582 9.71873C13.5006 9.45013 13.1815 9.31584 12.8007 9.31584C12.4199 9.31584 12.1005 9.44996 11.8425 9.71821C11.5846 9.98643 11.4556 10.3188 11.4556 10.7153C11.4556 11.1118 11.5844 11.4444 11.842 11.713C12.0996 11.9816 12.4188 12.1159 12.7996 12.1159ZM17.9376 12.1159C18.3185 12.1159 18.6378 11.9817 18.8958 11.7135C19.1537 11.4453 19.2827 11.1129 19.2827 10.7164C19.2827 10.3199 19.1539 9.98732 18.8963 9.71873C18.6387 9.45013 18.3195 9.31584 17.9387 9.31584C17.5579 9.31584 17.2385 9.44996 16.9806 9.71821C16.7227 9.98643 16.5937 10.3188 16.5937 10.7153C16.5937 11.1118 16.7225 11.4444 16.9801 11.713C17.2377 11.9816 17.5569 12.1159 17.9376 12.1159ZM0 26.6568V2.97184C0 2.14925 0.278188 1.44829 0.834564 0.868977C1.3909 0.289659 2.06406 0 2.85405 0H22.7462C23.5362 0 24.2094 0.289659 24.7657 0.868977C25.3221 1.44829 25.6003 2.14925 25.6003 2.97184V18.4599C25.6003 19.2825 25.3221 19.9834 24.7657 20.5627C24.2094 21.142 23.5362 21.4317 22.7462 21.4317H5.01805L0 26.6568ZM3.95171 18.4599H22.7462V2.97184H2.85405V19.578L3.95171 18.4599Z" fill="#646464"/>
</svg>
