<svg width="6" height="24" viewBox="0 0 6 24" fill="none" xmlns="http://www.w3.org/2000/svg">
<path d="M2.99631 24C2.16701 24 1.4603 23.7021 0.876183 23.1064C0.292062 22.5106 0 21.7945 0 20.9579C0 20.1187 0.294574 19.4031 0.883723 18.8111C1.47287 18.2192 2.1811 17.9232 3.00841 17.9232C3.84089 17.9232 4.5476 18.2216 5.12854 18.8185C5.70951 19.4153 6 20.1328 6 20.9709C6 21.809 5.70671 22.5233 5.12013 23.114C4.53355 23.7047 3.82561 24 2.99631 24ZM2.99631 15.0336C2.16701 15.0336 1.4603 14.7357 0.876183 14.14C0.292062 13.5442 0 12.8281 0 11.9915C0 11.1497 0.294574 10.4351 0.883723 9.84762C1.47287 9.26015 2.1811 8.96641 3.00841 8.96641C3.84089 8.96641 4.5476 9.26298 5.12854 9.85613C5.70951 10.4493 6 11.1651 6 12.0037C6 12.8423 5.70671 13.5569 5.12013 14.1476C4.53355 14.7383 3.82561 15.0336 2.99631 15.0336ZM2.99631 6.07678C2.16701 6.07678 1.4603 5.7777 0.876183 5.17955C0.292062 4.58139 0 3.86233 0 3.02235C0 2.18238 0.294574 1.46866 0.883723 0.881177C1.47287 0.293725 2.1811 0 3.00841 0C3.84089 0 4.5476 0.296576 5.12854 0.889726C5.70951 1.48288 6 2.19943 6 3.03937C6 3.87935 5.70671 4.59557 5.12013 5.18805C4.53355 5.78053 3.82561 6.07678 2.99631 6.07678Z" fill="#333333"/>
</svg>
