<svg width="32" height="32" viewBox="0 0 32 32" fill="none" xmlns="http://www.w3.org/2000/svg">
<path d="M14.413 0.019022C11.4354 0.338076 8.70803 1.4141 6.27468 3.23458C5.48025 3.8289 3.84759 5.4617 3.25333 6.25621C1.62693 8.42703 0.626063 10.748 0.175674 13.388C0.00677837 14.3639 -0.0557756 16.6161 0.0568215 17.6358C0.34457 20.3133 1.22033 22.7344 2.68409 24.9052L3.00937 25.3869L2.00225 28.3648C1.45177 30.0038 1.00764 31.3489 1.0139 31.3551C1.02015 31.3676 2.37757 30.9422 4.029 30.4105C5.68042 29.8787 7.08789 29.4408 7.15044 29.4408C7.21299 29.4408 7.41317 29.5284 7.58832 29.641C9.59004 30.8922 11.9045 31.6804 14.3629 31.9432C15.3825 32.0558 17.6345 31.9932 18.6103 31.8243C21.2501 31.3739 23.5771 30.3729 25.7415 28.7464C26.5359 28.1521 28.1686 26.5193 28.7628 25.7248C30.4143 23.5164 31.4214 21.1454 31.878 18.399C32.0407 17.4106 32.0407 14.5704 31.878 13.5819C31.4214 10.8356 30.4143 8.46457 28.7628 6.25621C28.1686 5.4617 26.5359 3.8289 25.7415 3.23458C23.5771 1.61429 21.2626 0.613338 18.6103 0.156652C18.0036 0.0503006 17.5344 0.019022 16.2583 0.00650978C15.3825 -0.00600052 14.5506 0.000253677 14.413 0.019022ZM10.9725 7.44484C11.1351 7.51366 11.229 7.62627 11.3728 7.91404C11.7356 8.62722 13.068 11.9053 13.068 12.0805C13.068 12.3745 12.8241 12.7624 12.2173 13.4568C11.8983 13.8134 11.6043 14.17 11.5667 14.2326C11.3979 14.5516 11.5605 14.977 12.186 15.8654C13.556 17.811 15.1198 19.1748 17.0903 20.1194C18.6541 20.8764 18.848 20.8263 19.8551 19.4313C20.5808 18.424 20.8685 18.1863 21.2876 18.2802C21.713 18.374 25.3599 20.1507 25.5163 20.3446C25.7415 20.6136 25.5413 22.09 25.1785 22.797C24.6593 23.8229 23.0517 24.7676 21.5879 24.9052C20.0678 25.0554 16.446 23.7917 14.3004 22.3653C12.1297 20.9202 9.89656 18.5554 8.15756 15.8716C7.2818 14.5203 6.75009 12.9563 6.75009 11.7364C6.75009 10.4227 7.1567 9.30912 8.00117 8.31442C8.38901 7.84522 8.75182 7.58873 9.20847 7.4511C9.57128 7.33224 10.6972 7.33224 10.9725 7.44484Z" fill="white"/>
</svg>
