<svg width="184" height="175" viewBox="0 0 184 175" fill="none" xmlns="http://www.w3.org/2000/svg">
<circle cx="91.5" cy="87.5" r="87.5" fill="#FFE6D5"/>
<g clip-path="url(#clip0_646_510)">
<path d="M15.7143 121.606C13.0606 121.264 10.3893 119.894 9.17784 117.5C7.1587 113.51 9.80741 108.581 8.68371 104.249C7.94127 101.391 5.5785 98.5796 6.70972 95.8507C7.67289 93.5221 10.8157 92.6058 11.5632 90.1992C12.3407 87.7044 10.1535 85.3884 9.05242 83.0195C7.33177 79.3114 8.29744 74.9689 9.29321 71.0015C10.2514 67.1851 11.2496 63.2731 13.4995 60.0508C15.3983 57.3295 18.0871 55.2501 20.0486 52.5767C21.1497 51.0738 22.015 49.3947 23.2667 48.0151C24.5183 46.6356 26.3016 45.5607 28.1477 45.7822C30.5606 46.0717 32.2136 48.4607 32.7955 50.8271C33.3774 53.1934 33.2169 55.6907 33.721 58.0772C35.1457 64.8339 41.6948 70.0499 41.6722 76.9551C41.6596 80.6557 39.6932 84.1473 39.7358 87.8454C39.7659 90.6548 40.9473 93.3031 41.7198 96.0043C42.4924 98.7054 42.8034 101.809 41.2633 104.156C39.5828 106.718 35.8756 108.163 35.7477 111.227C35.6649 113.211 37.2376 114.917 37.4132 116.894C37.664 119.695 34.92 122.037 32.1383 122.387C29.0758 122.772 26.718 120.937 23.8385 120.828C21.1171 120.733 18.5562 121.974 15.7143 121.606Z" fill="url(#paint0_linear_646_510)"/>
<path d="M32.3041 83.8453L31.1252 83.0649L24.9173 92.5278V67.5603H23.5076V111.272L15.549 103.043L14.5356 104.03L23.5076 113.306V137H24.9173V95.1031L32.3041 83.8453Z" fill="#18516B"/>
<path d="M47.8798 132.937C47.0596 131.457 45.4969 130.558 43.9518 129.876C42.0857 129.053 40.1268 128.456 38.1277 128.053C32.6773 129.37 28.792 132.552 28.792 134.737V135.812C28.792 136.469 29.3212 137 29.9759 137H48.3538C48.6297 135.628 48.557 134.156 47.8798 132.937Z" fill="#EF6762"/>
<path d="M43.1694 127.442C41.3936 127.442 39.7005 127.676 38.1304 128.053C40.1294 128.456 42.0884 129.05 43.9545 129.876C45.4996 130.558 47.0622 131.457 47.8824 132.937C48.5572 134.156 48.6324 135.626 48.3565 137H56.3603C57.015 137 57.5442 136.469 57.5442 135.812V134.737C57.5442 131.925 51.108 127.442 43.1694 127.442Z" fill="#D34242"/>
<path d="M89.5319 81.4487H20.1262L0 116.974H69.4032L89.5319 81.4487Z" fill="#54969E"/>
<path d="M89.5319 81.4487L69.4032 116.974H0L0.970692 118.9H70.3739L90.5026 83.3745L89.5319 81.4487Z" fill="#295559"/>
<path d="M33.8186 98.2019L37.3904 91.8984L40.9621 85.5923H23.0131L15.8696 98.2019H33.8186Z" fill="#C8E8E2"/>
<path d="M14.726 100.221L7.58252 112.831H25.5315L29.1033 106.527L32.675 100.221H14.726Z" fill="#C8E8E2"/>
<path d="M43.2748 85.5923L36.1313 98.2019H55.174L58.7457 91.8984L62.3174 85.5923H43.2748Z" fill="#C8E8E2"/>
<path d="M64.6298 85.5923L57.4863 98.2019H75.774L82.9174 85.5923H64.6298Z" fill="#C8E8E2"/>
<path d="M86.3764 83.5759H65.7737H63.4611H44.4185H42.1059H21.8442L13.0679 99.0655L4.12598 114.85H24.3876H26.7002H45.7428H48.0554H68.6582L78.0892 98.202L86.3764 83.5759ZM46.8841 112.831H27.8415L34.9849 100.221H54.0276L46.8841 112.831ZM25.5314 112.831H7.58234L14.7258 100.221H32.6748L29.1031 106.525L25.5314 112.831ZM40.9621 85.5924L37.3904 91.8959L33.8186 98.1995H15.8696L23.0131 85.5898H40.9621V85.5924ZM58.7456 91.8984L55.1738 98.202H36.1312L43.2747 85.5924H62.3173L58.7456 91.8984ZM57.4864 98.202L64.6299 85.5924H82.9201L75.7766 98.202H57.4864ZM52.7709 106.527L56.3427 100.223H74.6328L67.4893 112.833H49.1992L52.7709 106.527Z" fill="#EEFFFF"/>
<path d="M74.6328 100.221H56.3427L52.771 106.527L49.1992 112.831H67.4894L74.6328 100.221Z" fill="#C8E8E2"/>
<path d="M34.9872 100.221L27.8438 112.831H46.8839L54.0299 100.221H34.9872Z" fill="#C8E8E2"/>
<g opacity="0.63">
<path d="M39.1187 85.5924L42.4898 83.5759H42.106H33.0036L29.6325 85.5924L19.6171 91.5913L16.1156 93.6858L13.0681 99.0655L11.2471 102.283L18.0595 98.202L39.1187 85.5924Z" fill="white"/>
<path d="M72.9523 100.221L51.8931 112.831L48.522 114.85H58.0082H68.6582L74.1262 105.198L78.0892 98.2021L78.9947 96.6035L72.9523 100.221Z" fill="white"/>
<path d="M21.8117 100.221L25.1828 98.202L38.2507 90.3779L41.7522 88.2835L46.242 85.5924L49.6131 83.5759H46.4703L39.8635 87.5308L22.0399 98.202L18.6688 100.221L12.7017 103.793L9.20271 105.89L7.5874 108.737L11.0889 106.643L21.8117 100.221Z" fill="white"/>
<path d="M37.7843 98.202L58.8436 85.5924L62.2146 83.5759H60.2181L56.847 85.5924L36.3095 97.8898L32.4167 100.221L11.3574 112.831L7.98633 114.85H9.98038L13.3515 112.831L31.7821 101.797L37.7843 98.202Z" fill="white"/>
<path d="M52.3974 98.202L56.5987 95.6896L60.0977 93.5926L73.4566 85.5924L76.8277 83.5759H73.6849L70.3138 85.5924L61.7105 90.7455L58.2115 92.8399L49.2545 98.202L45.8835 100.221L29.3942 110.094L25.8927 112.191L24.8242 112.831L21.4531 114.85H24.3878H24.596L27.967 112.831L49.0263 100.221L52.3974 98.202Z" fill="white"/>
</g>
<path d="M47.9651 118.9H38.3711V119.998C41.6143 121.108 44.8123 122.351 47.9651 123.696V118.9Z" fill="#D34242"/>
<path d="M38.3711 119.995V129.206C38.3711 130.505 40.5182 131.558 43.1694 131.558C45.8181 131.558 47.9677 130.505 47.9677 129.206V123.693C44.8123 122.349 41.6143 121.108 38.3711 119.995Z" fill="#F28786"/>
<path d="M81.744 137H41.2333C39.8738 135.887 38.5344 134.385 37.8447 132.766C37.1549 131.147 37.1649 129.136 38.2385 127.746C39.0286 126.724 40.2626 126.16 41.2208 125.294C42.5702 124.073 43.2951 122.329 44.2884 120.803C45.2816 119.278 46.8016 117.843 48.6176 117.901C50.0548 117.946 51.3215 118.92 52.7512 119.061C54.8757 119.27 56.6816 117.649 58.6155 116.738C61.8762 115.202 65.7213 115.683 69.1877 116.672C74.6131 118.223 79.9456 121.181 82.7724 126.082C84.7388 129.493 84.0742 133.828 81.744 137Z" fill="url(#paint1_linear_646_510)"/>
<path opacity="0.4" d="M126.639 51.5796L76.6168 56.131C73.2231 56.4407 71.0485 59.4213 71.7583 62.7921L83.6073 119.607L92.2833 108.218L138.217 104.04L126.639 51.5796Z" fill="url(#paint2_linear_646_510)"/>
<path opacity="0.5" d="M168.118 38.3886L97.8192 44.7828C91.6489 45.3442 87.1015 50.8195 87.6608 57.0123L93.0335 116.508L104.378 104.765L173.543 98.4738C179.713 97.9124 184.261 92.4371 183.702 86.2443L180.3 48.584C179.741 42.3938 174.288 37.8297 168.118 38.3886Z" fill="url(#paint3_linear_646_510)"/>
<path d="M168.118 38.3886L97.8192 44.7828C91.6489 45.3442 87.1015 50.8195 87.6608 57.0123L93.0335 116.508L104.378 104.765L173.543 98.4738C179.713 97.9124 184.261 92.4371 183.702 86.2443L180.3 48.584C179.741 42.3938 174.288 37.8297 168.118 38.3886Z" stroke="url(#paint4_linear_646_510)" stroke-width="2" stroke-miterlimit="10"/>
<path d="M168.06 91.2439L102.936 97.1673C101.574 97.2907 100.37 96.2837 100.247 94.9168L96.5224 53.6667C96.3995 52.2998 97.4028 51.0914 98.7648 50.9681L163.889 45.0446C165.251 44.9213 166.455 45.9283 166.578 47.2952L170.302 88.5478C170.425 89.9122 169.422 91.1205 168.06 91.2439Z" fill="url(#paint5_linear_646_510)"/>
<path d="M171.855 90.8989L106.731 96.8224C105.369 96.9457 104.165 95.9388 104.042 94.5718L100.317 53.3218C100.194 51.9548 101.198 50.7465 102.56 50.6231L167.684 44.6997C169.046 44.5763 170.25 45.5833 170.373 46.9502L174.097 88.2028C174.22 89.5672 173.217 90.7756 171.855 90.8989Z" fill="url(#paint6_linear_646_510)"/>
<path d="M136.817 66.4524L105.911 95.5006C106.937 96.2735 108.236 96.6863 109.615 96.5604L168.97 91.1606C170.348 91.0348 171.554 90.3928 172.424 89.4488L136.817 66.4524Z" fill="url(#paint7_linear_646_510)"/>
<path d="M137.595 75.0696L168.501 46.0214C167.476 45.2485 166.176 44.8357 164.797 44.9616L105.444 50.3589C104.067 50.4847 102.861 51.1241 101.99 52.0707L137.595 75.0696Z" fill="url(#paint8_linear_646_510)"/>
<path d="M101.99 52.0705L137.595 75.0695L168.501 46.0212" stroke="#B25938" stroke-width="1.4422" stroke-miterlimit="10"/>
<path d="M174.06 54.7923C179.445 49.3873 179.445 40.6239 174.06 35.2189C168.674 29.8138 159.943 29.8138 154.557 35.2189C149.172 40.6239 149.172 49.3873 154.557 54.7923C159.943 60.1974 168.674 60.1974 174.06 54.7923Z" fill="#B4003D"/>
<path d="M175.866 54.629C181.252 49.2239 181.252 40.4606 175.866 35.0556C170.481 29.6505 161.749 29.6505 156.364 35.0556C150.979 40.4606 150.979 49.2239 156.364 54.629C161.749 60.0341 170.481 60.0341 175.866 54.629Z" fill="#DB365A"/>
<path d="M169.904 51.4135L167.257 51.6552L166.232 40.2967L163.751 40.5887L163.57 38.5522L168.655 37.5603L169.904 51.4135Z" fill="#B4003D"/>
<path d="M168.675 51.5267L166.053 51.7658L165.038 40.5156L162.582 40.8051L162.399 38.7887L167.435 37.8069L168.675 51.5267Z" fill="white"/>
</g>
<defs>
<linearGradient id="paint0_linear_646_510" x1="24.3804" y1="56.8152" x2="24.3804" y2="130.56" gradientUnits="userSpaceOnUse">
<stop stop-color="#CBB335"/>
<stop offset="1" stop-color="#6EA559"/>
</linearGradient>
<linearGradient id="paint1_linear_646_510" x1="60.6509" y1="122.564" x2="60.6509" y2="143.237" gradientUnits="userSpaceOnUse">
<stop stop-color="#CBB335"/>
<stop offset="1" stop-color="#6EA559"/>
</linearGradient>
<linearGradient id="paint2_linear_646_510" x1="77.5111" y1="88.1" x2="146.806" y2="81.8398" gradientUnits="userSpaceOnUse">
<stop offset="0.00192308" stop-color="#C9CBC0"/>
<stop offset="0.0841" stop-color="#C6BAB1"/>
<stop offset="0.2298" stop-color="#B8999C"/>
<stop offset="0.3896" stop-color="#A66A7F"/>
<stop offset="0.5092" stop-color="#8C5672"/>
<stop offset="0.6577" stop-color="#5D4B65"/>
<stop offset="0.8595" stop-color="#313E4C"/>
<stop offset="1" stop-color="#1D3038"/>
</linearGradient>
<linearGradient id="paint3_linear_646_510" x1="89.8405" y1="81.1503" x2="182.486" y2="72.7804" gradientUnits="userSpaceOnUse">
<stop stop-color="#E4DEE1"/>
<stop offset="0.8065" stop-color="#D0ECFD"/>
</linearGradient>
<linearGradient id="paint4_linear_646_510" x1="93.4791" y1="44.4606" x2="170.121" y2="108.128" gradientUnits="userSpaceOnUse">
<stop stop-color="#5795D3"/>
<stop offset="1" stop-color="#88DCCC"/>
</linearGradient>
<linearGradient id="paint5_linear_646_510" x1="135.83" y1="53.4126" x2="128.686" y2="105.288" gradientUnits="userSpaceOnUse">
<stop stop-color="#DE8A5A"/>
<stop offset="0.8671" stop-color="#B95930"/>
<stop offset="1" stop-color="#B35129"/>
</linearGradient>
<linearGradient id="paint6_linear_646_510" x1="140.64" y1="110.161" x2="136.115" y2="58.601" gradientUnits="userSpaceOnUse">
<stop stop-color="#EEDC60"/>
<stop offset="0.3104" stop-color="#EBD15F"/>
<stop offset="0.8533" stop-color="#E4B45B"/>
<stop offset="1" stop-color="#E2AB5A"/>
</linearGradient>
<linearGradient id="paint7_linear_646_510" x1="134.128" y1="142.867" x2="140.544" y2="79.1779" gradientUnits="userSpaceOnUse">
<stop stop-color="#EEDC60"/>
<stop offset="0.3104" stop-color="#EBD15F"/>
<stop offset="0.8533" stop-color="#E4B45B"/>
<stop offset="1" stop-color="#E2AB5A"/>
</linearGradient>
<linearGradient id="paint8_linear_646_510" x1="134.874" y1="42.3752" x2="137.572" y2="90.5485" gradientUnits="userSpaceOnUse">
<stop stop-color="#EEDC60"/>
<stop offset="0.3104" stop-color="#EBD15F"/>
<stop offset="0.8533" stop-color="#E4B45B"/>
<stop offset="1" stop-color="#E2AB5A"/>
</linearGradient>
<clipPath id="clip0_646_510">
<rect width="184" height="106" fill="white" transform="translate(0 31)"/>
</clipPath>
</defs>
</svg>
