<svg width="16" height="15" viewBox="0 0 16 15" fill="none" xmlns="http://www.w3.org/2000/svg">
<path d="M14.4062 0.467554C14.3249 0.492359 14.0249 0.76521 13.2249 1.55586L12.1562 2.61006L11.8499 2.45193C11.2374 2.12947 10.5031 1.85972 9.85932 1.71399C8.76557 1.47214 7.57182 1.45044 6.44995 1.65508C4.15307 2.07056 2.14682 3.47202 0.668698 5.68894C0.384323 6.11062 0.209323 6.46719 0.103073 6.83306C-0.00630161 7.21133 -0.0344266 7.94307 0.0468234 8.33374C0.184323 9.00967 0.509323 9.58948 1.27807 10.5476C1.57182 10.9134 2.19682 11.5646 2.52807 11.8498L2.69682 11.9955L1.72495 12.9629C1.07807 13.6078 0.737448 13.9675 0.703073 14.045C0.640573 14.2 0.643698 14.4605 0.715573 14.6155C0.818698 14.8357 1.07495 15 1.32807 15C1.59995 15 1.61557 14.9876 2.7562 13.859L3.84057 12.7862L4.02182 12.8885C4.95307 13.4032 6.04682 13.7443 7.11557 13.8559C7.58432 13.9024 8.8437 13.8776 9.2812 13.8094C9.72182 13.7412 10.3124 13.5954 10.7499 13.4435C11.5249 13.1769 12.5062 12.6312 13.2187 12.0668C13.5812 11.7816 14.3718 10.9909 14.6749 10.6127C15.4781 9.61428 15.8281 8.98796 15.9562 8.31204C16.0312 7.90586 16.0031 7.20823 15.8968 6.83306C15.6656 6.03311 14.9874 5.06262 13.9281 4.01152L13.3093 3.39451L14.2906 2.41472C15.2093 1.50005 15.2749 1.42564 15.3093 1.28301C15.4437 0.740406 14.9593 0.300122 14.4062 0.467554ZM8.71557 3.82239C9.18745 3.91231 9.73745 4.12625 10.1156 4.37119L10.2812 4.47351L9.81245 4.9386L9.34682 5.40059L9.13432 5.30137C8.12807 4.84558 6.96245 5.02232 6.1812 5.75405C5.79682 6.11372 5.53745 6.5447 5.40307 7.047C5.34995 7.23923 5.33432 7.38496 5.33432 7.69812C5.33432 8.15701 5.3937 8.43916 5.57495 8.81743L5.6812 9.03757L5.21557 9.49956L4.74682 9.96155L4.68745 9.88403C4.5687 9.729 4.31245 9.20501 4.22182 8.92905C3.90307 7.96787 3.9812 6.85166 4.42495 5.96799C5.03432 4.76187 6.19682 3.94641 7.5562 3.77588C7.8312 3.74177 8.39682 3.76348 8.71557 3.82239ZM11.4187 5.70134C11.6093 6.0145 11.7624 6.38657 11.8656 6.77725C11.9718 7.18032 11.9999 7.93066 11.9249 8.35234C11.7062 9.60808 10.9093 10.6747 9.76557 11.239C9.23745 11.5025 8.77182 11.6173 8.1562 11.6421C7.3062 11.6731 6.57807 11.4777 5.84682 11.0188L5.70932 10.932L6.17495 10.47L6.6437 10.005L6.8812 10.1166C7.37495 10.3398 8.07495 10.4204 8.5687 10.3057C9.61245 10.067 10.3999 9.28252 10.6281 8.25623C10.6531 8.15081 10.6687 7.90276 10.6656 7.68262C10.6624 7.23613 10.5999 6.95708 10.4249 6.59431L10.3156 6.36487L10.7749 5.90598C11.0281 5.65483 11.2406 5.4502 11.2499 5.4502C11.2624 5.4502 11.3374 5.56182 11.4187 5.70134Z" fill="#646464"/>
</svg>
