<svg width="16" height="13" viewBox="0 0 16 13" fill="none" xmlns="http://www.w3.org/2000/svg">
<path d="M7.2875 0.641994C4.67187 0.840432 2.3625 2.2698 0.70625 4.71306C0.375 5.19986 0.215625 5.51302 0.0875 5.92539C0.003125 6.18894 0 6.23545 0 6.80906C0 7.38267 0.003125 7.42918 0.0875 7.69273C0.215625 8.10511 0.375 8.41826 0.70625 8.90506C2.04375 10.877 3.81562 12.1979 5.83437 12.7312C7.45625 13.1591 9.30937 13.0722 10.875 12.4986C11.6437 12.2165 12.6187 11.6522 13.2625 11.1189C13.8062 10.6662 14.4719 9.97166 14.9094 9.39805C15.4281 8.71592 15.7156 8.20432 15.875 7.69273C15.9594 7.42918 15.9625 7.38267 15.9625 6.80906C15.9625 6.23545 15.9594 6.18894 15.875 5.92539C15.7469 5.51302 15.5875 5.19986 15.2562 4.71306C13.9281 2.75349 12.1875 1.44815 10.1844 0.902444C9.27812 0.657497 8.27812 0.567581 7.2875 0.641994ZM8.65 2.91782C9.20937 3.01394 9.80937 3.25889 10.2594 3.57515C10.5469 3.77669 11.0031 4.22627 11.2125 4.51153C11.7 5.18745 11.95 5.9626 11.95 6.80906C11.95 7.86326 11.575 8.78103 10.8344 9.54068C10.4969 9.88484 10.1719 10.1267 9.77812 10.3251C9.19062 10.6166 8.6375 10.7468 7.98125 10.7468C7.32812 10.7468 6.74375 10.6104 6.1875 10.3282C5.8125 10.1391 5.55 9.94995 5.20937 9.62129C4.41875 8.85545 4.0125 7.90357 4.0125 6.80906C4.0125 6.16104 4.15 5.58123 4.43437 5.02932C4.625 4.65725 4.81562 4.3968 5.14687 4.05884C5.7375 3.45733 6.47187 3.06665 7.2875 2.92093C7.61562 2.86201 8.31562 2.85891 8.65 2.91782Z" fill="#646464"/>
<path d="M7.59062 4.17356C6.52187 4.34099 5.65937 5.10684 5.38437 6.14243C5.2875 6.4928 5.2875 7.12532 5.38437 7.47568C5.58125 8.21672 6.1 8.84924 6.77812 9.18411C7.20312 9.39185 7.475 9.45386 7.98125 9.45386C8.4875 9.45386 8.75937 9.39185 9.18437 9.18411C9.7 8.92986 10.1187 8.51438 10.375 8.00278C10.5844 7.5811 10.6469 7.31135 10.6469 6.80906C10.6469 6.30676 10.5844 6.03701 10.375 5.61533C9.94375 4.75337 9.07812 4.20147 8.09062 4.15806C7.91875 4.15186 7.69375 4.15806 7.59062 4.17356Z" fill="#646464"/>
</svg>
