<svg width="321" height="294" viewBox="0 0 321 294" fill="none" xmlns="http://www.w3.org/2000/svg">
<path d="M62.92 185.18C69.38 188.55 74.39 191.46 79.65 193.84C98.6 202.44 118.59 204.91 139.11 202.6C190.64 196.81 233.19 173.27 268.33 136.02C288.65 114.49 303.03 89.56 307.73 59.83C307.87 58.92 307.88 57.85 309.35 57.07C315.12 65.18 318.2 74.26 319.45 84.05C322.54 108.24 315.19 130.18 304.96 151.57C291.37 180.01 268.79 199.47 242.03 214.8C211.9 232.05 179.36 239.59 144.79 236.9C117.18 234.76 92.88 224.52 73.7 203.92C69.08 198.96 65.37 193.35 62.92 185.18Z" fill="#51C4CF"/>
<path d="M46.36 128C44.77 143.41 44.27 158.45 48.19 173.26C55.81 202.07 72.96 223.5 99.43 237.41C125.76 251.25 153.73 257.96 183.57 255.95C202.39 254.69 220.71 250.59 238.9 245.87C241.47 245.2 244.04 244.51 246.65 244.06C247.83 243.86 249.44 242.63 250.26 244.2C251.03 245.68 249.32 246.5 248.42 247.33C242.05 253.16 235.71 259.02 228.53 263.91C198.36 284.44 165.21 295.47 128.52 293.64C94.36 291.94 65.32 279.46 46.05 249.81C27.98 221.99 24.68 191.82 33.66 160.18C36.24 151.09 39.39 142.17 43.45 133.6C44.36 131.69 45.39 129.86 46.36 128Z" fill="#51C4CF"/>
<path d="M147.75 185.93C155.27 180.82 162.84 175.77 170.3 170.57C198.28 151.07 221.38 127.11 236.92 96.55C246.21 78.29 249.5 58.99 245.39 38.66C242.85 26.1 235.84 16.63 225.73 9.14999C222.14 6.49 218.51 3.88999 215.07 0.079995C218.06 0.079995 221.08 -0.140005 224.05 0.119995C243.39 1.76999 260.93 7.84999 274.09 22.74C287.87 38.33 290.9 56.81 286.91 76.77C282.93 96.69 273.28 113.78 259.69 128.55C232.65 157.93 199.83 177.68 160.36 185.74C156.36 186.56 152.25 186.79 148.19 187.3C148.05 186.85 147.9 186.39 147.75 185.93Z" fill="#51C4CF"/>
<path d="M75.67 80.45C70.08 87.6 64.22 94.55 58.95 101.93C41.85 125.87 29.75 151.94 25.26 181.28C20.68 211.2 25.83 239.29 40.16 265.86C42.83 270.82 45.16 275.97 47.54 281.07C48.06 282.18 49.25 283.57 47.99 284.69C46.85 285.7 45.49 284.7 44.3 284.18C31.66 278.64 22.3 269.4 15.13 257.91C-0.780002 232.4 -2 204.99 6.1 176.95C15.91 143.03 35.03 114.58 60.14 90C64.45 85.79 68.92 81.54 75.67 80.45Z" fill="#53C5CF"/>
<path d="M117.65 21.45C144.52 5.94999 171.96 -0.0800071 201.46 7.12999C230.47 14.23 244.13 34.85 239.18 64.2C236.28 81.34 228.39 96.41 216.83 110.03C217.24 103.94 217.65 97.85 218.07 91.76C218.99 78.13 219.7 64.43 213.05 51.87C202.42 31.79 185.05 21.37 162.79 19C150.31 17.67 137.91 19.73 125.56 21.51C123.27 21.84 121.03 22.24 117.65 21.45Z" fill="#53C5CF"/>
<path d="M132.64 42.28C66.09 65.24 24.13 111.47 1.38 176.41C-0.679999 170.8 -0.439999 164.07 2.13 152.8C6.84 132.09 17.54 114.44 30.86 98.3C47.53 78.09 67.32 61.58 91.11 50.18C102.75 44.61 114.89 40.74 128.02 41.02C129.28 41.05 130.65 40.68 132.64 42.28Z" fill="#55C5D0"/>
<path d="M42.67 79.79C42.52 77.51 44.1 76.15 45.46 74.73C69.98 49.01 98.43 29.97 134.11 23.55C149.32 20.81 164.55 20.38 179.38 25.89C187.46 28.89 193.78 34.06 197.87 41.73C198.62 43.13 199.8 44.48 199.28 46.34C197.9 47.07 197.14 45.87 196.27 45.32C173.07 30.72 148.08 28.29 121.93 34.7C92.11 42.01 66.96 57.7 44.59 78.24C43.99 78.79 43.28 79.24 42.63 79.73L42.67 79.79Z" fill="#55C5D0"/>
<path d="M42.62 79.74L42.37 80L42.67 79.79L42.62 79.74Z" fill="#55C5D0"/>
<path d="M63.19 184.74L63.27 185.07L63 185.02L63.19 184.74Z" fill="#51C4CF"/>
</svg>
