<svg width="16" height="15" viewBox="0 0 16 15" fill="none" xmlns="http://www.w3.org/2000/svg">
<path d="M2.75247 0.0379124C1.87434 0.196042 1.07434 0.704538 0.589966 1.41147L0.464966 1.59441L3.64309 4.7415L6.82122 7.8917L7.08684 8.01882C7.68997 8.30407 8.29622 8.30407 8.89934 8.01882L9.16497 7.8917L12.3431 4.7415L15.5212 1.59441L15.3931 1.40527C15.215 1.14482 14.7743 0.71694 14.4962 0.534006C14.2212 0.354172 13.8275 0.180539 13.4618 0.0813208L13.1962 0.00690651L8.08684 0.000704765C3.98059 -0.00239563 2.93372 0.00380611 2.75247 0.0379124Z" fill="white"/>
<path d="M0.00245191 7.42351L0.0118269 11.8511L0.0805769 12.0992C0.418077 13.2619 1.31183 14.1425 2.48683 14.4649L2.78995 14.5487H7.99308H13.1962L13.4993 14.4649C14.2556 14.2572 14.8837 13.8355 15.3556 13.2154C15.5525 12.955 15.8056 12.4434 15.9056 12.0992L15.9743 11.8511L15.9837 7.42351C15.99 4.98955 15.9837 2.99897 15.9712 2.99897C15.9587 2.99897 14.6337 4.30122 13.0243 5.89492C10.54 8.35679 10.0618 8.81567 9.83058 8.9645C9.18058 9.38618 8.47433 9.56601 7.70558 9.504C7.14933 9.4606 6.66183 9.29316 6.17433 8.9769C5.91495 8.80947 5.5587 8.46841 2.96183 5.89492C1.35245 4.30122 0.0274519 2.99897 0.0149519 2.99897C0.00245191 2.99897 -0.00379809 4.98955 0.00245191 7.42351Z" fill="white"/>
</svg>
