<svg width="14" height="16" viewBox="0 0 14 16" fill="none" xmlns="http://www.w3.org/2000/svg">
<path d="M5.9813 0.159106C4.29692 0.400952 2.8313 1.60708 2.26567 3.21939C2.07505 3.76509 2.02192 4.10615 2.0063 4.94951L1.98755 5.69675L1.77817 5.79597C1.49692 5.9324 1.21255 6.14944 0.931297 6.44089C0.515672 6.87498 0.265672 7.32146 0.0969218 7.93228L0.0156718 8.23303L0.00317175 10.512C-0.00932825 13.2963 4.67539e-05 13.4203 0.321922 14.0962C0.518797 14.5055 0.684422 14.735 1.02505 15.0698C1.49067 15.5225 2.0313 15.8109 2.6688 15.9411C2.93442 15.9969 3.15942 16 6.67192 16C9.86567 16 10.4313 15.9938 10.6438 15.9535C11.7094 15.752 12.575 15.0853 13.0469 14.0962C13.3657 13.4234 13.3782 13.287 13.3657 10.4965L13.3532 8.23303L13.2719 7.93228C13.1032 7.32146 12.8563 6.87498 12.4438 6.4502C12.1594 6.15254 11.8782 5.9355 11.5907 5.79287L11.3813 5.69055L11.3625 4.94641C11.35 4.3573 11.3344 4.13406 11.2813 3.86741C11.1032 2.98994 10.6969 2.20549 10.0969 1.57607C9.35005 0.797828 8.3938 0.301734 7.35942 0.159106C7.07817 0.118799 6.2563 0.118799 5.9813 0.159106ZM7.4813 1.56677C7.82192 1.65049 8.25942 1.84583 8.56567 2.05046C8.82192 2.221 9.25942 2.66128 9.42817 2.91553C9.83755 3.53564 9.99692 4.09685 9.99692 4.93401V5.396H6.68442H3.37192V4.93401C3.37192 4.09685 3.5313 3.53564 3.94067 2.91553C4.10942 2.65818 4.54692 2.221 4.8063 2.04736C5.22192 1.77141 5.7813 1.55437 6.25317 1.48926C6.57817 1.44275 7.13442 1.47996 7.4813 1.56677ZM7.01567 9.50427C7.10005 9.55388 7.18442 9.6407 7.23755 9.73062L7.32505 9.87634L7.33442 10.6422C7.34692 11.4979 7.3313 11.6003 7.16567 11.7832C7.02505 11.9351 6.88442 12.0002 6.68442 12.0002C6.48442 12.0002 6.3438 11.9351 6.20317 11.7832C6.03755 11.6003 6.02192 11.4979 6.03442 10.6422L6.0438 9.87634L6.12817 9.73062C6.3188 9.41436 6.6938 9.31824 7.01567 9.50427Z" fill="white"/>
</svg>
