<svg width="70" height="58" viewBox="0 0 70 58" fill="none" xmlns="http://www.w3.org/2000/svg">
<path d="M0.138879 57.0279V22.7386C0.138879 20.5871 0.896468 18.7537 2.41165 17.2385C3.92688 15.7233 5.76026 14.9657 7.9118 14.9657H17.2221V8.74514C17.2221 6.59361 17.9797 4.76023 19.495 3.24499C21.0102 1.72976 22.8436 0.972137 24.9951 0.972137H45.0048C47.1564 0.972137 48.9898 1.72976 50.505 3.24499C52.0202 4.76023 52.7778 6.59361 52.7778 8.74514V14.9657H62.0882C64.2397 14.9657 66.0731 15.7233 67.5883 17.2385C69.1036 18.7537 69.8612 20.5871 69.8612 22.7386V57.0279H0.138879ZM22.1095 39.8219V43.2386H14.3366V39.8219H7.9118V49.2549H62.0882V39.8219H55.6634V43.2386H47.8905V39.8219H22.1095ZM7.9118 22.7386V32.1715H14.3366V28.7548H22.1095V32.1715H47.8905V28.7548H55.6634V32.1715H62.0882V22.7386H7.9118ZM24.9951 14.9657H45.0048V8.74514H24.9951V14.9657Z" fill="white"/>
</svg>
