<svg width="66" height="66" viewBox="0 0 66 66" fill="none" xmlns="http://www.w3.org/2000/svg">
<path d="M6.24433 65.6413V53.2344C4.53127 52.651 3.12209 51.5948 2.01677 50.0657C0.911351 48.5365 0.358643 46.7892 0.358643 44.8236V15.1164H6.24433V3.48457C6.24433 2.59892 6.54497 1.85654 7.14624 1.2574C7.74746 0.658272 8.49247 0.358709 9.38128 0.358709C10.2701 0.358709 11.0172 0.658272 11.6227 1.2574C12.2283 1.85654 12.5311 2.59892 12.5311 3.48457V15.1164H18.4167V44.8236C18.4167 46.7892 17.8611 48.5365 16.7499 50.0657C15.6387 51.5948 14.2324 52.651 12.5311 53.2344V65.6413H6.24433ZM29.8566 65.6413V53.2344C28.1436 52.651 26.7315 51.5948 25.6203 50.0657C24.5092 48.5365 23.9536 46.7892 23.9536 44.8236V15.1164H29.8566V3.48457C29.8566 2.59892 30.1584 1.85654 30.762 1.2574C31.3657 0.658272 32.1136 0.358709 33.0058 0.358709C33.8981 0.358709 34.6441 0.658272 35.2438 1.2574C35.8435 1.85654 36.1434 2.59892 36.1434 3.48457V15.1164H42.0116V44.8236C42.0116 46.7892 41.4589 48.5365 40.3535 50.0657C39.2481 51.5948 37.8448 52.651 36.1434 53.2344V65.6413H29.8566ZM53.4515 65.6413V53.2344C51.7385 52.651 50.3293 51.5948 49.224 50.0657C48.1186 48.5365 47.5659 46.7892 47.5659 44.8236V15.1164H53.4515V3.48457C53.4515 2.59892 53.7533 1.85654 54.3569 1.2574C54.9605 0.658272 55.7085 0.358709 56.6007 0.358709C57.493 0.358709 58.239 0.658272 58.8387 1.2574C59.4384 1.85654 59.7383 2.59892 59.7383 3.48457V15.1164H65.6413V44.8236C65.6413 46.7892 65.0828 48.5365 63.9658 50.0657C62.8488 51.5948 61.4396 52.651 59.7383 53.2344V65.6413H53.4515ZM6.64537 21.3856V32.8082H12.1299V21.3856H6.64537ZM30.2403 21.3856V32.8082H35.7249V21.3856H30.2403ZM53.8526 21.3856V32.8082H59.3546V21.3856H53.8526ZM9.38769 47.5833C10.1792 47.5833 10.8341 47.3212 11.3524 46.7971C11.8708 46.2729 12.1299 45.6151 12.1299 44.8236V39.0949H6.64537V44.8236C6.64537 45.6151 6.90819 46.2729 7.43382 46.7971C7.9594 47.3212 8.61069 47.5833 9.38769 47.5833ZM32.9826 47.5833C33.7741 47.5833 34.429 47.3212 34.9473 46.7971C35.4657 46.2729 35.7249 45.6151 35.7249 44.8236V39.0949H30.2403V44.8236C30.2403 45.6151 30.5031 46.2729 31.0287 46.7971C31.5543 47.3212 32.2056 47.5833 32.9826 47.5833ZM56.5861 47.5833C57.3718 47.5833 58.0297 47.3212 58.5597 46.7971C59.0897 46.2729 59.3546 45.6151 59.3546 44.8236V39.0949H53.8526V44.8236C53.8526 45.6151 54.1117 46.2729 54.6301 46.7971C55.1484 47.3212 55.8004 47.5833 56.5861 47.5833Z" fill="white"/>
</svg>
