<svg width="74" height="67" viewBox="0 0 74 67" fill="none" xmlns="http://www.w3.org/2000/svg">
<path d="M11.7571 54.4959H31.2083V40.5833H11.7571V54.4959ZM11.7571 37.0417H31.2083V12.5041H11.7571V37.0417ZM34.7917 54.4959H54.2215V29.9583H34.7917V54.4959ZM34.7917 26.4167H54.2215V12.5041H34.7917V26.4167ZM8.17378 66.0949C5.91729 66.0949 3.99448 65.3096 2.40533 63.7389C0.81618 62.1683 0.0216064 60.2678 0.0216064 58.0376V8.96245C0.0216064 6.7322 0.81618 4.83175 2.40533 3.26108C3.99448 1.69041 5.91729 0.905069 8.17378 0.905069H57.8048C60.0613 0.905069 61.9841 1.69041 63.5733 3.26108C65.1624 4.83175 65.9569 6.7322 65.9569 8.96245V15.7917H73.445V23.1926H65.9569V29.789H73.445V37.2111H65.9569V43.8074H73.445V51.2083H65.9569V58.0376C65.9569 60.2678 65.1624 62.1683 63.5733 63.7389C61.9841 65.3096 60.0613 66.0949 57.8048 66.0949H8.17378ZM8.17378 58.0376H57.8048V8.96245H8.17378V58.0376Z" fill="white"/>
</svg>
