<svg width="84" height="65" viewBox="0 0 84 65" fill="none" xmlns="http://www.w3.org/2000/svg">
<path fill-rule="evenodd" clip-rule="evenodd" d="M0.979492 6C0.979492 2.68629 3.66578 0 6.97949 0H77.0206C80.3343 0 83.0206 2.68629 83.0206 6V58.9936C83.0206 62.3073 80.3343 64.9936 77.0206 64.9936H6.9795C3.66579 64.9936 0.979492 62.3073 0.979492 58.9936V6ZM23.4165 22.4903H9.12145V8.19523H23.4165V22.4903ZM40.5705 22.4903H26.2755V8.19523H40.5705V22.4903ZM57.7246 22.4903H43.4296V8.19523H57.7246V22.4903ZM74.8787 22.4903H60.5836V8.19523H74.8787V22.4903ZM74.8787 39.6443H60.5836V25.3493H74.8787V39.6443ZM57.7246 39.6443H43.4296V25.3493H57.7246V39.6443ZM40.5705 39.6443H26.2755V25.3493H40.5705V39.6443ZM9.12145 25.3493H23.4165V39.6443H9.12145V25.3493ZM74.8787 56.7984H60.5836V42.5033H74.8787V56.7984ZM57.7246 56.7984H43.4296V42.5033H57.7246V56.7984ZM40.5705 56.7984H26.2755V42.5033H40.5705V56.7984ZM23.4165 56.7984H9.12145V42.5033H23.4165V56.7984Z" fill="white"/>
</svg>
