<svg width="60" height="54" viewBox="0 0 60 54" fill="none" xmlns="http://www.w3.org/2000/svg">
<path d="M59.674 53.6884L38.6133 53.7022L38.6075 44.8279L26.839 44.8356L26.8294 30.1379L21.4064 30.1414L21.4121 39.0157L0.35149 39.0295L0.335763 14.9353L21.3964 14.9215L21.4022 23.7958L26.8252 23.7923L26.8156 9.09463L38.5842 9.08695L38.5784 0.212642L59.6391 0.198895L59.6547 24.1712L38.5941 24.185L38.5884 15.4499L33.1654 15.4535L33.1804 38.4684L38.6034 38.4649L38.5977 29.7298L59.6583 29.7161L59.674 53.6884ZM15.045 32.6569L15.0376 21.2887L6.70289 21.2941L6.71031 32.6623L15.045 32.6569ZM53.3069 47.3296L53.2995 36.0832L44.9648 36.0887L44.9722 47.335L53.3069 47.3296ZM53.2876 17.8124L53.2803 6.56603L44.9456 6.57147L44.9529 17.8179L53.2876 17.8124Z" fill="white"/>
</svg>
