<svg width="29" height="29" viewBox="0 0 29 29" fill="none" xmlns="http://www.w3.org/2000/svg">
<path d="M3.29272 25.7073V8.12606H8.12606V3.29272H20.874V12.9594H25.7073V25.7073H15.7083V20.5417H13.2917V25.7073H3.29272ZM6.04168 22.9583H8.45835V20.5417H6.04168V22.9583ZM6.04168 18.125H8.45835V15.7083H6.04168V18.125ZM6.04168 13.2917H8.45835V10.875H6.04168V13.2917ZM10.875 18.125H13.2917V15.7083H10.875V18.125ZM10.875 13.2917H13.2917V10.875H10.875V13.2917ZM10.875 8.45835H13.2917V6.04168H10.875V8.45835ZM15.7083 18.125H18.125V15.7083H15.7083V18.125ZM15.7083 13.2917H18.125V10.875H15.7083V13.2917ZM15.7083 8.45835H18.125V6.04168H15.7083V8.45835ZM20.5417 22.9583H22.9583V20.5417H20.5417V22.9583ZM20.5417 18.125H22.9583V15.7083H20.5417V18.125Z" fill="#4D4D4D"/>
</svg>
