<svg width="28" height="29" viewBox="0 0 28 29" fill="none" xmlns="http://www.w3.org/2000/svg">
<path d="M10.92 29L10.0952 24.6873C9.5793 24.4831 9.0774 24.2449 8.58945 23.9727C8.10153 23.7005 7.6427 23.3819 7.21298 23.0169L3.08878 24.4293L0 19.0338L3.26267 16.1704C3.21959 15.8982 3.18582 15.6259 3.16136 15.3537C3.1369 15.0815 3.12466 14.7969 3.12466 14.5C3.12466 14.2031 3.1369 13.9186 3.16136 13.6463C3.18582 13.3741 3.21959 13.1018 3.26267 12.8296L0 9.96624L3.08878 4.58842L7.23056 5.99198C7.66026 5.62704 8.11469 5.30992 8.59385 5.04062C9.07302 4.77133 9.57345 4.53459 10.0952 4.3304L10.92 0H17.08L17.9048 4.3304C18.4207 4.53459 18.9226 4.77133 19.4106 5.04062C19.8985 5.30992 20.3573 5.62704 20.787 5.99198L24.9112 4.58842L28 9.96624L24.7286 12.8296C24.7716 13.1018 24.8054 13.3741 24.8299 13.6463C24.8543 13.9186 24.8666 14.2031 24.8666 14.5C24.8666 14.7969 24.8529 15.0815 24.8255 15.3537C24.7981 15.6259 24.7658 15.8982 24.7286 16.1704L28 19.0338L24.9025 24.4293L20.7694 23.0169C20.3397 23.3819 19.8853 23.7005 19.4061 23.9727C18.927 24.2449 18.4265 24.4831 17.9048 24.6873L17.08 29H10.92ZM13.436 25.9309H14.5552L15.2612 22.2878C16.1967 22.1152 17.0753 21.7933 17.8972 21.322C18.7192 20.8506 19.4237 20.2457 20.0108 19.5072L23.5248 20.6905L24.08 19.7404L21.3175 17.2806C21.4643 16.8497 21.5834 16.4033 21.6749 15.9413C21.7663 15.4794 21.8121 14.9989 21.8121 14.5C21.8121 14.0011 21.7663 13.5207 21.6749 13.0587C21.5834 12.5968 21.4643 12.1503 21.3175 11.7195L24.0975 9.25968L23.5248 8.3095L20.0196 9.49278C19.4325 8.76021 18.7279 8.15531 17.906 7.67808C17.0841 7.20085 16.2025 6.8789 15.2612 6.71223L14.564 3.06917H13.4272L12.7476 6.70339C11.8004 6.87006 10.9144 7.19201 10.0896 7.66924C9.26473 8.14645 8.55581 8.75429 7.96284 9.49278L4.46646 8.3095L3.90245 9.25968L6.6562 11.7106C6.50942 12.1415 6.39029 12.5894 6.29879 13.0543C6.20732 13.5192 6.16159 14.0011 6.16159 14.5C6.16159 14.9989 6.20732 15.4823 6.29879 15.9502C6.39029 16.418 6.50942 16.8674 6.6562 17.2983L3.90245 19.7404L4.46646 20.6905L7.96284 19.5161C8.55581 20.2428 9.26618 20.8447 10.094 21.322C10.9217 21.7992 11.8063 22.1241 12.7476 22.2966L13.436 25.9309ZM13.9737 19.8248C15.4415 19.8248 16.6891 19.3071 17.7166 18.2717C18.7441 17.2364 19.2578 15.9791 19.2578 14.5C19.2578 13.0209 18.7441 11.7637 17.7166 10.7283C16.6891 9.69294 15.4415 9.17526 13.9737 9.17526C12.5117 9.17526 11.2656 9.69294 10.2352 10.7283C9.20478 11.7637 8.68959 13.0209 8.68959 14.5C8.68959 15.9791 9.20478 17.2364 10.2352 18.2717C11.2656 19.3071 12.5117 19.8248 13.9737 19.8248Z" fill="#4D4D4D"/>
</svg>
