<svg width="29" height="29" viewBox="0 0 29 29" fill="none" xmlns="http://www.w3.org/2000/svg">
<path d="M0.984375 24.535V20.8916C0.984375 20.1621 1.1731 19.4916 1.55054 18.8801C1.928 18.2686 2.42947 17.8019 3.05494 17.48C4.31802 16.8509 5.60352 16.3779 6.91146 16.0609C8.21942 15.744 9.54781 15.5855 10.8966 15.5855C12.2547 15.5855 13.5878 15.7427 14.896 16.0573C16.2041 16.3719 17.4849 16.8437 18.7383 17.4728C19.3638 17.794 19.8653 18.2596 20.2428 18.8698C20.6202 19.48 20.8089 20.1538 20.8089 20.8912V24.535H0.984375ZM23.334 24.535V20.6716C23.334 19.7663 23.0897 18.8937 22.6011 18.054C22.1125 17.2143 21.4078 16.4663 20.4871 15.8101C21.4612 15.9405 22.3822 16.1481 23.2499 16.4329C24.1176 16.7177 24.9345 17.0643 25.7007 17.4728C26.445 17.8756 27.0168 18.3509 27.4163 18.8988C27.8158 19.4466 28.0156 20.0448 28.0156 20.6933V24.535H23.334ZM10.8966 14.3771C9.52894 14.3771 8.361 13.893 7.3928 12.9248C6.4246 11.9566 5.9405 10.7887 5.9405 9.42097C5.9405 8.05328 6.4246 6.88534 7.3928 5.91714C8.361 4.94894 9.52894 4.46484 10.8966 4.46484C12.2643 4.46484 13.4323 4.94894 14.4005 5.91714C15.3687 6.88534 15.8528 8.05328 15.8528 9.42097C15.8528 10.7887 15.3687 11.9566 14.4005 12.9248C13.4323 13.893 12.2643 14.3771 10.8966 14.3771ZM23.334 9.42091C23.334 10.7838 22.8488 11.9506 21.8784 12.9212C20.9081 13.8918 19.7416 14.3771 18.379 14.3771C18.1519 14.3771 17.8695 14.3508 17.532 14.298C17.1944 14.2452 16.9053 14.1838 16.6645 14.1138C17.2179 13.4597 17.6418 12.7307 17.9362 11.9267C18.2306 11.1228 18.3778 10.2879 18.3778 9.42206C18.3778 8.55625 18.2306 7.721 17.9362 6.91631C17.6418 6.11164 17.2179 5.38226 16.6645 4.72817C16.9512 4.62266 17.2356 4.5524 17.5175 4.51738C17.7995 4.48235 18.0851 4.46484 18.3744 4.46484C19.7383 4.46484 20.9058 4.95013 21.8771 5.9207C22.8483 6.89126 23.334 8.05799 23.334 9.42091ZM3.73333 21.7861H18.06V20.9278C18.06 20.7109 18.0046 20.5138 17.8938 20.3363C17.7831 20.1589 17.6371 20.0209 17.4558 19.9223C16.3972 19.3979 15.3213 19.0021 14.2281 18.735C13.1349 18.468 12.0244 18.3344 10.8966 18.3344C9.7785 18.3344 8.66803 18.468 7.5652 18.735C6.46237 19.0021 5.38647 19.3979 4.3375 19.9223C4.15625 20.0209 4.01024 20.1589 3.89948 20.3363C3.78872 20.5138 3.73333 20.7109 3.73333 20.9278V21.7861ZM10.8955 11.7365C11.532 11.7365 12.0772 11.5099 12.5312 11.0567C12.9852 10.6034 13.2122 10.0586 13.2122 9.42212C13.2122 8.78567 12.9856 8.24045 12.5323 7.78646C12.0791 7.33245 11.5343 7.10544 10.8978 7.10544C10.2613 7.10544 9.71611 7.33207 9.26212 7.78531C8.80811 8.23854 8.58111 8.78338 8.58111 9.41983C8.58111 10.0563 8.80773 10.6015 9.26097 11.0555C9.7142 11.5095 10.259 11.7365 10.8955 11.7365Z" fill="#4D4D4D"/>
</svg>
