<svg width="29" height="29" viewBox="0 0 29 29" fill="none" xmlns="http://www.w3.org/2000/svg">
<path d="M14.3273 24.1666C14.4078 24.1666 14.4872 24.1488 14.5653 24.1134C14.6435 24.0779 14.7075 24.0352 14.7574 23.9853L24.6296 14.1131C24.8857 13.857 25.0752 13.5658 25.198 13.2397C25.3208 12.9135 25.3822 12.5825 25.3822 12.2467C25.3822 11.8956 25.3208 11.5596 25.198 11.2387C25.0752 10.9178 24.8857 10.637 24.6296 10.3962L19.7615 5.52802C19.5303 5.28154 19.2651 5.10412 18.9659 4.99575C18.6667 4.8874 18.3511 4.83323 18.0193 4.83323C17.7075 4.83323 17.397 4.8874 17.0877 4.99575C16.7784 5.10412 16.5053 5.27191 16.2685 5.49911L16.0012 5.77361L18.1788 7.97423C18.505 8.28508 18.7446 8.63499 18.8976 9.02397C19.0506 9.41295 19.1271 9.82811 19.1271 10.2694C19.1271 11.173 18.8185 11.9335 18.2012 12.5508C17.5839 13.1681 16.8234 13.4768 15.9198 13.4768C15.4833 13.4768 15.0655 13.4003 14.6665 13.2472C14.2674 13.0942 13.9125 12.8623 13.6016 12.5515L11.3577 10.3305L6.23734 15.4436C6.17693 15.504 6.13161 15.5707 6.10141 15.6436C6.0712 15.7164 6.05609 15.7932 6.05609 15.8737C6.05609 16.0348 6.11531 16.1784 6.23375 16.3045C6.35216 16.4306 6.49193 16.4936 6.65304 16.4936C6.7336 16.4936 6.81536 16.4735 6.89833 16.4332C6.98128 16.393 7.0429 16.3527 7.08318 16.3124L11.0976 12.3052L12.7893 13.9969L8.80505 18.0041C8.74464 18.0645 8.69932 18.1323 8.66911 18.2076C8.63891 18.2829 8.6238 18.3609 8.6238 18.4414C8.6238 18.6025 8.68181 18.7411 8.79783 18.8571C8.91385 18.9731 9.05242 19.0311 9.21353 19.0311C9.29408 19.0311 9.37585 19.011 9.45882 18.9707C9.54177 18.9305 9.60579 18.8902 9.65088 18.8499L13.6436 14.8801L15.3353 16.5718L11.3511 20.579C11.2955 20.6193 11.2514 20.6809 11.2188 20.7639C11.1862 20.8468 11.1699 20.9286 11.1699 21.0091C11.1699 21.1702 11.2291 21.31 11.3475 21.4284C11.4659 21.5469 11.6057 21.6061 11.7668 21.6061C11.8474 21.6061 11.9241 21.591 11.997 21.5608C12.0699 21.5306 12.1365 21.4852 12.1969 21.4248L16.2041 17.4406L17.8958 19.1323L13.8886 23.1395C13.8282 23.1999 13.7829 23.2678 13.7527 23.3431C13.7225 23.4184 13.7073 23.4963 13.7073 23.5768C13.7073 23.7379 13.7704 23.8765 13.8965 23.9925C14.0226 24.1086 14.1662 24.1666 14.3273 24.1666ZM14.3043 26.8072C13.5303 26.8072 12.8418 26.5581 12.239 26.0598C11.6361 25.5616 11.2699 24.9303 11.1403 24.1659C10.4748 24.0556 9.9093 23.7664 9.44369 23.2984C8.9781 22.8304 8.69014 22.2637 8.57982 21.5982C7.91916 21.4831 7.36107 21.1913 6.90555 20.7228C6.45001 20.2544 6.16467 19.6975 6.04954 19.0522C5.27945 18.9274 4.64671 18.5662 4.15134 17.9686C3.65596 17.371 3.40827 16.6727 3.40827 15.8737C3.40827 15.4469 3.48981 15.0339 3.6529 14.6348C3.81598 14.2358 4.04813 13.8857 4.34932 13.5845L11.3577 6.59909L15.4522 10.6936C15.5021 10.7589 15.5673 10.8078 15.6479 10.8404C15.7285 10.873 15.8114 10.8893 15.8968 10.8893C16.0732 10.8893 16.2195 10.834 16.3355 10.7232C16.4515 10.6124 16.5095 10.4688 16.5095 10.2924C16.5095 10.2118 16.4932 10.1277 16.4606 10.0399C16.428 9.95212 16.3815 9.88809 16.321 9.84781L11.9796 5.50636C11.7628 5.26951 11.5 5.09811 11.1912 4.99215C10.8823 4.8862 10.5571 4.83323 10.2157 4.83323C9.88949 4.83323 9.57296 4.8862 9.26606 4.99215C8.95917 5.09811 8.68729 5.26951 8.45044 5.50636L4.2922 9.68759C4.12539 9.85438 3.98518 10.061 3.87158 10.3075C3.75797 10.554 3.68344 10.8101 3.64798 11.0758C3.61251 11.2886 3.61492 11.5064 3.6552 11.7292C3.69547 11.9521 3.76639 12.1647 3.86795 12.3669L1.95697 14.2779C1.61943 13.8436 1.36406 13.3424 1.19089 12.7741C1.01776 12.2058 0.948921 11.6397 0.984386 11.0758C1.01983 10.459 1.15719 9.87168 1.39646 9.31391C1.63571 8.75614 1.97643 8.25618 2.41862 7.81401L6.56963 3.65577C7.06741 3.1733 7.63502 2.80883 8.27248 2.56235C8.90991 2.31587 9.55764 2.19263 10.2157 2.19263C10.8881 2.19263 11.5395 2.31587 12.1697 2.56235C12.7999 2.80883 13.3538 3.16607 13.8315 3.63408L14.106 3.90136L14.3732 3.63408C14.8614 3.1757 15.4242 2.82086 16.0616 2.56957C16.6991 2.31827 17.3516 2.19263 18.0193 2.19263C18.6773 2.19263 19.3238 2.32068 19.9588 2.57679C20.5939 2.83291 21.1526 3.2022 21.6351 3.68465L26.538 8.58036C27.0205 9.06283 27.3874 9.63143 27.6386 10.2862C27.8899 10.9409 28.0156 11.6021 28.0156 12.2697C28.0156 12.9422 27.8863 13.6056 27.6278 14.2599C27.3693 14.9142 26.994 15.4874 26.5019 15.9794L16.608 25.8431C16.302 26.1492 15.9506 26.3863 15.554 26.5547C15.1574 26.723 14.7408 26.8072 14.3043 26.8072Z" fill="#4D4D4D"/>
</svg>
