<svg width="29" height="29" viewBox="0 0 29 29" fill="none" xmlns="http://www.w3.org/2000/svg">
<path d="M12.0834 14.2096C10.5835 14.2096 9.30617 13.6823 8.2515 12.6276C7.19684 11.573 6.66952 10.2957 6.66952 8.79574C6.66952 7.29583 7.19684 6.02139 8.2515 4.97242C9.30617 3.92342 10.5835 3.39893 12.0834 3.39893C13.5833 3.39893 14.8606 3.92342 15.9153 4.97242C16.9699 6.02139 17.4973 7.29583 17.4973 8.79574C17.4973 10.2957 16.9699 11.573 15.9153 12.6276C14.8606 13.6823 13.5833 14.2096 12.0834 14.2096ZM1.83618 25.0374V21.0394C1.83618 20.204 2.06144 19.4545 2.51194 18.7908C2.96243 18.1271 3.48976 17.6442 4.09392 17.3421C5.12101 16.8185 6.32169 16.3669 7.69596 15.9873C9.07022 15.6078 10.5327 15.418 12.0834 15.418H12.6515C12.869 15.418 13.061 15.4381 13.2274 15.4784C13.0435 15.8409 12.8535 16.3323 12.6574 16.9527C12.4612 17.5731 12.3216 18.1289 12.2384 18.6201H12.1248C10.7812 18.6201 9.54611 18.7871 8.41966 19.1212C7.2932 19.4552 6.36746 19.799 5.64246 20.1526C5.46121 20.2508 5.31521 20.382 5.20444 20.5462C5.09368 20.7104 5.0383 20.9032 5.0383 21.1248V21.8353H12.4118C12.5553 22.3834 12.7819 22.9493 13.0914 23.5329C13.401 24.1165 13.7164 24.618 14.0378 25.0374H1.83618ZM19.5895 25.9555L19.2099 24.0576C19.0138 23.9797 18.8214 23.8882 18.6327 23.7831C18.444 23.678 18.256 23.562 18.0686 23.4351L16.2311 24.0129L14.8179 21.5831L16.2758 20.3236C16.2241 20.0985 16.2012 19.8737 16.2068 19.6491C16.2125 19.4245 16.2355 19.1997 16.2758 18.9747L14.8179 17.6981L16.2311 15.2853L18.0686 15.8632C18.256 15.7363 18.444 15.6203 18.6327 15.5152C18.8214 15.4101 19.0138 15.3186 19.2099 15.2407L19.5895 13.3428H22.4331L22.8126 15.2407C23.0088 15.3186 23.204 15.4123 23.3984 15.5217C23.5928 15.6312 23.7837 15.7652 23.9711 15.9236L25.7915 15.2853L27.2218 17.7585L25.7468 19.0351C25.7985 19.2313 25.8214 19.446 25.8157 19.6793C25.8101 19.9127 25.7871 20.1274 25.7468 20.3236L27.2218 21.5831L25.7915 24.0129L23.9711 23.4351C23.7837 23.562 23.5928 23.678 23.3984 23.7831C23.204 23.8882 23.0088 23.9797 22.8126 24.0576L22.4331 25.9555H19.5895ZM21.0198 21.9378C21.6389 21.9378 22.1737 21.7097 22.6241 21.2535C23.0746 20.7973 23.2999 20.2596 23.2999 19.6406C23.2999 19.0215 23.0746 18.4868 22.6241 18.0363C22.1737 17.5858 21.6389 17.3605 21.0198 17.3605C20.4008 17.3605 19.8632 17.5858 19.407 18.0363C18.9508 18.4868 18.7227 19.0215 18.7227 19.6406C18.7227 20.2596 18.9508 20.7973 19.407 21.2535C19.8632 21.7097 20.4008 21.9378 21.0198 21.9378ZM12.0828 11.0075C12.6909 11.0075 13.2116 10.791 13.645 10.358C14.0784 9.92496 14.2952 9.40441 14.2952 8.79634C14.2952 8.18829 14.0786 7.6704 13.6456 7.24267C13.2126 6.81494 12.6921 6.60107 12.084 6.60107C11.4759 6.60107 10.9552 6.81596 10.5218 7.24575C10.0883 7.67555 9.87163 8.19221 9.87163 8.79574C9.87163 9.40397 10.0881 9.92466 10.5212 10.3578C10.9542 10.7909 11.4747 11.0075 12.0828 11.0075Z" fill="#4D4D4D"/>
</svg>
