<svg width="29" height="29" viewBox="0 0 29 29" fill="none" xmlns="http://www.w3.org/2000/svg">
<path d="M23.7195 15.8745H9.75338V13.1255H23.7195L21.8393 11.2382L23.7621 9.26939L28.9928 14.5L23.7621 19.7307L21.8393 17.7619L23.7195 15.8745ZM17.3232 10.7089V6.12838H6.12838V22.8717H17.3232V18.2912H20.0721V22.8717C20.0721 23.6326 19.8042 24.281 19.2683 24.8168C18.7325 25.3527 18.0841 25.6206 17.3232 25.6206H6.12838C5.36748 25.6206 4.71908 25.3527 4.18321 24.8168C3.64733 24.281 3.37939 23.6326 3.37939 22.8717V6.12838C3.37939 5.36747 3.64733 4.71908 4.18321 4.18321C4.71908 3.64733 5.36748 3.37939 6.12838 3.37939H17.3232C18.0841 3.37939 18.7325 3.64733 19.2683 4.18321C19.8042 4.71908 20.0721 5.36747 20.0721 6.12838V10.7089H17.3232Z" fill="#246C7A"/>
</svg>
