<svg width="45" height="45" viewBox="0 0 45 45" fill="none" xmlns="http://www.w3.org/2000/svg">
<path d="M18.9835 45.0096C15.3183 42.9333 11.653 40.8571 7.98775 38.7809C7.64485 38.5865 7.3124 38.3648 6.95278 38.208C6.45933 37.9906 6.29207 37.6644 6.29834 37.1145C6.32761 34.434 6.3067 31.7536 6.31925 29.0731C6.32134 28.7574 6.23561 28.5692 5.95544 28.4061C5.18391 27.9587 4.42703 27.4819 3.66805 27.0136C3.19342 26.7209 3.14952 26.4951 3.49451 26.0602C4.43121 24.8788 5.35327 23.6829 6.3297 22.535C6.61197 22.2046 7.05314 22.006 7.43994 21.7739C7.65112 21.6485 7.74521 21.5147 7.74103 21.2596C7.7243 20.3521 7.72639 19.4426 7.73893 18.5352C7.74312 18.2801 7.69294 18.1588 7.40231 18.1003C3.13488 17.241 0.052965 13.5757 0.000693734 9.31662C-0.0515776 4.94047 2.85471 1.16857 7.13886 0.242328C10.7268 -0.533378 13.7522 0.568501 16.163 3.32842C16.3804 3.57724 16.5832 3.67132 16.9031 3.66923C20.6228 3.65878 24.3424 3.66296 28.062 3.66296C29.6636 3.66296 30.5292 4.52648 30.5313 6.13226C30.5334 8.79809 30.5313 11.4639 30.5313 14.1298C30.5313 14.3012 30.5313 14.4748 30.5313 14.6671C32.7602 14.6671 34.9367 14.6671 37.1823 14.6671C37.1823 14.5124 37.1823 14.3577 37.1823 14.205C37.1844 12.6515 37.1739 11.1001 37.199 9.54662C37.2032 9.25808 37.2931 8.93609 37.4437 8.69146C38.1734 7.50804 38.9344 6.34552 39.6892 5.17674C40.0447 4.62684 40.3834 4.62893 40.7451 5.18092C41.5062 6.34343 42.2735 7.50385 43.0137 8.681C43.1538 8.90263 43.2458 9.19326 43.2479 9.45253C43.2646 11.1378 43.2479 12.8209 43.252 14.5061C43.252 14.8511 43.183 15.1313 42.7858 15.1689C42.4722 15.1982 42.2882 14.9389 42.2882 14.4873C42.2861 12.9066 42.2882 11.3259 42.2882 9.7097C40.9207 9.7097 39.568 9.7097 38.1817 9.7097C38.1817 11.3531 38.1817 12.9986 38.1817 14.6671C39.6934 14.8009 39.7938 15.884 39.7122 17.103C40.7284 17.103 41.6923 17.1092 42.6562 17.1009C43.4402 17.0946 44.0988 17.3601 44.5567 18.0041C44.747 18.2717 44.8557 18.5979 45 18.899C45 27.0157 45 35.1324 45 43.2491C44.7094 44.1314 44.1239 44.7168 43.2416 45.0075C37.383 45.0075 31.5224 45.0075 25.6638 45.0075C24.5452 44.6562 23.8761 43.9453 23.8385 42.7263C23.8343 42.6176 23.8197 42.5089 23.805 42.3228C22.2808 43.2386 20.8088 44.123 19.3369 45.0075C19.2177 45.0095 19.1006 45.0096 18.9835 45.0096ZM39.7164 18.0961C39.7164 18.3115 39.7164 18.485 39.7164 18.6606C39.7164 19.9549 39.1958 20.4755 37.9099 20.4755C35.6832 20.4755 33.4585 20.4755 31.2317 20.4755C29.5486 20.4755 29.1827 20.1242 29.1409 18.4265C29.1346 18.1358 29.0405 18.048 28.7583 18.0543C27.9533 18.0689 27.1483 18.0564 26.3412 18.0606C25.254 18.0668 24.8003 18.5268 24.8003 19.6224C24.8003 27.2394 24.8003 34.8564 24.8003 42.4733C24.8003 43.594 25.2498 44.0436 26.3705 44.0436C31.7315 44.0436 37.0903 44.0436 42.4513 44.0436C43.6054 44.0436 44.0361 43.6108 44.0361 42.4545C44.0361 34.8522 44.0361 27.2499 44.0361 19.6475C44.0361 19.5012 44.0424 19.3548 44.0278 19.2084C43.9755 18.6355 43.5719 18.1317 43.0095 18.1087C41.9306 18.0647 40.8497 18.0961 39.7164 18.0961ZM13.7083 17.0967C13.148 17.3329 12.6462 17.5692 12.1276 17.7553C11.8663 17.8494 11.7722 17.9644 11.7743 18.2487C11.7868 20.373 11.7868 22.4953 11.7743 24.6196C11.7722 24.8935 11.8705 25.0315 12.1025 25.1611C14.3356 26.4114 16.5665 27.668 18.787 28.9414C19.0567 29.0961 19.2449 29.0731 19.4979 28.9204C20.8151 28.1301 22.1386 27.3502 23.4726 26.5891C23.7528 26.4302 23.8489 26.2546 23.8469 25.9347C23.8322 23.7958 23.8364 21.6589 23.8406 19.52C23.8448 18.0167 24.7417 17.1197 26.2472 17.105C26.7301 17.1009 27.2131 17.105 27.6961 17.105C28.1603 17.105 28.6244 17.105 29.1346 17.105C29.1346 16.7831 29.1033 16.5175 29.143 16.2624C29.1911 15.9509 29.2935 15.6477 29.3792 15.3425C29.4399 15.125 29.5653 14.9117 29.5653 14.6964C29.5779 11.8549 29.5758 9.01345 29.5737 6.17198C29.5737 5.06383 29.1346 4.62266 28.0348 4.62266C24.5494 4.62057 21.0639 4.62266 17.5785 4.62266C17.4384 4.62266 17.3004 4.6373 17.177 4.64357C17.4572 5.41509 17.7562 6.14271 17.9757 6.89542C18.0698 7.21741 18.1869 7.30313 18.5026 7.30104C21.2417 7.2885 23.9786 7.29477 26.7176 7.29477C27.3177 7.29477 27.4368 7.41186 27.4368 8.01193C27.4389 10.1655 27.4368 12.3191 27.4368 14.4706C27.4368 14.573 27.4682 14.7047 27.418 14.7717C27.3051 14.9222 27.1504 15.148 27.0124 15.1459C26.8451 15.1438 26.6402 14.9724 26.5252 14.8197C26.4437 14.711 26.4792 14.5103 26.4792 14.3493C26.4771 12.4884 26.4771 10.6297 26.4771 8.76882C26.4771 8.61201 26.4771 8.45728 26.4771 8.2942C23.7005 8.2942 20.9761 8.2942 18.2517 8.2942C18.4106 11.5225 17.3234 14.1779 14.8646 16.252C14.7537 16.3461 14.6806 16.5447 14.6785 16.6952C14.6617 17.6612 14.668 18.6293 14.6722 19.5952C14.6743 19.9402 14.5907 20.2351 14.185 20.2351C13.7752 20.2371 13.702 19.9402 13.7041 19.5952C13.7125 18.7777 13.7083 17.9581 13.7083 17.0967ZM0.964576 9.11799C0.960395 13.6405 4.62357 17.3141 9.13562 17.3162C13.6226 17.3162 17.3004 13.6447 17.3088 9.15981C17.3171 4.64357 13.6456 0.963671 9.13144 0.965762C4.63193 0.967853 0.968758 4.62266 0.964576 9.11799ZM19.6087 43.6589C19.7739 43.5773 19.8784 43.5334 19.9767 43.477C21.1517 42.7891 22.3184 42.0907 23.5019 41.4196C23.7758 41.2648 23.8448 41.085 23.8448 40.7923C23.8343 38.5655 23.8406 36.3388 23.8385 34.112C23.8385 33.974 23.8239 33.836 23.8113 33.652C23.665 33.7336 23.5625 33.7859 23.4663 33.8444C22.8056 34.2333 22.7596 34.2249 22.2432 33.6792C21.3692 32.753 20.4931 31.8267 19.6171 30.9005C19.4602 30.7353 19.3034 30.568 19.1341 30.3882C18.0698 31.5152 17.0453 32.6024 16.0187 33.6876C15.5127 34.2228 15.4458 34.2333 14.8332 33.859C13.3111 32.9265 11.7889 31.994 10.2647 31.0636C10.1476 30.9925 10.0221 30.9318 9.8507 30.8398C9.8507 31.3939 9.84651 31.8748 9.85279 32.3557C9.85697 32.6861 9.76915 32.96 9.39071 32.9683C8.98508 32.9767 8.8889 32.6861 8.8889 32.3411C8.8889 31.741 8.89309 31.1388 8.88472 30.5388C8.88263 30.4154 8.87009 30.2335 8.79482 30.1833C8.31601 29.8634 7.81839 29.5728 7.26849 29.2383C7.26849 29.462 7.26849 29.5937 7.26849 29.7254C7.26849 32.0985 7.27477 34.4717 7.26222 36.8448C7.26013 37.1626 7.35422 37.3361 7.63857 37.495C11.1721 39.4792 14.6994 41.476 18.2266 43.4707C18.3458 43.5376 18.4692 43.5982 18.6448 43.6902C18.6448 43.4498 18.6448 43.2909 18.6448 43.1299C18.6448 40.0396 18.6448 36.9472 18.6448 33.8569C18.6448 33.3071 18.787 33.0708 19.1173 33.0603C19.4561 33.0499 19.6066 33.2861 19.6066 33.8319C19.6066 34.8417 19.6066 35.8537 19.6066 36.8636C19.6087 39.0987 19.6087 41.338 19.6087 43.6589ZM6.90469 23.3253C6.0788 24.3582 5.28219 25.3576 4.46675 26.378C8.11111 28.6089 11.7011 30.8085 15.3162 33.0227C16.3344 31.9438 17.3318 30.8879 18.3605 29.7965C14.5154 27.6241 10.7351 25.4894 6.90469 23.3253ZM34.4182 19.5095C35.633 19.5095 36.8478 19.5116 38.0605 19.5095C38.5894 19.5074 38.7484 19.3569 38.7504 18.8384C38.7546 18.0041 38.7546 17.1699 38.7504 16.3356C38.7484 15.815 38.5894 15.6561 38.0667 15.6561C35.6372 15.654 33.2097 15.654 30.7801 15.6561C30.247 15.6561 30.0943 15.8045 30.0901 16.3293C30.0839 17.1636 30.0839 17.9978 30.0901 18.8321C30.0943 19.3632 30.2428 19.5074 30.7738 19.5095C31.9907 19.5116 33.2055 19.5095 34.4182 19.5095ZM19.9035 29.7923C20.8883 30.8357 21.8187 31.8267 22.7533 32.8115C22.8202 32.8805 22.9122 32.9683 22.9959 32.9704C23.3158 32.983 23.8385 32.4164 23.8385 32.0797C23.8385 30.6914 23.8385 29.3031 23.8364 27.9147C23.8364 27.7935 23.8155 27.6722 23.8009 27.5028C22.4857 28.2765 21.2187 29.0208 19.9035 29.7923ZM10.7958 18.1567C10.0765 18.2111 9.40953 18.2613 8.69864 18.3136C8.69864 19.9068 8.69655 21.5 8.70491 23.0932C8.70491 23.1643 8.76763 23.2626 8.83036 23.2981C9.47016 23.6682 10.1162 24.0279 10.7979 24.4105C10.7958 22.282 10.7958 20.2204 10.7958 18.1567ZM40.2161 6.13435C39.6579 7.00414 39.1289 7.83003 38.5769 8.69355C39.7122 8.69355 40.7577 8.69355 41.8846 8.69355C41.3138 7.81748 40.7765 6.99369 40.2161 6.13435Z" fill="#C2DAF5"/>
<path d="M30.5981 30.6747C29.7053 30.6747 28.8146 30.6767 27.9218 30.6726C27.4263 30.6705 27.2611 30.5116 27.259 30.0181C27.2548 28.2033 27.2548 26.3905 27.259 24.5756C27.2611 24.1073 27.4263 23.9379 27.8946 23.9358C29.7074 23.9296 31.5222 23.9317 33.335 23.9358C33.8326 23.9379 33.9978 24.0989 33.9978 24.5924C34.002 26.4072 34.002 28.22 33.9978 30.0349C33.9957 30.5032 33.8264 30.6684 33.3622 30.6726C32.4422 30.6767 31.5202 30.6726 30.5981 30.6747ZM33.0109 29.6982C33.0109 28.0841 33.0109 26.5139 33.0109 24.9332C31.4031 24.9332 29.8224 24.9332 28.2522 24.9332C28.2522 26.5431 28.2522 28.1134 28.2522 29.6982C29.8475 29.6982 31.4093 29.6982 33.0109 29.6982Z" fill="#C2DAF5"/>
<path d="M30.5859 40.8697C29.7224 40.8697 28.8589 40.8718 27.9975 40.8697C27.4141 40.8676 27.2615 40.7233 27.2594 40.1546C27.2573 38.3837 27.2573 36.6148 27.2594 34.8439C27.2594 34.2751 27.4141 34.1267 27.9975 34.1267C29.7538 34.1246 31.508 34.1246 33.2643 34.1267C33.8602 34.1267 34.0024 34.2772 34.0024 34.8898C34.0045 36.6315 34.0045 38.3711 34.0024 40.1128C34.0024 40.7359 33.8623 40.8718 33.2204 40.8718C32.3402 40.8718 31.462 40.8697 30.5859 40.8697ZM28.2504 35.1073C28.2504 36.7298 28.2504 38.3021 28.2504 39.8828C29.852 39.8828 31.4244 39.8828 33.0009 39.8828C33.0009 38.2749 33.0009 36.6922 33.0009 35.1073C31.4014 35.1073 29.8416 35.1073 28.2504 35.1073Z" fill="#C2DAF5"/>
<path d="M38.8445 24.8956C38.144 24.8956 37.4436 24.8914 36.7432 24.8976C36.417 24.8997 36.1389 24.8224 36.1264 24.4418C36.1138 24.0362 36.4003 23.9359 36.7432 23.9359C38.144 23.9359 39.5449 23.9359 40.9458 23.9359C41.2908 23.9359 41.5772 24.0404 41.5626 24.4418C41.55 24.8182 41.272 24.8997 40.9437 24.8976C40.2454 24.8914 39.5449 24.8956 38.8445 24.8956Z" fill="#C2DAF5"/>
<path d="M38.8279 27.783C38.1275 27.783 37.427 27.7788 36.7266 27.7851C36.3921 27.7872 36.1307 27.6827 36.1265 27.3105C36.1223 26.9383 36.3837 26.8212 36.7161 26.8212C38.1316 26.8212 39.5492 26.8212 40.9647 26.8212C41.2972 26.8212 41.5627 26.932 41.5648 27.3021C41.5669 27.6701 41.3118 27.7893 40.9731 27.7872C40.258 27.7788 39.543 27.783 38.8279 27.783Z" fill="#C2DAF5"/>
<path d="M38.8006 30.6747C38.1148 30.6747 37.429 30.6726 36.7411 30.6768C36.4128 30.6788 36.1368 30.5848 36.1264 30.2126C36.1138 29.8132 36.3919 29.7087 36.7432 29.7108C38.1441 29.715 39.547 29.715 40.9479 29.7108C41.2782 29.7108 41.5521 29.8007 41.5626 30.1729C41.5751 30.5701 41.295 30.6788 40.9458 30.6768C40.2307 30.6705 39.5157 30.6747 38.8006 30.6747Z" fill="#C2DAF5"/>
<path d="M38.8029 35.0864C38.1024 35.0864 37.402 35.0843 36.7016 35.0884C36.3837 35.0905 36.1391 34.986 36.1266 34.6368C36.1119 34.2605 36.3691 34.1308 36.6995 34.1287C38.1296 34.1246 39.5597 34.1246 40.9899 34.1287C41.3202 34.1287 41.5774 34.2626 41.5649 34.6347C41.5523 34.9818 41.3098 35.0905 40.992 35.0884C40.2623 35.0843 39.5326 35.0864 38.8029 35.0864Z" fill="#C2DAF5"/>
<path d="M38.8339 37.9801C38.1481 37.9801 37.4623 37.9759 36.7745 37.9822C36.4336 37.9864 36.1347 37.9132 36.1242 37.5118C36.1158 37.1103 36.4023 37.0162 36.7494 37.0162C38.1502 37.0204 39.5532 37.0183 40.9541 37.0162C41.2865 37.0162 41.5562 37.1187 41.5604 37.4888C41.5667 37.8881 41.2823 37.9864 40.9332 37.9822C40.2369 37.9759 39.5365 37.9801 38.8339 37.9801Z" fill="#C2DAF5"/>
<path d="M38.8823 39.9078C39.5827 39.9078 40.2832 39.9099 40.9836 39.9057C41.3244 39.9037 41.5711 40.0312 41.5628 40.3992C41.5565 40.7421 41.3119 40.8675 40.9941 40.8675C39.5639 40.8696 38.1317 40.8696 36.7015 40.8675C36.367 40.8675 36.1119 40.74 36.1224 40.3678C36.1328 39.9936 36.4026 39.9016 36.7329 39.9037C37.4522 39.912 38.1672 39.9078 38.8823 39.9078Z" fill="#C2DAF5"/>
<path d="M14.6596 22.3217C14.6596 22.4806 14.7181 22.6792 14.6449 22.7921C14.5341 22.9636 14.3292 23.1831 14.1682 23.1789C14.0114 23.1748 13.7814 22.9406 13.7291 22.7629C13.6539 22.5099 13.7041 22.2151 13.7082 21.9391C13.7124 21.6317 13.8588 21.4331 14.1787 21.4289C14.4986 21.4247 14.6449 21.6254 14.6658 21.9286C14.6742 22.0582 14.6679 22.19 14.6679 22.3217C14.6658 22.3217 14.6638 22.3217 14.6596 22.3217Z" fill="#C2DAF5"/>
<path d="M19.684 5.90432C19.6819 6.20959 19.4289 6.45631 19.1174 6.44167C18.7891 6.42704 18.6114 6.23468 18.5842 5.91687C18.5591 5.6137 18.8184 5.35861 19.1257 5.35443C19.4394 5.35443 19.6861 5.59697 19.684 5.90432Z" fill="#C2DAF5"/>
<path d="M9.90712 9.75572C10.6891 8.97374 11.4104 8.24821 12.1381 7.52896C12.2489 7.41814 12.389 7.27388 12.5228 7.26551C12.6838 7.25715 12.9619 7.34287 12.9953 7.44951C13.0559 7.63559 13.0455 7.93668 12.9284 8.0684C12.4768 8.58484 11.9708 9.05528 11.4836 9.54036C11.1219 9.90208 10.7623 10.268 10.3964 10.6255C10.0263 10.9872 9.83395 10.9914 9.47014 10.6318C9.17951 10.3432 8.90352 10.0401 8.57943 9.69926C7.89782 10.6025 7.25383 11.4577 6.56804 12.3651C8.46026 12.3651 10.2898 12.3651 12.1255 12.3651C12.0691 12.2376 11.9583 12.1037 11.9687 11.9804C11.9833 11.8236 12.0565 11.6082 12.1757 11.5434C12.3116 11.4681 12.5688 11.4598 12.6921 11.5413C13.127 11.834 13.541 12.1644 13.9404 12.5094C14.2185 12.7498 14.1955 13.0404 13.8944 13.2955C13.5724 13.5694 13.2295 13.8224 12.897 14.0859C12.6733 14.2636 12.4475 14.4559 12.1611 14.2155C11.8621 13.9667 11.9248 13.6865 12.1924 13.3624C11.8579 13.3624 11.5882 13.3624 11.3164 13.3624C9.5015 13.3624 7.68664 13.3624 5.87178 13.3624C5.21944 13.3624 5.09817 13.2433 5.09817 12.6035C5.09817 10.3934 5.09817 8.1834 5.09817 5.93155C4.98526 5.99218 4.89954 6.07582 4.81799 6.07164C4.62982 6.05909 4.37682 6.06327 4.27855 5.94828C4.17819 5.83328 4.15101 5.5322 4.23464 5.40675C4.53155 4.95721 4.87654 4.53486 5.2278 4.12505C5.4327 3.8867 5.71079 3.87833 5.91778 4.1146C6.27322 4.52232 6.62031 4.94258 6.91303 5.3942C6.99875 5.52801 6.96321 5.90019 6.86075 5.96082C6.6684 6.07791 6.38613 6.04864 6.09132 6.08627C6.09132 7.72759 6.09132 9.50272 6.09132 11.2758C6.12268 11.3134 6.15405 11.351 6.18541 11.3908C6.23141 11.2925 6.26068 11.1817 6.32341 11.096C6.8733 10.3558 7.42738 9.61981 7.98354 8.88383C8.34735 8.40503 8.58362 8.39039 9.01433 8.8232C9.30705 9.11173 9.58304 9.41282 9.90712 9.75572Z" fill="#C2DAF5"/>
<path d="M9.85074 35.2013C9.85074 35.3477 9.90092 35.5233 9.83819 35.632C9.73574 35.8119 9.58102 36.0398 9.40539 36.0837C9.13358 36.1548 8.93076 35.9415 8.90567 35.6613C8.8764 35.3435 8.88058 35.0194 8.90149 34.6995C8.92031 34.4152 9.09594 34.2312 9.38657 34.2416C9.67093 34.25 9.84028 34.4214 9.84865 34.7204C9.85492 34.8793 9.85074 35.0403 9.85074 35.2013Z" fill="#C2DAF5"/>
<path d="M30.3203 27.277C30.611 26.9592 30.8786 26.6707 31.14 26.378C31.3532 26.1396 31.6041 26.0434 31.8676 26.2692C32.1289 26.493 32.085 26.7585 31.8697 27.001C31.4996 27.4171 31.1295 27.8311 30.7531 28.2409C30.4855 28.5336 30.2053 28.5462 29.9231 28.2535C29.76 28.0862 29.5927 27.921 29.4275 27.7558C29.2017 27.53 29.1139 27.2729 29.3565 27.024C29.5927 26.7815 29.8541 26.8338 30.0883 27.0617C30.151 27.1244 30.2158 27.1809 30.3203 27.277Z" fill="#C2DAF5"/>
<path d="M30.3201 37.4721C30.6086 37.1564 30.8763 36.8678 31.1376 36.5751C31.3509 36.3388 31.6018 36.2343 31.8632 36.4622C32.1433 36.7047 32.0702 36.9765 31.8423 37.2274C31.4784 37.6289 31.1209 38.0345 30.755 38.4339C30.4895 38.7245 30.2093 38.7454 29.9249 38.4506C29.7619 38.2833 29.5967 38.1181 29.4294 37.953C29.2015 37.7292 29.1137 37.4721 29.3541 37.2233C29.5883 36.9786 29.8518 37.0288 30.0859 37.2567C30.1487 37.3153 30.2135 37.3738 30.3201 37.4721Z" fill="#C2DAF5"/>
</svg>
