<svg width="45" height="45" viewBox="0 0 45 45" fill="none" xmlns="http://www.w3.org/2000/svg">
<g clip-path="url(#clip0_1194_130)">
<path d="M12.9171 45C12.2281 44.7905 11.5495 44.5638 10.9991 44.0624C10.1959 43.3309 9.75273 42.4345 9.73542 41.3527C9.71464 40.24 9.72503 39.1273 9.73195 38.0146C9.73542 37.4754 10.0158 37.1766 10.4867 37.18C10.9541 37.1834 11.2276 37.4857 11.231 38.0249C11.238 39.0792 11.2276 40.1335 11.2345 41.1879C11.2414 42.5753 12.1727 43.506 13.5679 43.506C19.2526 43.5095 24.9408 43.5095 30.629 43.506C32.0173 43.506 32.9555 42.6062 32.9694 41.2428C32.9867 39.4982 32.9728 37.757 32.9728 36.0123C32.9728 35.9265 32.9555 35.8406 32.9417 35.6964C32.7755 35.6964 32.6197 35.6964 32.4639 35.6964C30.2032 35.6964 27.9459 35.6964 25.6852 35.6964C24.9997 35.6964 24.7331 35.4422 24.7331 34.7794C24.7296 31.6748 24.7296 28.5667 24.7331 25.4621C24.7331 25.3728 24.7331 25.2869 24.747 25.1976C24.8127 24.7924 25.1139 24.5348 25.5051 24.5417C25.9241 24.552 26.2149 24.8302 26.2253 25.2732C26.2391 25.8296 26.2322 26.3859 26.2322 26.9423C26.2322 29.1849 26.2322 31.4241 26.2322 33.6667C26.2322 33.8247 26.2322 33.9827 26.2322 34.175C31.2383 34.175 36.2029 34.175 41.2022 34.175C41.2126 34.0239 41.2264 33.8831 41.2264 33.7388C41.2264 29.9748 41.2333 26.2108 41.216 22.4433C41.216 22.2269 41.1052 21.9522 40.9494 21.8045C38.6437 19.6581 36.3241 17.5322 34.008 15.3995C33.9249 15.3205 33.8314 15.2518 33.7206 15.1625C32.682 16.1207 31.6538 17.0617 30.6256 18.0096C28.396 20.0633 26.1699 22.117 23.9403 24.1708C23.833 24.2704 23.7222 24.3734 23.5976 24.4455C23.2548 24.6344 22.9328 24.5692 22.6801 24.2841C22.4274 23.9991 22.4031 23.6762 22.642 23.3637C22.7216 23.2607 22.8255 23.1714 22.9224 23.0821C26.3084 19.9603 29.6943 16.8385 33.0836 13.7201C33.5614 13.2805 33.9041 13.2771 34.3888 13.7236C36.5353 15.6949 38.6749 17.6696 40.8214 19.6409C40.9252 19.7371 41.036 19.8264 41.1953 19.9637C41.1953 18.2397 41.1953 16.5843 41.1953 14.8981C40.4648 14.8981 39.7481 14.8981 39.0211 14.8981C38.9899 14.9908 38.9657 15.0904 38.9241 15.1831C38.751 15.5609 38.3494 15.7361 37.9686 15.5781C37.2589 15.2793 37.5047 14.6405 37.4978 14.1185C37.4908 13.6995 37.7678 13.411 38.1902 13.4042C39.4746 13.3836 40.759 13.3767 42.0435 13.4076C42.5247 13.4179 42.7255 13.7339 42.7255 14.3074C42.729 16.4607 42.7428 18.614 42.7151 20.7674C42.7082 21.2413 42.8536 21.5573 43.2102 21.8526C43.7191 22.275 44.1934 22.7387 44.6746 23.192C45.0762 23.5698 45.1143 23.9647 44.8062 24.3081C44.4842 24.6653 44.0722 24.6516 43.6429 24.2704C43.3798 24.0334 43.1202 23.7964 42.8571 23.5595C42.8432 23.5457 42.8017 23.556 42.7255 23.556C42.7255 23.7071 42.7255 23.8617 42.7255 24.0162C42.7255 27.5605 42.7255 31.1047 42.7255 34.6523C42.7255 35.4835 42.5178 35.6929 41.6834 35.6929C39.4677 35.6929 37.252 35.6929 35.0362 35.6929C34.877 35.6929 34.7143 35.6929 34.5031 35.6929C34.4927 35.875 34.4788 36.0295 34.4788 36.1841C34.4788 37.7673 34.4788 39.3471 34.4788 40.9303C34.4788 43.1145 33.4852 44.3887 31.3422 44.945C31.3145 44.9519 31.2937 44.9794 31.273 44.9965C25.1486 45 19.0311 45 12.9171 45Z" fill="#C2DAF5"/>
<path d="M11.248 31.2386C11.248 32.2586 11.248 33.2065 11.248 34.2093C11.8504 34.2093 12.4355 34.2093 13.0206 34.2093C13.211 34.2093 13.4084 34.199 13.5953 34.2265C14.0073 34.2849 14.2566 34.5871 14.2427 34.982C14.2289 35.3873 13.9692 35.6827 13.5469 35.6827C11.5077 35.693 9.472 35.693 7.43284 35.6827C7.02085 35.6792 6.74735 35.3736 6.73004 34.9786C6.71273 34.5768 6.98624 34.2471 7.42592 34.2231C7.95562 34.1922 8.48877 34.2093 9.02193 34.2093C9.24004 34.2093 9.45815 34.2093 9.70396 34.2093C9.70396 33.2099 9.70396 32.2518 9.70396 31.2386C9.52393 31.2386 9.35083 31.2386 9.17773 31.2386C6.47385 31.2386 3.77343 31.2386 1.06955 31.2386C0.127871 31.2386 -0.0971635 30.957 0.0413194 30.0229C0.37714 27.7219 0.702575 25.4174 1.0384 23.113C1.12149 22.536 1.46077 22.2407 1.93507 22.3266C2.37476 22.4055 2.59633 22.8005 2.51324 23.3465C2.46477 23.6659 2.41976 23.9853 2.37822 24.3013C2.37129 24.3597 2.37822 24.4181 2.37822 24.5073C3.21604 24.5073 4.04694 24.5073 4.91592 24.5073C5.00247 23.2882 5.08902 22.0827 5.17557 20.8292C4.20273 20.8292 3.27836 20.8326 2.35052 20.8292C1.80351 20.8257 1.51616 20.5991 1.47808 20.1595C1.44346 19.7302 1.68234 19.4142 2.11164 19.3524C2.25705 19.3318 2.40591 19.3387 2.55478 19.3387C7.82752 19.3387 13.1003 19.3387 18.373 19.3387C19.2004 19.3387 19.3839 19.4864 19.5016 20.29C19.8444 22.6219 20.1836 24.9538 20.5229 27.2857C20.606 27.8661 20.3671 28.2336 19.8755 28.292C19.4116 28.3469 19.1104 28.0619 19.0308 27.4918C18.9754 27.1003 18.9304 26.7053 18.8508 26.3207C18.83 26.2142 18.6984 26.0494 18.6119 26.0459C17.8191 26.0253 17.0262 26.0322 16.1711 26.0322C16.2092 26.6023 16.2473 27.1243 16.2819 27.6429C16.32 28.213 16.3719 28.7831 16.3858 29.3532C16.3927 29.6829 16.5277 29.7687 16.8462 29.7619C17.9091 29.7447 18.9719 29.7481 20.0348 29.7619C20.2494 29.7653 20.5437 29.7722 20.6545 29.9027C20.8241 30.0984 20.9488 30.4041 20.9488 30.6617C20.9488 30.9708 20.703 31.1837 20.3637 31.218C20.1871 31.2352 20.0105 31.2386 19.834 31.2386C17.1613 31.2386 14.4885 31.2386 11.8158 31.2386C11.6358 31.2386 11.4592 31.2386 11.248 31.2386ZM6.04801 29.7275C7.2909 29.7275 8.49224 29.7275 9.70396 29.7275C9.70396 28.4946 9.70396 27.2857 9.70396 26.0322C8.62379 26.0322 7.5644 26.0288 6.50501 26.0425C6.4323 26.0425 6.30074 26.1696 6.29382 26.2451C6.20381 27.3956 6.12764 28.5461 6.04801 29.7275ZM11.2515 29.7275C12.4736 29.7275 13.675 29.7275 14.9144 29.7275C14.8313 28.5427 14.7551 27.3922 14.6651 26.2417C14.6582 26.1661 14.5266 26.0425 14.4505 26.0425C13.3911 26.0288 12.3351 26.0322 11.255 26.0322C11.2515 27.2892 11.2515 28.498 11.2515 29.7275ZM9.70396 20.8635C8.68957 20.8635 7.69942 20.8635 6.67119 20.8635C6.58463 22.093 6.50154 23.295 6.41846 24.5177C7.55055 24.5177 8.61687 24.5177 9.70396 24.5177C9.70396 23.2882 9.70396 22.0827 9.70396 20.8635ZM11.255 20.8464C11.255 22.093 11.255 23.2985 11.255 24.5177C12.349 24.5177 13.4153 24.5177 14.5405 24.5177C14.4505 23.2744 14.3639 22.0655 14.2739 20.8464C13.2387 20.8464 12.2694 20.8464 11.255 20.8464ZM4.53509 29.7344C4.62164 28.4912 4.70819 27.2857 4.79474 26.0562C3.87037 26.0562 3.00831 26.0562 2.11856 26.0562C1.942 27.2857 1.76889 28.4946 1.59233 29.7344C2.58594 29.7344 3.52416 29.7344 4.53509 29.7344ZM18.0718 20.8635C17.2755 20.8635 16.545 20.8635 15.7903 20.8635C15.8803 22.0999 15.9634 23.3019 16.0534 24.5211C16.9155 24.5211 17.736 24.5211 18.598 24.5211C18.418 23.2847 18.2449 22.0758 18.0718 20.8635Z" fill="#C2DAF5"/>
<path d="M6.9793 3.2832C6.50846 5.53955 6.46345 5.60823 4.88128 6.34662C5.05439 6.97166 5.34866 7.57954 5.35212 8.19085C5.35559 8.78499 5.06477 9.38256 4.88474 10.042C6.30073 10.4472 6.95506 11.5462 6.94121 13.0023C7.64401 13.0676 8.33297 13.0161 8.93537 13.2256C9.517 13.4282 10.0086 13.8953 10.5729 14.2696C11.3831 13.1809 12.5602 12.8306 14.0177 13.1397C14.0073 11.5599 14.6478 10.4472 16.2369 9.99731C15.3506 8.78499 15.3471 7.60014 16.2334 6.37752C14.6374 5.92076 14.0073 4.8046 14.0177 3.24198C13.81 3.27289 13.6542 3.30037 13.4949 3.32097C11.9681 3.50643 10.3029 2.47613 9.7905 1.02684C9.64855 0.625026 9.80089 0.243815 10.1748 0.0720987C10.5452 -0.0961834 10.9295 0.0411897 11.1476 0.425834C11.1892 0.50139 11.2203 0.587248 11.2619 0.662803C11.75 1.57633 12.5982 1.98845 13.623 1.77896C13.9381 1.71371 14.2462 1.60724 14.5543 1.50421C15.2121 1.28442 15.6968 1.6931 15.6172 2.37653C15.5652 2.823 15.5548 3.27976 15.5687 3.72966C15.5895 4.36844 15.9634 4.75309 16.5589 4.92824C16.8808 5.02097 17.2166 5.09652 17.549 5.13773C17.8987 5.18238 18.1895 5.29228 18.3107 5.63914C18.4353 5.99975 18.2864 6.28136 18.0302 6.54581C17.7879 6.79651 17.5732 7.08156 17.3724 7.37004C16.9985 7.9058 16.9812 8.4656 17.3655 9.00478C17.5871 9.31387 17.819 9.61953 18.0822 9.89428C18.3314 10.1587 18.4768 10.4781 18.2864 10.7632C18.141 10.9864 17.826 11.1959 17.5628 11.2302C15.8353 11.4432 15.361 12.0167 15.5722 13.7339C15.586 13.8369 15.6033 13.9365 15.6172 14.0395C15.7141 14.6955 15.2121 15.0938 14.5682 14.8844C14.2185 14.771 13.8688 14.6474 13.5088 14.5924C12.5117 14.4379 11.7085 14.8534 11.2584 15.7532C11.0888 16.0898 10.9122 16.368 10.4864 16.368C10.064 16.368 9.88398 16.0932 9.71433 15.7567C9.2158 14.7745 8.30527 14.3692 7.20087 14.6268C6.91698 14.692 6.64001 14.8088 6.35959 14.8981C5.75026 15.0938 5.2725 14.6714 5.34174 14.0395C5.39021 13.5759 5.40752 13.1088 5.39367 12.6452C5.37636 12.051 5.03708 11.6595 4.47622 11.4878C4.12655 11.3779 3.74918 11.3642 3.40644 11.2371C3.1364 11.1375 2.82827 10.9898 2.6794 10.77C2.48899 10.485 2.63786 10.1725 2.8802 9.90114C3.18141 9.56458 3.45145 9.19711 3.70072 8.81933C3.9673 8.41752 3.96383 7.97792 3.69725 7.5761C3.44798 7.19833 3.17448 6.83086 2.87674 6.49429C2.65171 6.23672 2.54092 5.97227 2.65171 5.65288C2.76249 5.32662 3.02907 5.20642 3.36489 5.15147C3.76996 5.08622 4.17502 4.99349 4.56277 4.86985C5.07862 4.70501 5.36597 4.32036 5.39021 3.78804C5.41098 3.32441 5.40405 2.8539 5.34866 2.3937C5.26903 1.70684 5.72949 1.3325 6.40459 1.50421C7.04162 1.66219 7.69595 1.75835 8.34682 1.83734C8.76573 1.88886 9.04962 2.09148 9.10155 2.4933C9.15002 2.88825 8.93537 3.23855 8.51646 3.2832C8.01099 3.32441 7.49515 3.2832 6.9793 3.2832Z" fill="#C2DAF5"/>
<path d="M10.4172 11.8965C8.34344 11.8519 6.68857 10.1622 6.72319 8.12564C6.76127 6.0513 8.50269 4.42343 10.6249 4.47494C12.6156 4.52303 14.2705 6.25393 14.229 8.24584C14.1909 10.2961 12.4737 11.9412 10.4172 11.8965ZM10.5038 5.96544C9.24358 5.95857 8.23958 6.92705 8.22573 8.15998C8.21188 9.3929 9.19857 10.3957 10.4518 10.4163C11.6913 10.4369 12.716 9.44785 12.7299 8.21493C12.7472 6.97514 11.7536 5.97575 10.5038 5.96544Z" fill="#C2DAF5"/>
<path d="M32.8414 25.129C33.9181 25.129 34.9048 25.1359 35.8949 25.1256C36.2619 25.1221 36.57 25.1977 36.75 25.5411C36.9266 25.8743 36.7985 26.1559 36.6081 26.4375C35.6249 27.8971 34.6486 29.3635 33.6619 30.8197C33.3295 31.3108 32.7929 31.3761 32.4328 30.988C32.1316 30.6617 32.194 30.3286 32.4225 29.9886C33.0629 29.0407 33.7 28.0894 34.337 27.1415C34.4339 26.9973 34.5274 26.8496 34.652 26.6573C34.5032 26.6401 34.3993 26.6195 34.292 26.6195C33.3918 26.6161 32.4917 26.6126 31.5916 26.6195C31.2419 26.6229 30.9441 26.5336 30.771 26.2108C30.6083 25.9052 30.688 25.6236 30.8749 25.3488C31.8685 23.8789 32.8552 22.4022 33.8488 20.9323C34.15 20.4858 34.5689 20.3725 34.9394 20.6163C35.3237 20.8636 35.3825 21.3135 35.0779 21.7737C34.4374 22.7387 33.7865 23.6969 33.1426 24.6619C33.0491 24.789 32.9695 24.9229 32.8414 25.129Z" fill="#C2DAF5"/>
</g>
<defs>
<clipPath id="clip0_1194_130">
<rect width="45" height="45" fill="white"/>
</clipPath>
</defs>
</svg>
