<svg width="195" height="60" viewBox="0 0 195 60" fill="none" xmlns="http://www.w3.org/2000/svg">
<path d="M81 50.9417C81 55.3576 84.5186 58.9448 88.8641 58.9448L194 58.9448L194 42.9448L88.8578 42.9448C84.5186 42.9385 81 46.5257 81 50.9417Z" stroke="#C2DAF5" stroke-width="2" stroke-miterlimit="10"/>
<path d="M1 29.9417C1 34.3576 4.54301 37.9448 8.91856 37.9448L194 37.9448L194 21.9448L8.91856 21.9448C4.54301 21.9448 0.999999 25.5257 1 29.9417Z" stroke="#C2DAF5" stroke-width="2" stroke-miterlimit="10"/>
<path d="M46.2041 8.15857C46.2041 12.6639 48.9356 16.3236 52.309 16.3236L195 16.3236L195 -1.22261e-05L52.309 -5.9889e-06C48.9356 -0.00646031 46.2041 3.65328 46.2041 8.15857Z" fill="#C2DAF5"/>
</svg>
