<svg width="43" height="43" viewBox="0 0 43 43" fill="none" xmlns="http://www.w3.org/2000/svg">
<g clip-path="url(#clip0_1194_89)">
<path d="M28.4699 0C29.0844 0 29.7037 0 30.3182 0C30.6472 0.0532358 30.9763 0.106472 31.3053 0.154868C38.8437 1.19055 44.0935 8.36286 42.8161 15.8885C41.6065 23.0075 35.1277 27.9004 27.9086 27.1454C27.4828 27.1019 27.0619 27.0341 26.6071 26.976C26.6409 27.1164 26.6555 27.2083 26.6845 27.3003C27.299 29.4491 27.9135 31.5979 28.528 33.7467C28.8908 35.0195 28.2812 35.8325 26.9458 35.8325C24.3426 35.8325 21.7395 35.8325 19.1364 35.8325C18.9767 35.8325 18.817 35.8325 18.6332 35.8325C18.6332 36.5488 18.6235 37.1925 18.6428 37.8361C18.6477 37.9474 18.7687 38.0781 18.8703 38.1555C19.2622 38.4411 19.717 38.654 20.0557 38.9928C20.7041 39.6413 20.796 40.4931 20.7718 41.369C20.7428 42.4434 20.2057 43 19.1412 43.0048C17.5445 43.0097 15.9526 43.0048 14.3559 43.0048C12.7205 43.0048 11.0802 43.0097 9.44481 43.0048C8.4771 43 7.90132 42.4192 7.89164 41.4658C7.89164 41.311 7.89164 41.1561 7.89164 41.0061C7.8868 39.6365 8.52549 38.6976 9.77866 38.1604C9.87543 38.1168 10.0158 38.0104 10.0158 37.9329C10.0351 37.2505 10.0254 36.5681 10.0254 35.8374C9.81737 35.8374 9.65286 35.8374 9.48835 35.8374C6.96748 35.8374 4.45145 35.8132 1.93057 35.8519C1.04028 35.8567 0.372567 35.6196 0 34.7726C0 34.521 0 34.2693 0 34.0177C0.0532238 33.8918 0.120963 33.7757 0.159671 33.645C1.38866 29.3474 2.61764 25.045 3.84663 20.7474C4.16113 19.644 4.55789 19.3488 5.70946 19.3488C9.28997 19.3488 12.8753 19.3488 16.4558 19.3488C16.6203 19.3488 16.78 19.3488 16.9977 19.3488C16.9348 19.1746 16.8961 19.0584 16.8478 18.9423C15.9042 16.716 15.5801 14.4027 15.8559 12.0023C16.4752 6.55768 20.4234 1.93585 25.7168 0.517839C26.6167 0.275858 27.5506 0.169387 28.4699 0ZM39.7388 19.9586C41.2968 17.3355 41.8629 14.5721 41.3694 11.6393C40.1985 4.72347 33.7439 0.309736 26.8683 1.67935C19.1315 3.21835 14.8833 11.9732 18.4541 19.01C18.5799 19.2568 18.7106 19.3536 18.9961 19.3536C20.3412 19.3391 21.6814 19.344 23.0266 19.3488C24.0668 19.3488 24.5023 19.6827 24.7829 20.6652C25.1991 22.1171 25.62 23.5641 26.0216 25.016C26.0893 25.2676 26.2103 25.3838 26.4571 25.4419C29.3457 26.1243 32.1181 25.8242 34.7793 24.5127C35.0842 24.3626 35.3745 24.1836 35.6987 23.9997C34.01 22.3106 32.3601 20.67 30.7295 19.0197C30.5069 18.7922 30.3231 18.7342 30.0085 18.8213C25.3345 20.0941 20.9799 15.8836 22.083 11.165C22.1605 10.8311 22.2863 10.5504 22.6346 10.4439C22.9927 10.3374 23.2443 10.5262 23.4814 10.7681C24.4394 11.7312 25.3926 12.6943 26.3651 13.6429C26.4861 13.759 26.7038 13.8461 26.8683 13.8268C27.5506 13.7542 28.2231 13.6187 28.9005 13.5461C29.1618 13.5171 29.2634 13.4203 29.2924 13.1734C29.3747 12.5346 29.4521 11.8958 29.5634 11.2618C29.6166 10.9569 29.5441 10.7488 29.3166 10.5262C28.3441 9.58244 27.3861 8.61936 26.4329 7.65144C25.949 7.16263 26.1184 6.55768 26.7764 6.36894C26.8683 6.3399 26.9651 6.3157 27.0619 6.29634C31.8133 5.36714 35.8099 9.65988 34.5422 14.3398C34.4745 14.5963 34.5277 14.7463 34.7068 14.9254C35.7519 15.9562 36.7873 17.0016 37.8276 18.0373C38.4518 18.6616 39.0711 19.2859 39.7388 19.9586ZM23.3846 12.6992C23.3024 14.2527 24.3088 16.3095 26.3458 17.2097C28.2715 18.0615 30.6182 17.5727 32.0359 16.0095C33.5068 14.3833 33.7826 12.041 32.7278 10.168C31.8472 8.60968 29.844 7.41913 28.5086 7.68531C28.6102 7.79662 28.7021 7.89826 28.7941 7.99505C29.4473 8.6484 30.0908 9.31142 30.7537 9.95025C31.0198 10.2068 31.1166 10.4923 31.0633 10.8553C30.9037 11.9345 30.7537 13.0137 30.5892 14.093C30.5069 14.6398 30.3231 14.7996 29.7715 14.877C29.0796 14.9738 28.3876 15.0851 27.6957 15.1722C25.7603 15.4093 26.3458 15.6562 24.9668 14.3059C24.4491 13.7784 23.9362 13.2557 23.3846 12.6992ZM15.0575 34.3758C16.9784 34.3758 18.8751 34.3758 20.8105 34.3758C20.5879 32.9288 20.3702 31.5204 20.1525 30.1169C18.4203 30.1169 16.7461 30.1169 15.0575 30.1169C15.0575 31.5398 15.0575 32.9336 15.0575 34.3758ZM7.99325 34.371C9.88027 34.371 11.7286 34.371 13.5769 34.371C13.5769 32.9384 13.5769 31.5349 13.5769 30.0927C11.9705 30.0927 10.3883 30.0879 8.81096 30.1024C8.7287 30.1024 8.59323 30.2331 8.57871 30.3154C8.37549 31.6511 8.18679 32.9917 7.99325 34.371ZM6.54169 34.3758C6.74491 32.9578 6.94329 31.5446 7.15134 30.0927C5.93203 30.0927 4.79014 30.0927 3.64341 30.0927C2.66603 30.0927 2.66119 30.0927 2.39023 31.0461C2.07573 32.1447 1.76606 33.2385 1.44188 34.3758C3.1644 34.3758 4.83369 34.3758 6.54169 34.3758ZM19.2815 41.5433C19.5283 40.1253 18.9283 39.4042 17.5251 39.4042C15.3865 39.4042 13.2479 39.4429 11.1093 39.3896C9.90447 39.3606 9.0674 40.0865 9.37223 41.5433C12.6721 41.5433 15.9768 41.5433 19.2815 41.5433ZM31.9246 18.076C33.5794 19.7311 35.2632 21.4153 37.0196 23.1672C37.6534 22.5526 38.3163 21.8993 38.9598 21.275C37.1647 19.4746 35.4761 17.7904 33.8407 16.1546C33.202 16.7935 32.5488 17.4517 31.9246 18.076ZM27.2119 34.3855C26.8151 32.9965 26.4426 31.6705 26.041 30.3492C26.0071 30.2379 25.7894 30.1073 25.6587 30.1073C24.4152 30.0879 23.1717 30.0976 21.9234 30.0976C21.8314 30.0976 21.7395 30.1218 21.6089 30.1363C21.8266 31.5688 22.0443 32.9723 22.2621 34.3855C23.9168 34.3855 25.5329 34.3855 27.2119 34.3855ZM15.0575 25.1079C15.0575 26.3082 15.0575 27.46 15.0575 28.636C16.6832 28.636 18.28 28.636 19.9251 28.636C19.7412 27.4406 19.5622 26.2791 19.3783 25.1079C17.9219 25.1079 16.5091 25.1079 15.0575 25.1079ZM8.8158 28.6263C10.4415 28.6263 12.0141 28.6263 13.5866 28.6263C13.5866 27.4406 13.5866 26.2888 13.5866 25.1128C12.1592 25.1128 10.756 25.1128 9.31901 25.1128C9.14966 26.2888 8.98515 27.4455 8.8158 28.6263ZM3.08214 28.6312C4.5337 28.6312 5.93687 28.6312 7.36424 28.6312C7.53359 27.4551 7.6981 26.3033 7.86745 25.0934C6.6433 25.0934 5.4627 25.0886 4.27726 25.1031C4.195 25.1031 4.05953 25.2289 4.03533 25.316C3.71599 26.4001 3.40632 27.4842 3.08214 28.6312ZM25.5765 28.6554C25.2378 27.4793 24.9281 26.3662 24.5894 25.258C24.5652 25.1757 24.3523 25.1031 24.2265 25.0983C23.2056 25.0837 22.1847 25.0886 21.1637 25.0934C21.0621 25.0934 20.9557 25.1176 20.8444 25.1321C21.0137 26.2452 21.1686 27.3245 21.3476 28.3989C21.3621 28.4957 21.5073 28.6409 21.5943 28.6457C22.8911 28.6602 24.1926 28.6554 25.5765 28.6554ZM11.4721 37.9474C13.3882 37.9474 15.2704 37.9474 17.1719 37.9474C17.1719 37.2457 17.1719 36.5681 17.1719 35.8664C15.2607 35.8664 13.3785 35.8664 11.4721 35.8664C11.4721 36.573 11.4721 37.2409 11.4721 37.9474ZM19.1606 23.6367C19.0106 22.6784 18.8703 21.7444 18.7251 20.8152C17.4816 20.8152 16.272 20.8152 15.072 20.8152C15.072 21.7734 15.072 22.7026 15.072 23.6367C16.4413 23.6367 17.7768 23.6367 19.1606 23.6367ZM13.5866 23.6319C13.5866 22.6688 13.5866 21.7492 13.5866 20.8104C12.3624 20.8104 11.1528 20.8104 9.92866 20.8104C9.79318 21.7589 9.66738 22.6784 9.5319 23.6319C10.9109 23.6319 12.2318 23.6319 13.5866 23.6319ZM4.49983 23.656C5.66108 23.656 6.74975 23.6609 7.83842 23.6464C7.92551 23.6464 8.0755 23.5302 8.09002 23.4528C8.23034 22.5768 8.3513 21.696 8.48194 20.7813C7.46585 20.7813 6.50298 20.7765 5.54011 20.791C5.44818 20.791 5.30303 20.8926 5.27883 20.9749C5.01755 21.8412 4.77079 22.7123 4.49983 23.656ZM20.1718 20.7862C20.3073 21.6621 20.4525 22.4849 20.5541 23.3076C20.5928 23.6077 20.7137 23.6657 20.9799 23.6609C21.9137 23.6464 22.8475 23.656 23.7862 23.656C23.8878 23.656 23.9943 23.6319 24.1346 23.6125C23.8733 22.7075 23.6314 21.8364 23.3701 20.9701C23.3459 20.8926 23.2249 20.791 23.1427 20.791C22.1701 20.7813 21.1976 20.7862 20.1718 20.7862Z" fill="#C2DAF5"/>
</g>
<defs>
<clipPath id="clip0_1194_89">
<rect width="43" height="43" fill="white"/>
</clipPath>
</defs>
</svg>
