<svg width="43" height="43" viewBox="0 0 43 43" fill="none" xmlns="http://www.w3.org/2000/svg">
<path d="M42.9997 41.8959C42.6622 42.7334 42.0287 43 41.1452 43C27.976 42.9834 14.8068 42.9875 1.63756 42.9875C0.566515 42.9875 0.00807372 42.4292 0.00390625 41.3584C0.00390625 41.15 0.00390625 40.9375 0.00390625 40.7292C0.00390625 40.3375 0.00390625 39.9459 0.00390625 39.5542C0.00807372 38.55 0.587353 37.9709 1.60005 37.9667C3.29204 37.9625 4.98821 37.9667 6.6802 37.9667C6.83023 37.9667 6.98026 37.9667 7.1803 37.9667C7.06361 36.2792 7.65956 35.0542 9.30988 34.4792C9.30988 33.2542 9.30988 32.025 9.30988 30.7209C9.16401 30.8334 9.05149 30.9167 8.93897 31.0084C8.05547 31.7375 7.17196 32.4709 6.28429 33.2C5.41329 33.9167 4.65897 33.8375 3.93383 32.9584C3.72963 32.7084 3.52125 32.4625 3.31705 32.2167C2.64608 31.4 2.71276 30.6209 3.52125 29.9542C6.30513 27.6542 9.089 25.3584 11.8729 23.0584C13.0064 22.1209 14.1358 21.1834 15.2694 20.25C16.082 19.5834 16.8613 19.6584 17.5323 20.4625C17.7282 20.7 17.924 20.9375 18.1199 21.175C18.8992 22.1084 18.8326 22.8334 17.8865 23.6167C16.5488 24.725 15.2069 25.8209 13.8816 26.9375C13.7524 27.0459 13.6315 27.25 13.6315 27.4125C13.6149 29.7084 13.619 32 13.6232 34.2959C13.6232 34.35 13.6357 34.4084 13.6399 34.475C15.2694 35.0375 15.8945 36.2417 15.7778 37.9334C16.9655 37.9334 18.1324 37.9334 19.3577 37.9334C19.241 36.2834 19.8369 35.0459 21.4872 34.4834C21.4872 33.2417 21.4872 32.0167 21.4872 30.7125C20.9913 31.1209 20.5412 31.4875 20.0953 31.8584C19.5119 32.3375 18.9367 32.8292 18.345 33.3C17.6073 33.8875 16.8155 33.7959 16.2029 33.0667C15.9612 32.7792 15.7195 32.4875 15.4777 32.1959C14.8318 31.4 14.9026 30.6167 15.6903 29.9625C18.1491 27.9292 20.6079 25.9 23.0667 23.8667C24.5337 22.6542 26.0006 21.4417 27.4717 20.2334C28.2594 19.5875 29.0554 19.6667 29.7055 20.4542C29.9472 20.7459 30.1889 21.0334 30.4265 21.3292C31.0224 22.0709 30.9599 22.8625 30.2348 23.4709C28.8637 24.6209 27.4801 25.7625 26.0923 26.8917C25.8714 27.0709 25.7922 27.25 25.7964 27.5292C25.8047 29.725 25.8006 31.9209 25.8006 34.1209C25.8006 34.3167 25.7839 34.4792 26.0381 34.5792C27.355 35.0875 27.9593 36.0834 27.9635 37.475C27.9635 37.625 27.9635 37.775 27.9635 37.95C29.1596 37.95 30.3139 37.95 31.5308 37.95C31.4183 36.2959 32.0059 35.05 33.6688 34.4875C33.6688 33.2542 33.6688 32.025 33.6688 30.7334C33.5021 30.8584 33.3729 30.9542 33.2478 31.0542C32.3518 31.7917 31.46 32.5375 30.5598 33.2709C29.7847 33.9 28.997 33.8167 28.3594 33.0459C28.1344 32.775 27.9093 32.5084 27.6884 32.2375C27.0008 31.3959 27.0675 30.6334 27.8968 29.9459C30.389 27.8875 32.8811 25.8292 35.3733 23.7709C36.786 22.6042 38.1988 21.4334 39.6116 20.2667C40.4451 19.5792 41.2286 19.65 41.8995 20.4875C42.2871 20.975 42.6372 21.4959 42.9997 22.0042C42.9997 22.2292 42.9997 22.45 42.9997 22.675C42.733 23.0042 42.5038 23.3834 42.1871 23.6542C40.891 24.7584 39.5699 25.8375 38.2488 26.9125C38.0404 27.0792 37.9654 27.25 37.9696 27.5125C37.9821 28.575 37.9738 29.6375 37.9738 30.6959C37.9738 31.9542 37.9738 33.2084 37.9738 34.4709C39.6408 35.0459 40.2492 36.2709 40.1325 37.9625C41.2327 38.0084 42.4538 37.6792 42.9997 39.0459C42.9997 39.9959 42.9997 40.9459 42.9997 41.8959ZM1.45002 41.525C14.8401 41.525 28.1927 41.525 41.5453 41.525C41.5453 40.8125 41.5453 40.1292 41.5453 39.425C28.1719 39.425 14.8193 39.425 1.45002 39.425C1.45002 40.1375 1.45002 40.8167 1.45002 41.525ZM29.5555 32.2375C33.5854 28.9084 37.5695 25.6125 41.5661 22.3125C41.2536 21.9417 40.9702 21.6042 40.6618 21.2375C36.6485 24.5584 32.6561 27.8584 28.6553 31.1667C28.9762 31.5459 29.2512 31.875 29.5555 32.2375ZM5.19658 32.2375C9.21402 28.9167 13.2065 25.6209 17.2114 22.3084C16.8947 21.9334 16.6113 21.5959 16.3071 21.2375C12.2938 24.5584 8.30968 27.85 4.30057 31.1667C4.60896 31.5334 4.88819 31.8709 5.19658 32.2375ZM28.4928 21.2375C24.4878 24.55 20.4954 27.85 16.4821 31.1667C16.7988 31.5417 17.0822 31.8792 17.3823 32.2375C21.4081 28.9125 25.3922 25.6209 29.3971 22.3125C29.0887 21.9459 28.8012 21.6084 28.4928 21.2375ZM14.3442 37.95C14.3442 37.7792 14.3442 37.6542 14.3442 37.5292C14.3484 36.375 13.8149 35.8334 12.6605 35.8334C11.8354 35.8334 11.0102 35.8292 10.185 35.8334C8.99732 35.8417 8.32635 36.775 8.67642 37.95C10.5476 37.95 12.4146 37.95 14.3442 37.95ZM26.5257 37.9417C26.5257 37.7042 26.5299 37.525 26.5257 37.3458C26.509 36.4167 25.9298 35.8375 24.9963 35.8334C24.0586 35.825 23.1251 35.825 22.1874 35.8375C21.5456 35.8459 20.9871 36.2584 20.8579 36.8542C20.7829 37.2 20.8038 37.5667 20.7788 37.9459C22.7208 37.9417 24.6003 37.9417 26.5257 37.9417ZM38.7031 37.9417C38.7031 37.7084 38.7072 37.525 38.7031 37.3458C38.6822 36.4167 38.1071 35.8375 37.1736 35.8334C36.2359 35.825 35.3024 35.825 34.3647 35.8375C33.7229 35.8459 33.1645 36.2584 33.0353 36.8542C32.9603 37.2 32.9811 37.5625 32.9561 37.9459C34.8982 37.9417 36.7777 37.9417 38.7031 37.9417ZM12.1729 28.3459C11.7312 28.7084 11.3394 29 10.9852 29.3292C10.8643 29.4417 10.7643 29.65 10.7643 29.8167C10.7477 31.225 10.756 32.6334 10.756 34.0459C10.756 34.1542 10.7727 34.2584 10.781 34.3667C11.2603 34.3667 11.7103 34.3667 12.1729 34.3667C12.1729 32.3625 12.1729 30.4 12.1729 28.3459ZM36.511 34.3709C36.511 32.3667 36.511 30.3959 36.511 28.4C35.1107 29.3084 35.1107 29.3084 35.1107 30.8667C35.1107 31.2459 35.1107 31.6209 35.1107 32C35.1107 32.7792 35.1107 33.5625 35.1107 34.3709C35.59 34.3709 36.0317 34.3709 36.511 34.3709ZM22.9333 34.3667C23.4334 34.3667 23.8835 34.3667 24.3253 34.3667C24.3253 32.3625 24.3253 30.3917 24.3253 28.3625C23.8752 28.7292 23.471 29.05 23.0834 29.3917C23.0042 29.4625 22.9375 29.6 22.9375 29.7084C22.9292 31.2417 22.9333 32.7834 22.9333 34.3667Z" fill="#C2DAF5"/>
<path d="M10.2476 0C10.6352 0.208333 10.7852 0.529167 10.756 0.966667C10.731 1.34167 10.7602 1.72083 10.7477 2.09583C10.7352 2.55833 10.4435 2.85833 10.0309 2.85833C9.61413 2.85833 9.33491 2.55833 9.32241 2.09167C9.31408 1.71667 9.33908 1.3375 9.31408 0.9625C9.2849 0.520833 9.43493 0.204167 9.82667 0C9.9642 0 10.1059 0 10.2476 0Z" fill="#C2DAF5"/>
<path d="M10.0561 4.29167C13.2109 4.30417 15.7947 6.9125 15.7697 10.0625C15.7447 13.2083 13.1651 15.7708 10.0269 15.7667C6.87217 15.7625 4.28417 13.1625 4.2925 10.0125C4.305 6.85834 6.90134 4.27917 10.0561 4.29167ZM14.3361 10.0333C14.3361 7.675 12.3899 5.72917 10.0353 5.72917C7.68066 5.72917 5.73028 7.675 5.73028 10.0292C5.72611 12.3833 7.67649 14.3333 10.0311 14.3333C12.3857 14.3375 14.3361 12.3875 14.3361 10.0333Z" fill="#C2DAF5"/>
<path d="M16.7491 6.88748C16.5616 6.69165 16.324 6.52498 16.199 6.29582C16.0407 6.00415 16.174 5.70415 16.4366 5.52915C16.8783 5.23748 17.3326 4.96665 17.8077 4.73332C18.1369 4.57082 18.4745 4.64998 18.6912 4.97082C18.8954 5.27082 18.9037 5.63748 18.6162 5.84165C18.1119 6.19998 17.5451 6.47915 17.0033 6.78332C16.9575 6.80832 16.895 6.79582 16.8408 6.79998C16.8075 6.83332 16.7783 6.85832 16.7491 6.88748Z" fill="#C2DAF5"/>
<path d="M1.96674 15.5417C1.70002 15.3 1.43747 15.1542 1.30828 14.9334C1.14158 14.6375 1.2541 14.3125 1.53749 14.125C1.99174 13.8292 2.46267 13.5542 2.94609 13.3167C3.24615 13.1709 3.55038 13.2584 3.76709 13.5375C3.96712 13.7959 4.03797 14.15 3.79209 14.3375C3.24615 14.7667 2.63353 15.1125 1.96674 15.5417Z" fill="#C2DAF5"/>
<path d="M14.1236 16.1375C14.2278 16.2208 14.4653 16.3458 14.607 16.5417C14.8654 16.9042 15.0696 17.3 15.2821 17.6917C15.503 18.1 15.403 18.5083 15.0529 18.7125C14.6987 18.9208 14.2945 18.8083 14.0527 18.4167C13.8069 18.0125 13.5651 17.6042 13.3526 17.1833C13.1067 16.6875 13.4443 16.1417 14.1236 16.1375Z" fill="#C2DAF5"/>
<path d="M1.97541 4.65003C2.08376 4.67919 2.20045 4.6917 2.29214 4.7417C2.71722 4.9792 3.14647 5.21253 3.55905 5.47086C3.93412 5.71253 4.0258 6.10003 3.8216 6.44586C3.62156 6.78753 3.22148 6.9042 2.83807 6.69586C2.40882 6.46669 1.98374 6.22503 1.57533 5.96253C1.2711 5.7667 1.13774 5.44586 1.30444 5.1292C1.4253 4.9042 1.68785 4.7542 1.88789 4.57086C1.92123 4.60003 1.94623 4.62503 1.97541 4.65003Z" fill="#C2DAF5"/>
<path d="M6.8887 3.28335C6.70116 3.47918 6.53863 3.72501 6.31358 3.85418C6.03019 4.01251 5.71347 3.90418 5.53843 3.63751C5.24254 3.18335 4.95915 2.71251 4.72578 2.22501C4.57158 1.90835 4.66743 1.58335 4.97582 1.37918C5.28005 1.17501 5.64262 1.16668 5.84683 1.45835C6.20106 1.95418 6.47611 2.50835 6.78034 3.03751C6.80535 3.08335 6.79701 3.14585 6.80535 3.20001C6.83452 3.22918 6.86369 3.25835 6.8887 3.28335Z" fill="#C2DAF5"/>
<path d="M15.3943 2.04584C15.3693 2.11668 15.3402 2.25418 15.2735 2.37501C15.0609 2.76668 14.8401 3.15418 14.6067 3.53334C14.3608 3.92918 13.9649 4.03751 13.6065 3.82084C13.2648 3.61668 13.1564 3.22084 13.3648 2.83751C13.594 2.40834 13.8399 1.98751 14.0983 1.57501C14.2816 1.28751 14.5734 1.18334 14.8984 1.28751C15.2318 1.38751 15.3985 1.62918 15.3943 2.04584Z" fill="#C2DAF5"/>
<path d="M18.6492 9.32083C18.8993 9.32083 19.1535 9.30416 19.4035 9.32499C19.7786 9.35416 20.0578 9.65416 20.0661 10.0167C20.0745 10.3708 19.8078 10.7125 19.4369 10.7333C18.9076 10.7625 18.3742 10.7625 17.8449 10.7333C17.4656 10.7125 17.2114 10.3958 17.2114 10.025C17.2156 9.63749 17.4865 9.34583 17.8949 9.32083C18.1449 9.30833 18.395 9.32083 18.6492 9.32083Z" fill="#C2DAF5"/>
<path d="M18.8161 14.5417C18.8203 15.2042 18.2952 15.5583 17.8118 15.3292C17.345 15.1083 16.9033 14.8375 16.4699 14.5583C16.1406 14.3458 16.0656 13.9583 16.2406 13.6333C16.424 13.3 16.8199 13.1583 17.1783 13.3417C17.6242 13.5708 18.0702 13.8125 18.4827 14.0958C18.6536 14.2167 18.7495 14.4542 18.8161 14.5417Z" fill="#C2DAF5"/>
<path d="M6.80933 16.9125C6.78433 16.9917 6.75932 17.1167 6.70098 17.225C6.47593 17.6292 6.25089 18.0292 6.00918 18.4208C5.76746 18.8125 5.35488 18.9167 5.00065 18.7C4.66308 18.4958 4.56306 18.1 4.7756 17.7083C5.00065 17.2917 5.23403 16.875 5.49241 16.475C5.67578 16.1917 5.94666 16.0708 6.2884 16.175C6.62179 16.2875 6.78016 16.5292 6.80933 16.9125Z" fill="#C2DAF5"/>
<path d="M9.32223 18.6042C9.32223 18.3542 9.30556 18.1 9.3264 17.85C9.35557 17.4667 9.65146 17.2083 10.0224 17.2042C10.3933 17.2 10.7142 17.4542 10.735 17.8333C10.7642 18.3625 10.7642 18.8958 10.735 19.425C10.7142 19.7958 10.3766 20.0667 10.0224 20.0583C9.66396 20.05 9.36807 19.775 9.3264 19.4C9.32223 19.3708 9.32223 19.3458 9.32223 19.3167C9.31806 19.0792 9.31806 18.8417 9.32223 18.6042Z" fill="#C2DAF5"/>
<path d="M1.43358 9.32083C1.68363 9.32083 1.93784 9.30833 2.18789 9.32499C2.57547 9.34999 2.84219 9.63333 2.85886 9.99999C2.87553 10.3833 2.60881 10.7167 2.20873 10.7375C1.69196 10.7625 1.1752 10.7625 0.65843 10.7375C0.26252 10.7167 -0.0125335 10.375 0.00413643 9.99999C0.0208063 9.63749 0.29586 9.34999 0.679267 9.32499C0.929316 9.30416 1.17936 9.32083 1.43358 9.32083Z" fill="#C2DAF5"/>
</svg>
